<?xml version="1.0" encoding="utf-8"?>
<!-- Generator: Adobe Illustrator 25.2.1, SVG Export Plug-In . SVG Version: 6.00 Build 0)  -->
<svg version="1.1" id="Layer_1" xmlns="http://www.w3.org/2000/svg" xmlns:xlink="http://www.w3.org/1999/xlink" x="0px" y="0px"
	 viewBox="0 0 367.8 58.9" style="enable-background:new 0 0 367.8 58.9;" xml:space="preserve">
<style type="text/css">
	.st0{fill:#FFFFFF;}
</style>
<path class="st0" d="M44.2,27.4l3.2-0.1c0.8,0,1.2,0.1,1.2,0.2c0,0.3-1.6,0.5-4.8,0.8c-2,4-3.1,6.7-3.1,8.2c0,1,0.3,1.5,1,1.5
	c0.2,0,0.5-0.1,0.9-0.4s0.6-0.4,0.7-0.4c0.1,0,0.1,0.1,0.1,0.2c-0.1,0.4-0.4,0.7-1,1s-1,0.4-1.4,0.4s-0.7,0-0.9-0.1
	c-0.5-0.2-0.8-0.8-0.8-1.9c0-2.2,0.8-5,2.5-8.5l-4,0.1c-2.9,2.9-5.9,5.4-8.9,7.6c-4.4,3.2-7.9,4.9-10.4,4.9c-0.2,0-0.3,0-0.5,0
	c-3.4-0.3-5.1-2-5.1-5.2c0-1.9,0.6-3.9,1.8-6c1.6-2.8,3.8-5.2,6.5-7.2s5.2-3,7.4-3s3.3,0.8,3.3,2.4c0,1.1-0.3,2.3-1,3.6
	c-0.7,1.3-1.3,2.2-2,2.5c-0.1,0-0.1,0-0.2,0s-0.1,0-0.1-0.1l1.1-1.8c0.7-1.2,1.1-2.2,1.1-3.1s-0.2-1.6-0.6-2.1s-1-0.8-1.8-0.8
	c-1.7,0-3.8,1-6.2,2.9s-4.2,4.3-5.4,7.1s-1.9,5-1.9,6.5c0,2.4,1.2,3.5,3.6,3.5c2.3,0,5.4-1.5,9.3-4.4c1.7-1.3,4.6-3.8,8.5-7.4
	c-0.8,0-1.5,0.1-2.1,0.2c-1.4,0.3-2.1,0.2-2-0.1c0.1-0.8,0.5-1.2,1.3-1.2c1.5,0.2,2.7,0.3,3.7,0.3c1.9-1.7,4.7-4.6,8.5-8.5
	c2.5-2.7,4.1-4,4.6-4c0.2,0,0.4,0.2,0.4,0.6s-0.1,1-0.3,1.7c-0.2,0.8-0.4,1.3-0.7,1.5c-0.5,0.4-1,0.8-1.4,1.4s-1.1,1.7-1.9,3.4
	C45.5,25,44.8,26.4,44.2,27.4L44.2,27.4z M46.9,19.3l-8.4,7.9h1.9c0.5,0,1,0,1.7,0C42.7,26,44.3,23.4,46.9,19.3z M63.9,36.4
	c-1.5,0-2.2-0.7-2.2-2.1c0-0.8,0.4-1.9,1.1-3.2c0.7-1.4,1.4-2.5,2.2-3.5c-1.4,0.7-2.9,1.9-4.7,3.6s-3,3.5-3.7,5.4
	c-0.1,0.2-0.3,0.3-0.6,0.3c-0.5,0-0.8-0.3-0.8-0.9c0.2-1.2,0.7-2.6,1.5-4.2c0.2-0.5,1-2,2.1-4.4c-1.7,1.1-3.2,2.3-4.4,3.6
	s-2.3,2.6-3.3,3.9s-1.6,1.9-1.7,1.9c-0.3,0-0.5-0.1-0.7-0.4s-0.3-0.5-0.3-0.8c0-0.4,0.6-1.8,1.7-4.4l-2,2.1
	c-0.5,0.5-0.8,0.7-0.9,0.7c-0.1,0-0.2-0.1-0.2-0.2s0.1-0.3,0.3-0.5c0.8-0.8,1.5-1.6,2.2-2.4c0.6-0.8,1.7-2.3,3.2-4.4
	c0.2-0.3,0.6-0.5,1-0.5s0.7,0.2,0.7,0.6c0,0.2-0.6,1.2-1.7,3.2c-1.2,2-1.8,3.2-1.9,3.7c0.9-1,2.3-2.3,4.1-4c2.7-2.5,4.5-3.8,5.3-3.8
	c0.3,0,0.5,0.1,0.7,0.2c0.2,0.2,0.3,0.3,0.3,0.5s-0.4,1-1.3,2.5c-0.8,1.5-1.3,2.4-1.4,2.7c2.4-2,3.7-3.1,3.7-3.1
	c2.1-1.6,3.6-2.4,4.5-2.4c0.3,0,0.5,0.1,0.7,0.2c0.2,0.2,0.3,0.4,0.3,0.6c0,0-0.7,1-2.1,2.8s-2.2,3.3-2.4,4.5c0,0.4,0,0.7,0.2,0.9
	s0.6,0.3,1.1,0.3c0.5,0,1.3-0.4,2.3-1.1s2-1.7,3.1-2.9c0.4-0.4,0.7-0.7,0.8-0.7s0.2,0.1,0.2,0.2c0,0.2-0.1,0.3-0.3,0.5
	c-1.1,1.3-2.2,2.4-3.5,3.3C65.6,36,64.6,36.4,63.9,36.4z M81.4,27l0.5-0.1c0.2,0,0.5,0.1,0.7,0.3s0.3,0.4,0.3,0.5s-0.7,1.2-2,3.2
	c-1.4,2-2,3.4-2,4.2c0,0.1,0,0.1,0,0.2c0.1,0.5,0.4,0.8,0.7,0.8c1.1,0,3.2-1.9,6.3-5.7c0.1-0.1,0.1-0.1,0.2-0.1s0.1,0.1,0.1,0.2
	s-0.1,0.4-0.3,0.6c-2.8,3.8-5,5.6-6.4,5.6c-0.2,0-0.4,0-0.6-0.1c-1-0.4-1.5-1.1-1.5-2.2c0-0.4,0-0.7,0.1-1.1l-2,2
	c-1.3,1.1-2.2,1.7-2.8,1.7c-0.6,0-1.1-0.2-1.7-0.6s-0.9-1-0.9-1.7c0-1.6,1.1-3.5,3.4-5.8s4.3-3.3,6.2-3.3c0.7,0,1.2,0.3,1.5,0.8
	c0.1,0.2,0.1,0.3,0.2,0.4C81.3,26.9,81.3,27,81.4,27L81.4,27z M71.5,35.1c0,0.8,0.3,1.2,0.8,1.2c1.3,0,3-1.4,5.2-4.2l3.5-4.8
	c-0.2-0.3-0.5-0.5-0.9-0.5c-1.3,0-3.1,1-5.3,3.1C72.6,32,71.5,33.7,71.5,35.1z M90.8,26.4c0.6,0,0.9,0.2,0.9,0.7
	c0,0.1,0,0.3-0.1,0.4c-2,2.7-3.2,4.8-3.6,6.2c5.1-5.1,8.2-7.7,9.3-7.7c0.1,0,0.2,0,0.3,0c0.6,0,0.9,0.3,0.9,0.8c0,0.1,0,0.2-0.1,0.3
	c0,0.1-0.5,0.7-1.3,1.8c-1,1.1-1.8,2.2-2.5,3.3s-1,1.9-1,2.6s0.2,1.1,0.5,1.1c1,0,2.7-1.3,5-4c0,0,0.1-0.1,0.2-0.3
	c0.3-0.4,0.5-0.6,0.6-0.6s0.1,0.1,0.1,0.3s-0.2,0.5-0.5,0.9c-2.7,3.1-4.7,4.7-5.8,4.7c-1.1,0-1.6-0.6-1.6-1.8s0.4-2.6,1.3-4.1
	l2.1-3.4c-1.5,1.1-2.8,2.3-4,3.6s-2.2,2.6-3.2,3.8s-1.5,1.8-1.7,1.8c-0.3,0-0.6-0.1-0.8-0.4c-0.2-0.3-0.3-0.6-0.3-1s0.1-1,0.4-1.6
	c0.3-0.7,0.6-1.5,1.1-2.5l-2,2.1c-0.5,0.5-0.8,0.7-0.9,0.7s-0.2-0.1-0.2-0.2s0.1-0.3,0.3-0.5c0.8-0.8,1.5-1.6,2.1-2.3
	s1.7-2.2,3.5-4.3C90.3,26.5,90.6,26.4,90.8,26.4L90.8,26.4z M134.3,22.7c-0.8,0.3-1.5,0.5-2.1,0.5s-0.9-0.1-0.9-0.4
	c0-0.2,0.3-0.2,1-0.3c0.6,0,1.1-0.1,1.4-0.2c0.8-0.4,1.3-1.1,1.3-1.9c0-0.4-0.1-0.9-0.4-1.4c-0.7-1.3-2.4-1.9-5.1-1.9
	c-1.6,0-3.1,0.2-4.7,0.7s-2.9,1.2-3.9,2.2c-1.1,1-1.6,1.9-1.6,2.7c0,1.3,1.3,2.2,3.8,2.8l3.9,0.7c1.6,0.3,2.7,0.7,3.5,1.2
	c1,0.6,1.5,1.5,1.5,2.6c0,0.5-0.1,1-0.2,1.5c-0.7,2.4-2.5,4.2-5.4,5.4c-2.4,1.1-5.3,1.6-8.6,1.6c-0.9,0-1.8,0-2.5-0.1
	c0.7,0.4,1.6,0.7,2.8,1c0.1,0,0.1,0.1,0.1,0.1c0,0.2-0.2,0.3-0.7,0.3c-0.9,0-2-0.5-3.4-1.6c-1.8-0.3-3.2-0.8-4.1-1.5
	c-0.6-0.5-1.1-1.1-1.6-2s-0.7-1.7-0.7-2.4s0.1-1.3,0.4-1.8c0.7-1.2,1.5-1.7,2.5-1.7c0.8,0,1.2,0.6,1.4,1.9c0.3,2.5,0.5,3.9,0.6,4.3
	c0.3,1.1,0.9,2,1.7,2.7c0.9,0.2,1.9,0.3,3,0.3c2.4,0,4.7-0.5,7-1.4s3.9-2.3,4.9-4c0.4-0.7,0.6-1.3,0.6-1.8c0-1-0.9-1.8-2.7-2.4
	l-5.8-1.3c-1.2-0.3-2.1-0.8-2.9-1.4c-0.7-0.7-1.1-1.4-1.1-2.3c0-1.3,0.8-2.6,2.5-4c1.3-1,2.8-1.8,4.6-2.4c1.8-0.6,3.6-0.8,5.3-0.8
	s3.2,0.3,4.3,0.8c1.5,0.7,2.2,1.7,2.2,3C136.3,21.3,135.6,22.2,134.3,22.7L134.3,22.7z M113.1,37.4c-1.3-1.4-2.1-3.3-2.4-5.8
	c-0.2-1.4-0.4-2.1-0.6-2.1s-0.3,0-0.5,0.1s-0.3,0.3-0.5,0.6s-0.2,0.8-0.2,1.3c0,1.7,0.6,3.1,1.8,4.4C111.2,36.6,112,37.1,113.1,37.4
	z M142.4,23.7c0.3,0.2,0.4,0.5,0.4,0.7c0,0.3-0.1,0.5-0.4,0.7s-0.6,0.3-0.9,0.3c-0.3,0-0.6-0.1-0.9-0.4s-0.4-0.5-0.4-0.8
	c0-0.6,0.4-0.9,1.3-0.9C141.8,23.4,142.1,23.5,142.4,23.7L142.4,23.7z M135.5,37.2c-1.1,0-1.7-0.7-1.7-2.2c0-1.2,0.6-2.8,1.9-4.9
	c1.3-2.1,2.3-3.2,3.1-3.2c0.2,0,0.5,0.1,0.7,0.3c0.3,0.2,0.4,0.4,0.4,0.5c-0.1,0.2-0.2,0.3-0.4,0.5s-0.3,0.4-0.5,0.6
	s-0.4,0.5-0.7,0.9s-0.6,0.8-0.9,1.2c-1.6,2.1-2.5,3.6-2.5,4.4s0.3,1.2,0.8,1.2s1.1-0.3,1.9-0.8c1.8-1.1,3.3-2.4,4.4-3.8
	c0.4-0.5,0.7-0.8,0.8-0.8s0.2,0.1,0.2,0.3s-0.3,0.5-0.8,1.1c-0.5,0.5-0.9,0.9-1.2,1.3c-0.3,0.3-0.5,0.5-0.6,0.6s-0.3,0.3-0.6,0.6
	s-0.5,0.5-0.7,0.6s-0.4,0.3-0.7,0.5s-0.5,0.4-0.8,0.5c-0.2,0.1-0.5,0.2-0.8,0.3C136.7,37.1,136.2,37.2,135.5,37.2L135.5,37.2z
	 M148.6,26.4c0.6,0,0.9,0.2,0.9,0.7c0,0.1,0,0.3-0.1,0.4c-2,2.7-3.2,4.8-3.6,6.2c5.1-5.1,8.2-7.7,9.3-7.7c0.1,0,0.2,0,0.3,0
	c0.6,0,0.9,0.3,0.9,0.8c0,0.1,0,0.2-0.1,0.3c0,0.1-0.5,0.7-1.3,1.8c-1,1.1-1.8,2.2-2.5,3.3s-1,1.9-1,2.6s0.2,1.1,0.5,1.1
	c1,0,2.7-1.3,5-4c0,0,0.1-0.1,0.2-0.3c0.3-0.4,0.5-0.6,0.6-0.6s0.1,0.1,0.1,0.3s-0.2,0.5-0.5,0.9c-2.7,3.1-4.7,4.7-5.8,4.7
	s-1.6-0.6-1.6-1.8s0.4-2.6,1.3-4.1l2.1-3.4c-1.5,1.1-2.8,2.3-4,3.6s-2.2,2.6-3.2,3.8s-1.5,1.8-1.7,1.8c-0.3,0-0.6-0.1-0.8-0.4
	s-0.3-0.6-0.3-1s0.1-1,0.4-1.6s0.6-1.5,1.1-2.5l-2,2.1c-0.5,0.5-0.8,0.7-0.9,0.7s0.1-0.1,0.1-0.2s0.1-0.3,0.3-0.5
	c0.8-0.8,1.5-1.6,2.1-2.3s1.7-2.2,3.5-4.3C148.1,26.5,148.3,26.4,148.6,26.4L148.6,26.4z M169,26.8l0.5-0.1c0.3,0,0.5,0.1,0.7,0.3
	s0.2,0.3,0.2,0.4c0,0.1,0,0.2,0,0.3s-0.3,0.7-1,1.7c-0.8,1.3-1.4,2.5-1.9,3.4c-1.8,3.3-3.1,5.6-4.1,6.8c-2,2.7-3.9,4-5.8,4
	c-0.6,0-1.2-0.3-1.7-0.8s-0.7-1.1-0.7-1.8c0.1-0.3,0.2-0.4,0.3-0.4s0.1,0.1,0.2,0.2c0.1,0.6,0.3,1,0.6,1.3s0.6,0.5,0.9,0.5
	c1.3,0,2.6-0.8,4-2.5c0.9-1.1,2-2.7,3.1-4.8l1.6-3.3l-2.5,2.5c-1.6,1.5-2.7,2.3-3.2,2.3s-1.1-0.2-1.7-0.6c-0.6-0.4-0.9-1-0.9-1.7
	c0-1.6,1.1-3.5,3.4-5.7c2.3-2.2,4.3-3.3,6.2-3.3c0.7,0,1.2,0.2,1.5,0.7c0.1,0.2,0.1,0.3,0.2,0.4C169,26.7,169,26.8,169,26.8z
	 M159.2,34.9c0,0.8,0.3,1.2,0.8,1.2c1.3,0,3-1.4,5.2-4.2l3.5-4.8c-0.1-0.3-0.4-0.5-0.8-0.5c-1.4,0-3.2,1.1-5.4,3.2
	C160.3,31.8,159.2,33.6,159.2,34.9z M179.5,36.7c-1.3,0-1.9-0.8-1.9-2.3c0-0.9,0.3-1.8,0.9-2.9c0.6-1,1.3-2.3,2.2-3.7
	c-2.8,1.4-5.4,3.5-7.7,6.2c-1.3,1.9-2,2.9-2.2,2.9c-0.6,0-1-0.2-1-0.6c0-0.2,0.1-0.5,0.4-1.1c2.1-3.8,3.8-6.6,4.9-8.3
	c2.6-4.2,4.5-6.5,5.5-6.8h0.1c0.3,0,0.5,0.2,0.6,0.7c-0.1,0.5-1.2,2.1-3.4,5c-2.3,2.9-3.6,4.8-3.9,5.7c0.8-0.6,2.2-1.6,4.3-3
	c2.2-1.5,3.6-2.3,4.3-2.3s1.1,0.3,1.1,0.8c0,0.1,0,0.1,0,0.2c0,0-0.8,1.1-2.3,3.1s-2.3,3.6-2.3,4.5c0,0.5,0.2,0.8,0.6,0.8
	c1.2,0,3-1.5,5.3-4.3c0.2-0.2,0.3-0.3,0.4-0.3s0.1,0.1,0.1,0.2c0,0.4-1.1,1.6-3.3,3.6C180.9,36.1,180,36.7,179.5,36.7z M233,22.1
	c0,1.1-0.6,2.4-1.7,3.7c-1.1,1.3-2.8,2.4-5.1,3.3c-2.3,0.8-4.5,1.3-6.6,1.3s-3.8-0.3-5.1-0.8c-2.8,4.1-4.6,6.5-5.4,7.4
	c-2.4,2.4-5.2,3.6-8.5,3.6c-1.9,0-3.3-0.4-4.2-1.3s-1.4-2-1.4-3.4c0-1.9,0.8-3.7,2.3-5.4c1.7-1.9,3.8-2.8,6.4-2.8
	c1.1,0,1.9,0.2,2.7,0.7s1.1,1.2,1.1,2.2c0,0.7-0.4,1.5-1.1,2.4s-1.2,1.4-1.4,1.4c0,0-0.1,0-0.1-0.1s0-0.2,0.1-0.3
	c0.7-1,1.1-2,1.1-2.9s-0.3-1.5-0.8-2s-1.2-0.7-2-0.7c-1.8,0-3.5,0.8-4.9,2.5s-2.1,3.4-2.1,5.1c0,1.1,0.3,2,1,2.7s1.8,1,3.2,1
	c2.7,0,5-0.9,7-2.7c1.1-1.1,2.3-2.6,3.4-4.6l2.9-5.2c1.4-2.3,3-5.6,4.9-10.1H218c-3,0-5.9,0.3-8.9,1c-3,0.6-5.3,1.6-6.8,2.8
	c-0.7,0.5-1,1-1,1.5s0.3,0.9,0.8,1.2s1.1,0.4,1.8,0.4s1.6-0.1,2.6-0.4s1.8-0.6,2.4-1.1c0.2-0.2,0.4-0.3,0.5-0.3
	c0.2,0,0.2,0.1,0.1,0.3c-0.8,0.9-2,1.6-3.6,2.1c-1,0.3-2,0.4-2.9,0.4c-1,0-1.8-0.2-2.4-0.6c-0.6-0.4-0.9-1-0.9-1.7s0.4-1.5,1.2-2.2
	c1.5-1.5,4.2-2.5,8-3.2c2.7-0.5,5.9-0.7,9.4-0.7h0.9c0.5-0.4,0.9-0.6,1.3-0.6s0.6,0.2,0.6,0.5c0,0.1,0,0.1,0,0.2
	c3.4,0.2,6.2,0.8,8.3,1.7C231.7,19,233,20.4,233,22.1L233,22.1z M231.4,21.7c0-1.4-1.1-2.5-3.4-3.4c-2-0.8-4.4-1.2-7.4-1.4l-1.1,3.3
	c-0.8,2.1-2.4,4.9-4.8,8.6c0.2,0.1,0.6,0.2,1.1,0.4c0.9,0.2,1.6,0.2,2,0.2c1.7,0,3.6-0.3,5.8-1s4-1.7,5.5-3
	C230.7,24.1,231.4,22.9,231.4,21.7z M237.7,36.7c-1.3,0-1.9-0.8-1.9-2.3c0-0.9,0.3-1.8,0.9-2.9c0.6-1,1.3-2.3,2.2-3.7
	c-2.8,1.4-5.4,3.5-7.7,6.2c-1.3,1.9-2,2.9-2.2,2.9c-0.6,0-1-0.2-1-0.6c0-0.2,0.1-0.5,0.4-1.1c2.1-3.8,3.8-6.6,4.9-8.3
	c2.6-4.2,4.5-6.5,5.5-6.8h0.1c0.3,0,0.5,0.2,0.6,0.7c-0.1,0.5-1.2,2.1-3.4,5c-2.3,2.9-3.6,4.8-3.9,5.7c0.8-0.6,2.2-1.6,4.3-3
	c2.2-1.5,3.6-2.3,4.3-2.3s1.1,0.3,1.1,0.8c0,0.1,0,0.1,0,0.2c0,0-0.8,1.1-2.3,3.1s-2.3,3.6-2.3,4.5c0,0.5,0.2,0.8,0.6,0.8
	c1.2,0,3-1.5,5.3-4.3c0.2-0.2,0.3-0.3,0.4-0.3c0.1,0,0.1,0.1,0.1,0.2c0,0.4-1.1,1.6-3.3,3.6C239.1,36.1,238.2,36.7,237.7,36.7z
	 M252.3,29.8c0,0.8-0.7,2.1-2.2,3.9c-1.7,2.1-3.2,3.2-4.5,3.2h-0.5c-0.6,0-1-0.3-1.4-0.9c-0.3-0.4-0.4-0.9-0.4-1.4
	c0-1.3,1-3.2,2.9-5.6s3.5-3.6,4.7-3.6c1.1,0,1.7,0.6,1.7,1.8c0,0.3-0.1,0.7-0.2,1.2c0,0.1,0.2,0.1,0.6,0.1s1-0.2,1.8-0.6
	c0,0.4-0.9,0.9-2.6,1.6C252.3,29.6,252.3,29.7,252.3,29.8L252.3,29.8z M250.2,28.1c-0.7,0-1.8,0.9-3.2,2.6c-1.4,1.8-2.1,3.1-2.1,3.9
	s0.3,1.3,0.8,1.3c0.9,0,2.1-0.9,3.6-2.6s2.2-2.9,2.2-3.7C251.2,29.4,250.7,28.9,250.2,28.1z M263.1,26.2l4.8-0.1
	c0.1,0,0.1,0.1,0.1,0.1c0,0.2-1.4,0.5-4.1,0.8c-2.7,0.4-4.2,0.6-4.4,0.6c-0.4,0.4-1.2,1.5-2.3,3.3s-1.7,3.2-1.7,4.1
	c0,0.8,0.6,1.2,1.7,1.2c0.5,0,1.2-0.2,2.1-0.5s1.5-0.6,2-0.9c1.2-0.8,2.6-1.9,4-3.4c0.3-0.3,0.5-0.5,0.6-0.5s0.1,0.1,0.1,0.2
	s-0.2,0.4-0.5,0.8c-1.1,1.4-2.4,2.5-3.9,3.4c-1.7,1.1-3.4,1.6-4.9,1.6c-0.7,0-1.2-0.1-1.7-0.4s-0.6-0.9-0.6-1.8s0.4-2.1,1.2-3.7
	c0.8-1.6,1.4-2.7,1.8-3.5c-0.3,0.1-0.6,0.1-0.8,0.1c-0.6,0-1-0.3-1-0.8c0-0.4,0.3-0.6,0.8-0.8c0.1,0,0.2,0,0.3,0h1.9
	c0.4-0.5,0.8-1.1,1.4-1.7c0.6-0.8,1-1.2,1.3-1.2c0.2,0,0.5,0.1,0.8,0.3s0.5,0.4,0.5,0.6s-0.5,1-1.6,2.1
	C261.4,26.2,262.1,26.2,263.1,26.2L263.1,26.2z M274.3,29.8c0,0.8-0.7,2.1-2.2,3.9c-1.7,2.1-3.2,3.2-4.5,3.2h-0.5
	c-0.6,0-1-0.3-1.4-0.9c-0.3-0.4-0.4-0.9-0.4-1.4c0-1.3,1-3.2,2.9-5.6s3.5-3.6,4.7-3.6c1.1,0,1.7,0.6,1.7,1.8c0,0.3-0.1,0.7-0.2,1.2
	c0,0.1,0.2,0.1,0.6,0.1s1-0.2,1.8-0.6c0,0.4-0.9,0.9-2.6,1.6C274.3,29.6,274.3,29.7,274.3,29.8L274.3,29.8z M272.2,28.1
	c-0.7,0-1.8,0.9-3.2,2.6c-1.4,1.8-2.1,3.1-2.1,3.9s0.3,1.3,0.8,1.3c0.9,0,2.1-0.9,3.6-2.6s2.2-2.9,2.2-3.7
	C273.1,29.4,272.7,28.9,272.2,28.1z M287.5,26.8l0.5-0.1c0.3,0,0.5,0.1,0.7,0.3s0.2,0.3,0.2,0.4c0,0.1,0,0.2,0,0.3s-0.3,0.7-1,1.7
	c-0.8,1.3-1.4,2.5-1.9,3.4c-1.8,3.3-3.1,5.6-4.1,6.8c-2,2.7-3.9,4-5.8,4c-0.6,0-1.2-0.3-1.7-0.8s-0.7-1.1-0.7-1.8
	c0.1-0.3,0.2-0.4,0.3-0.4c0.1,0,0.1,0.1,0.2,0.2c0.1,0.6,0.3,1,0.6,1.3c0.3,0.3,0.6,0.5,0.9,0.5c1.3,0,2.6-0.8,4-2.5
	c0.9-1.1,2-2.7,3.1-4.8l1.6-3.3l-2.5,2.5c-1.6,1.5-2.7,2.3-3.2,2.3s-1.1-0.2-1.7-0.6s-0.9-1-0.9-1.7c0-1.6,1.1-3.5,3.4-5.7
	s4.3-3.3,6.2-3.3c0.7,0,1.2,0.2,1.5,0.7c0.1,0.2,0.1,0.3,0.2,0.4C287.4,26.7,287.4,26.8,287.5,26.8L287.5,26.8z M277.6,34.9
	c0,0.8,0.3,1.2,0.8,1.2c1.3,0,3-1.4,5.2-4.2l3.5-4.8c-0.1-0.3-0.4-0.5-0.8-0.5c-1.4,0-3.2,1.1-5.4,3.2
	C278.7,31.8,277.6,33.6,277.6,34.9L277.6,34.9z M296.8,37c-1.6,0-2.5-0.9-2.5-2.7c0-0.9,0.2-1.9,0.7-3s1-2,1.6-2.8
	c-0.1,0-0.3,0-0.4,0c-0.5,0-1-0.4-1.3-1.1l-2.4,3.2c-1.4,1.7-2.2,2.5-2.4,2.5c-0.1,0-0.2,0-0.2-0.1c0-0.2,0.2-0.5,0.6-1
	c1.9-2.2,3.3-4.1,4.1-5.6c0.5-1.9,1.1-2.9,1.9-2.9c0.5,0,0.8,0.2,0.8,0.7c0,0.4-0.3,1-0.8,1.7l-0.8,1.1c0,0.5,0.3,0.7,1,0.7
	c0.4,0,0.8-0.1,1.3-0.4l0.9-0.5c0,0,0.2,0,0.3,0s0.4,0.1,0.6,0.3s0.3,0.4,0.2,0.6l-2.3,2.9c-1.4,1.8-2.1,3.2-2.1,4.3
	c0,1,0.5,1.6,1.5,1.6s2.3-0.5,3.7-1.6c0.9-0.6,1.7-1.4,2.4-2.1c0.7-0.8,1.1-1.2,1.1-1.2c0.2,0,0.2,0.1,0.2,0.2s-0.1,0.4-0.3,0.6
	l-1.1,1.2c-0.6,0.6-1.3,1.2-2,1.8C299.4,36.3,298,37,296.8,37L296.8,37z M315.5,27l0.5-0.1c0.2,0,0.5,0.1,0.7,0.3s0.3,0.4,0.3,0.5
	s-0.7,1.2-2,3.2c-1.4,2-2,3.4-2,4.2c0,0.1,0,0.1,0,0.2c0.1,0.5,0.4,0.8,0.7,0.8c1.1,0,3.2-1.9,6.3-5.7c0.1-0.1,0.1-0.1,0.2-0.1
	s0.1,0.1,0.1,0.2c0,0.2-0.1,0.4-0.3,0.6c-2.8,3.8-5,5.6-6.4,5.6c-0.2,0-0.4,0-0.6-0.1c-1-0.4-1.5-1.1-1.5-2.2c0-0.4,0-0.7,0.1-1.1
	l-2,2c-1.3,1.1-2.2,1.7-2.8,1.7s-1.1-0.2-1.7-0.6s-0.9-1-0.9-1.7c0-1.6,1.1-3.5,3.4-5.8c2.2-2.2,4.3-3.3,6.2-3.3
	c0.7,0,1.2,0.3,1.5,0.8c0.1,0.2,0.1,0.3,0.2,0.4C315.5,26.9,315.5,27,315.5,27L315.5,27z M305.6,35.1c0,0.8,0.3,1.2,0.8,1.2
	c1.3,0,3-1.4,5.2-4.2l3.5-4.8c-0.2-0.3-0.5-0.5-0.9-0.5c-1.3,0-3.1,1-5.3,3.1C306.8,32,305.6,33.7,305.6,35.1L305.6,35.1z M332,29.4
	c0,1.8-1,3.5-3.1,5.1c-2,1.6-3.8,2.4-5.3,2.4c-1,0-1.7-0.1-2.2-0.2s-1-0.5-1.5-1.2c-0.4,0.3-0.9,1.1-1.5,2.4s-1,2.3-1,3.2
	c0,0.4,0.2,1,0.6,1.6c0,0.1,0,0.2-0.1,0.3s-0.2,0.1-0.2,0.1h-0.1c-0.9-0.5-1.4-1.5-1.4-3s1.2-4,3.6-7.6s4.1-5.5,5-5.9
	c0.2,0,0.4-0.1,0.4-0.1c0.4,0,0.6,0.4,0.6,1.2c0.2-0.2,0.7-0.4,1.4-0.6c0.8-0.2,1.4-0.3,1.8-0.3c0.8,0,1.5,0.2,2.1,0.7
	C331.8,28,332,28.6,332,29.4L332,29.4z M330.4,29c0-0.8-0.5-1.3-1.5-1.3s-1.9,0.2-2.7,0.6c-0.4,0.2-1.4,1.1-3.1,2.9
	s-2.5,2.9-2.5,3.4c0,0.4,0.3,0.7,0.9,0.9s1.2,0.3,1.8,0.3c1.2,0,2.7-0.7,4.5-2.1S330.4,30.9,330.4,29L330.4,29z M341.3,36.7
	c-1.3,0-1.9-0.8-1.9-2.3c0-0.9,0.3-1.8,0.9-2.9c0.6-1,1.3-2.3,2.2-3.7c-2.8,1.4-5.4,3.5-7.7,6.2c-1.3,1.9-2,2.9-2.2,2.9
	c-0.6,0-1-0.2-1-0.6c0-0.2,0.1-0.5,0.4-1.1c2.1-3.8,3.8-6.6,4.9-8.3c2.6-4.2,4.5-6.5,5.5-6.8h0.1c0.3,0,0.5,0.2,0.6,0.7
	c-0.1,0.5-1.2,2.1-3.4,5c-2.3,2.9-3.6,4.8-3.9,5.7c0.8-0.6,2.2-1.6,4.3-3c2.2-1.5,3.6-2.3,4.3-2.3c0.7,0,1.1,0.3,1.1,0.8
	c0,0.1,0,0.1,0,0.2c0,0-0.8,1.1-2.3,3.1s-2.3,3.6-2.3,4.5c0,0.5,0.2,0.8,0.6,0.8c1.2,0,3-1.5,5.3-4.3c0.2-0.2,0.3-0.3,0.4-0.3
	s0.1,0.1,0.1,0.2c0,0.4-1.1,1.6-3.3,3.6C342.7,36.1,341.8,36.7,341.3,36.7z M345.5,40.7c1.1,1.3,2,2,2.7,2c1.3,0,2.6-1,4.1-3
	c1.1-1.5,2.1-3.3,3.1-5.6l1.3-3l-4.9,3.8c-1.5,1.2-2.7,1.7-3.6,1.7c-0.5,0-0.9-0.2-1.2-0.5c-0.3-0.3-0.4-0.7-0.4-1.1
	c0-0.9,0.8-2.5,2.4-4.7s2.8-3.2,3.6-3.2c0.7,0,1.1,0.3,1.1,0.8c0,0.2-1,1.3-2.9,3.4s-2.9,3.5-2.9,4.2c0,0.3,0.2,0.4,0.6,0.4
	c0.7,0,2.1-0.8,4.2-2.5c2.1-1.6,3.7-3,4.8-4.1c0.2-0.3,0.6-0.7,1-1.3c0.4-0.5,0.9-0.7,1.4-0.7s0.8,0.2,0.8,0.7
	c0,0.1-0.5,0.9-1.5,2.3c-1,1.5-1.5,2.3-1.6,2.3c-0.7,1.3-1.7,3.2-3.1,5.8c-2.1,3.4-4.3,5.1-6.4,5.1c-0.7,0-1.3-0.3-1.8-0.9
	S345.5,41.4,345.5,40.7L345.5,40.7z"/>
</svg>
