<?xml version="1.0" encoding="utf-8"?>
<!-- Generator: Adobe Illustrator 25.2.1, SVG Export Plug-In . SVG Version: 6.00 Build 0)  -->
<svg version="1.1" id="Layer_1" xmlns="http://www.w3.org/2000/svg" xmlns:xlink="http://www.w3.org/1999/xlink" x="0px" y="0px"
	 viewBox="0 0 458 98" style="enable-background:new 0 0 458 98;" xml:space="preserve">
<path d="M44.5,63.3l3.2-0.1c0.8,0,1.2,0.1,1.2,0.2c0,0.3-1.6,0.5-4.9,0.8c-2.1,4-3.1,6.8-3.1,8.2c0,1,0.3,1.5,1,1.5
	c0.2,0,0.5-0.1,0.9-0.4c0.4-0.3,0.6-0.4,0.7-0.4s0.1,0.1,0.1,0.2c-0.1,0.4-0.4,0.7-1,1c-0.6,0.3-1,0.4-1.4,0.4s-0.7,0-0.9-0.1
	c-0.5-0.2-0.8-0.8-0.8-1.9c0-2.2,0.9-5.1,2.6-8.5l-4,0.1c-3,2.9-5.9,5.4-8.9,7.6c-4.5,3.3-8,4.9-10.5,4.9c-0.2,0-0.3,0-0.5,0
	c-3.4-0.3-5.1-2-5.1-5.2c0-1.9,0.6-3.9,1.8-6c1.6-2.8,3.8-5.3,6.5-7.3c2.8-2,5.2-3,7.4-3c2.2,0,3.3,0.8,3.3,2.4c0,1.1-0.3,2.3-1,3.6
	c-0.7,1.3-1.3,2.2-2,2.5c-0.1,0-0.1,0-0.2,0s-0.1,0-0.1-0.1l1.1-1.8c0.8-1.2,1.1-2.2,1.1-3.1c0-0.9-0.2-1.6-0.6-2.1
	c-0.4-0.5-1-0.8-1.8-0.8c-1.7,0-3.8,1-6.2,2.9c-2.4,1.9-4.2,4.3-5.5,7.1c-1.3,2.8-1.9,5-1.9,6.6c0,2.4,1.2,3.6,3.6,3.6
	c2.3,0,5.4-1.5,9.4-4.5c1.7-1.3,4.6-3.8,8.5-7.4c-0.8,0-1.5,0.1-2.2,0.2c-1.4,0.3-2.1,0.2-2-0.1c0.1-0.8,0.5-1.2,1.3-1.2
	c1.5,0.2,2.7,0.3,3.7,0.3c1.9-1.7,4.8-4.6,8.5-8.6c2.5-2.7,4.1-4,4.7-4c0.2,0,0.4,0.2,0.4,0.6c0,0.4-0.1,1-0.3,1.8
	c-0.2,0.8-0.4,1.3-0.7,1.5c-0.5,0.4-1,0.8-1.4,1.4c-0.4,0.6-1.1,1.7-1.9,3.4C45.8,60.9,45.1,62.2,44.5,63.3L44.5,63.3z M47.2,55.2
	l-8.5,8h2c0.5,0,1,0,1.7,0C43,61.9,44.6,59.2,47.2,55.2z M64.4,72.4c-1.5,0-2.3-0.7-2.3-2.1c0-0.8,0.4-1.9,1.1-3.3
	c0.7-1.4,1.5-2.6,2.2-3.5c-1.4,0.7-3,1.9-4.8,3.6c-1.8,1.7-3,3.6-3.8,5.5c-0.1,0.2-0.3,0.3-0.6,0.3c-0.5,0-0.8-0.3-0.8-0.9
	c0.2-1.2,0.7-2.6,1.5-4.2c0.2-0.5,1-2,2.2-4.5c-1.7,1.1-3.2,2.3-4.4,3.6c-1.2,1.3-2.3,2.6-3.4,3.9c-1,1.3-1.6,2-1.7,2
	c-0.3,0-0.5-0.1-0.7-0.4c-0.2-0.3-0.3-0.5-0.3-0.8c0-0.4,0.6-1.9,1.7-4.4l-2,2.1c-0.5,0.5-0.8,0.7-0.9,0.7c-0.1,0-0.2-0.1-0.2-0.2
	c0-0.1,0.1-0.3,0.3-0.5c0.8-0.8,1.6-1.6,2.2-2.5c0.6-0.8,1.7-2.3,3.2-4.4c0.2-0.3,0.6-0.5,1-0.5s0.7,0.2,0.7,0.6
	c0,0.2-0.6,1.2-1.8,3.2c-1.2,2-1.8,3.3-2,3.8c0.9-1,2.3-2.3,4.1-4c2.7-2.5,4.5-3.8,5.4-3.8c0.3,0,0.5,0.1,0.7,0.2
	c0.2,0.2,0.3,0.3,0.3,0.5s-0.4,1-1.3,2.5c-0.8,1.5-1.3,2.4-1.4,2.7c2.5-2.1,3.7-3.1,3.7-3.1c2.1-1.6,3.6-2.4,4.5-2.4
	c0.3,0,0.5,0.1,0.7,0.2c0.2,0.2,0.3,0.4,0.3,0.6c0,0-0.7,1-2.2,2.8c-1.4,1.8-2.2,3.3-2.4,4.5c0,0.4,0,0.7,0.2,0.9
	c0.2,0.2,0.6,0.3,1.1,0.3c0.5,0,1.3-0.4,2.3-1.1c1-0.7,2-1.7,3.1-2.9c0.4-0.4,0.7-0.7,0.8-0.7c0.1,0,0.2,0.1,0.2,0.2
	c0,0.2-0.1,0.3-0.3,0.5c-1.1,1.3-2.3,2.4-3.5,3.3C66,71.9,65.1,72.4,64.4,72.4z M81.9,62.8l0.5-0.1c0.2,0,0.5,0.1,0.7,0.3
	c0.2,0.2,0.3,0.4,0.3,0.5c0,0.1-0.7,1.2-2.1,3.2c-1.4,2-2.1,3.4-2.1,4.2c0,0.1,0,0.1,0,0.2c0.1,0.5,0.4,0.8,0.7,0.8
	c1.2,0,3.3-1.9,6.3-5.7c0.1-0.1,0.1-0.1,0.2-0.1s0.1,0.1,0.1,0.2s-0.1,0.4-0.3,0.6c-2.8,3.8-5,5.7-6.5,5.7c-0.2,0-0.4,0-0.6-0.1
	c-1-0.4-1.5-1.1-1.5-2.2c0-0.4,0-0.8,0.1-1.1l-2.1,2c-1.3,1.2-2.3,1.7-2.8,1.7c-0.6,0-1.1-0.2-1.7-0.6c-0.6-0.4-0.9-1-0.9-1.8
	c0-1.6,1.1-3.5,3.4-5.8c2.3-2.2,4.3-3.4,6.2-3.4c0.7,0,1.2,0.3,1.5,0.8c0.1,0.2,0.1,0.3,0.2,0.4C81.9,62.8,81.9,62.8,81.9,62.8
	L81.9,62.8z M72,71c0,0.8,0.3,1.2,0.8,1.2c1.3,0,3-1.4,5.2-4.2l3.5-4.9c-0.2-0.3-0.5-0.5-0.9-0.5c-1.4,0-3.1,1-5.4,3.1
	S72,69.6,72,71z M91.4,62.3c0.6,0,0.9,0.2,0.9,0.7c0,0.1,0,0.3-0.1,0.4c-2,2.8-3.2,4.9-3.6,6.3c5.2-5.2,8.3-7.7,9.4-7.7
	c0.1,0,0.2,0,0.3,0c0.6,0,0.9,0.3,0.9,0.8c0,0.1,0,0.2-0.1,0.3c0,0.1-0.5,0.7-1.3,1.8c-1,1.2-1.8,2.3-2.5,3.3s-1,1.9-1,2.7
	c0,0.7,0.2,1.1,0.5,1.1c1,0,2.7-1.3,5.1-4c0,0,0.1-0.1,0.2-0.3c0.3-0.4,0.5-0.6,0.6-0.6s0.1,0.1,0.1,0.3s-0.2,0.5-0.5,0.9
	c-2.7,3.1-4.7,4.7-5.8,4.7c-1.1,0-1.6-0.6-1.6-1.8c0-1.2,0.4-2.6,1.3-4.1l2.1-3.5c-1.5,1.1-2.8,2.3-4,3.6c-1.2,1.3-2.2,2.6-3.2,3.8
	c-1,1.2-1.5,1.9-1.7,1.9c-0.3,0-0.6-0.1-0.8-0.4c-0.2-0.3-0.3-0.6-0.3-1c0-0.4,0.1-1,0.4-1.6c0.3-0.7,0.7-1.5,1.1-2.5l-2,2.1
	c-0.5,0.5-0.8,0.7-0.9,0.7c-0.1,0-0.2-0.1-0.2-0.2c0-0.1,0.1-0.3,0.3-0.5c0.8-0.8,1.5-1.6,2.1-2.4c0.6-0.8,1.8-2.2,3.6-4.3
	C91,62.4,91.2,62.3,91.4,62.3L91.4,62.3z M135.2,58.6c-0.8,0.3-1.5,0.5-2.1,0.5c-0.6,0-0.9-0.1-0.9-0.4c0-0.2,0.3-0.2,1-0.3
	c0.7,0,1.1-0.1,1.4-0.2c0.8-0.4,1.3-1.1,1.3-2c0-0.4-0.1-0.9-0.4-1.4c-0.7-1.3-2.4-1.9-5.1-1.9c-1.6,0-3.1,0.2-4.7,0.7
	c-1.6,0.5-2.9,1.2-4,2.2c-1.1,1-1.6,1.9-1.6,2.7c0,1.3,1.3,2.2,3.8,2.8l3.9,0.7c1.6,0.3,2.7,0.7,3.5,1.2c1,0.6,1.5,1.5,1.5,2.7
	c0,0.5-0.1,1-0.2,1.5c-0.7,2.4-2.5,4.2-5.5,5.5c-2.5,1.1-5.4,1.6-8.7,1.6c-1,0-1.8,0-2.5-0.1c0.7,0.4,1.6,0.7,2.8,1
	c0.1,0,0.1,0.1,0.1,0.1c0,0.2-0.2,0.3-0.7,0.3c-0.9,0-2-0.5-3.4-1.6c-1.8-0.3-3.2-0.8-4.1-1.5c-0.6-0.5-1.1-1.2-1.6-2.1
	c-0.5-0.9-0.7-1.7-0.7-2.5c0-0.7,0.1-1.3,0.4-1.8c0.7-1.2,1.5-1.8,2.5-1.8c0.8,0,1.2,0.7,1.4,2c0.3,2.5,0.5,4,0.6,4.3
	c0.3,1.1,0.9,2,1.7,2.8c0.9,0.2,1.9,0.3,3,0.3c2.4,0,4.7-0.5,7-1.4c2.3-1,4-2.3,5-4.1c0.4-0.7,0.6-1.3,0.6-1.8c0-1-0.9-1.8-2.8-2.4
	l-5.8-1.3c-1.2-0.3-2.2-0.8-2.9-1.4c-0.7-0.7-1.1-1.4-1.1-2.3c0-1.3,0.8-2.7,2.5-4c1.3-1,2.8-1.8,4.6-2.4c1.8-0.6,3.6-0.8,5.4-0.8
	c1.8,0,3.2,0.3,4.4,0.8c1.5,0.7,2.2,1.7,2.2,3C137.3,57.1,136.6,58,135.2,58.6L135.2,58.6z M113.9,73.4c-1.3-1.4-2.1-3.4-2.5-5.8
	c-0.2-1.4-0.4-2.1-0.6-2.1s-0.3,0-0.5,0.1s-0.3,0.3-0.5,0.6c-0.2,0.3-0.2,0.8-0.2,1.3c0,1.7,0.6,3.2,1.8,4.4
	C112,72.6,112.8,73,113.9,73.4z M143.4,59.5c0.3,0.2,0.4,0.5,0.4,0.7s-0.1,0.5-0.4,0.7c-0.3,0.2-0.6,0.3-0.9,0.3
	c-0.3,0-0.6-0.1-0.9-0.4c-0.3-0.2-0.4-0.5-0.4-0.8c0-0.6,0.4-0.9,1.3-0.9C142.8,59.2,143.1,59.3,143.4,59.5L143.4,59.5z M136.5,73.1
	c-1.1,0-1.7-0.7-1.7-2.2c0-1.2,0.7-2.9,2-5s2.4-3.2,3.2-3.2c0.2,0,0.5,0.1,0.7,0.3c0.3,0.2,0.4,0.4,0.4,0.5
	c-0.1,0.2-0.2,0.3-0.4,0.5c-0.2,0.2-0.3,0.4-0.5,0.6c-0.2,0.2-0.4,0.5-0.7,0.9s-0.6,0.8-0.9,1.2c-1.7,2.1-2.5,3.6-2.5,4.4
	s0.3,1.2,0.8,1.2c0.5,0,1.1-0.3,1.9-0.8c1.9-1.2,3.3-2.4,4.4-3.8c0.4-0.5,0.7-0.8,0.8-0.8s0.2,0.1,0.2,0.3c0,0.2-0.3,0.5-0.8,1.1
	c-0.5,0.5-0.9,1-1.2,1.3c-0.3,0.3-0.5,0.5-0.6,0.6c-0.1,0.1-0.3,0.3-0.6,0.6c-0.3,0.3-0.5,0.5-0.7,0.6c-0.2,0.1-0.4,0.3-0.7,0.5
	s-0.5,0.4-0.8,0.5c-0.2,0.1-0.5,0.2-0.8,0.3C137.7,73,137.1,73.1,136.5,73.1L136.5,73.1z M149.6,62.3c0.6,0,0.9,0.2,0.9,0.7
	c0,0.1,0,0.3-0.1,0.4c-2,2.8-3.2,4.9-3.6,6.3c5.2-5.2,8.3-7.7,9.4-7.7c0.1,0,0.2,0,0.3,0c0.6,0,0.9,0.3,0.9,0.8c0,0.1,0,0.2-0.1,0.3
	c0,0.1-0.5,0.7-1.3,1.8c-1,1.2-1.8,2.3-2.5,3.3c-0.7,1.1-1,1.9-1,2.7s0.2,1.1,0.5,1.1c1,0,2.7-1.3,5.1-4c0,0,0.1-0.1,0.2-0.3
	c0.3-0.4,0.5-0.6,0.6-0.6c0.1,0,0.1,0.1,0.1,0.3s-0.2,0.5-0.5,0.9c-2.7,3.1-4.7,4.7-5.8,4.7c-1.1,0-1.6-0.6-1.6-1.8
	c0-1.2,0.4-2.6,1.3-4.1l2.1-3.5c-1.5,1.1-2.8,2.3-4,3.6c-1.2,1.3-2.2,2.6-3.2,3.8c-1,1.2-1.5,1.9-1.7,1.9c-0.3,0-0.6-0.1-0.8-0.4
	s-0.3-0.6-0.3-1c0-0.4,0.1-1,0.4-1.6c0.3-0.7,0.7-1.5,1.1-2.5l-2,2.1c-0.5,0.5-0.8,0.7-0.9,0.7c-0.1,0-0.2-0.1-0.2-0.2
	s0.1-0.3,0.3-0.5c0.8-0.8,1.5-1.6,2.1-2.4c0.6-0.8,1.8-2.2,3.6-4.3C149.2,62.4,149.4,62.3,149.6,62.3L149.6,62.3z M170.2,62.6
	l0.5-0.1c0.3,0,0.5,0.1,0.7,0.3c0.2,0.2,0.2,0.3,0.2,0.4c0,0.1,0,0.2,0,0.3c0,0.1-0.3,0.7-1,1.7c-0.8,1.4-1.4,2.5-1.9,3.4
	c-1.8,3.3-3.2,5.6-4.1,6.9c-2,2.7-4,4.1-5.8,4.1c-0.6,0-1.2-0.3-1.7-0.8c-0.5-0.5-0.7-1.1-0.7-1.8c0.1-0.3,0.2-0.4,0.3-0.4
	c0.1,0,0.1,0.1,0.2,0.2c0.1,0.6,0.3,1,0.6,1.3c0.3,0.3,0.6,0.5,0.9,0.5c1.3,0,2.6-0.8,4.1-2.5c1-1.1,2-2.7,3.2-4.9l1.7-3.3l-2.5,2.5
	c-1.6,1.5-2.7,2.3-3.3,2.3c-0.6,0-1.1-0.2-1.7-0.6c-0.6-0.4-0.9-1-0.9-1.8c0-1.6,1.1-3.5,3.4-5.8c2.3-2.2,4.3-3.4,6.2-3.4
	c0.8,0,1.2,0.2,1.5,0.7c0.1,0.2,0.1,0.3,0.2,0.4C170.2,62.6,170.2,62.6,170.2,62.6z M160.3,70.8c0,0.8,0.3,1.2,0.8,1.2
	c1.3,0,3-1.4,5.2-4.2l3.5-4.9c-0.1-0.3-0.4-0.5-0.8-0.5c-1.4,0-3.2,1.1-5.4,3.2C161.4,67.8,160.3,69.5,160.3,70.8z M180.8,72.6
	c-1.3,0-2-0.8-2-2.3c0-0.9,0.3-1.8,0.9-2.9c0.6-1.1,1.4-2.3,2.2-3.7c-2.8,1.4-5.4,3.5-7.7,6.3c-1.3,1.9-2,2.9-2.3,2.9
	c-0.6,0-1-0.2-1-0.6c0-0.2,0.1-0.6,0.4-1.1c2.1-3.8,3.8-6.6,4.9-8.4c2.6-4.2,4.5-6.5,5.6-6.9c0,0,0.1,0,0.1,0c0.3,0,0.5,0.2,0.6,0.7
	c-0.1,0.5-1.2,2.1-3.5,5.1c-2.3,2.9-3.6,4.9-4,5.8c0.8-0.6,2.2-1.6,4.3-3c2.2-1.5,3.6-2.3,4.4-2.3c0.7,0,1.1,0.3,1.1,0.8
	c0,0.1,0,0.1,0,0.2c0,0-0.8,1.1-2.3,3.1c-1.5,2.1-2.3,3.6-2.3,4.6c0,0.5,0.2,0.8,0.6,0.8c1.2,0,3-1.5,5.4-4.3
	c0.2-0.2,0.3-0.3,0.4-0.3c0.1,0,0.1,0.1,0.1,0.2c0,0.4-1.1,1.6-3.3,3.6C182.2,72,181.2,72.6,180.8,72.6z M234.6,57.9
	c0,1.1-0.6,2.4-1.7,3.7c-1.1,1.4-2.8,2.4-5.1,3.3s-4.5,1.3-6.7,1.3s-3.9-0.3-5.1-0.8c-2.8,4.1-4.6,6.6-5.4,7.4
	c-2.4,2.4-5.2,3.6-8.6,3.6c-1.9,0-3.3-0.4-4.2-1.3c-0.9-0.9-1.4-2-1.4-3.4c0-1.9,0.8-3.7,2.3-5.4c1.7-1.9,3.9-2.8,6.4-2.8
	c1.1,0,2,0.2,2.7,0.7c0.7,0.5,1.1,1.2,1.1,2.2c0,0.7-0.4,1.5-1.1,2.4c-0.8,0.9-1.2,1.4-1.4,1.4c0,0-0.1,0-0.1-0.1s0-0.2,0.1-0.3
	c0.7-1,1.1-2,1.1-2.9s-0.3-1.6-0.8-2c-0.5-0.5-1.2-0.7-2-0.7c-1.9,0-3.5,0.8-4.9,2.5c-1.4,1.7-2.1,3.4-2.1,5.1c0,1.1,0.3,2,1,2.7
	s1.8,1,3.2,1c2.7,0,5.1-0.9,7-2.8c1.1-1.1,2.3-2.6,3.4-4.7l2.9-5.2c1.4-2.3,3.1-5.7,5-10.2h-0.6c-3,0-6,0.3-9,1
	c-3,0.7-5.3,1.6-6.8,2.8c-0.7,0.5-1,1-1,1.5c0,0.5,0.3,0.9,0.8,1.2c0.5,0.3,1.1,0.4,1.8,0.4c0.7,0,1.6-0.1,2.6-0.4
	c1.1-0.3,1.8-0.6,2.4-1.1c0.2-0.2,0.4-0.3,0.5-0.3c0.2,0,0.2,0.1,0.1,0.3c-0.8,0.9-2,1.6-3.6,2.1c-1,0.3-2,0.4-3,0.4
	c-1,0-1.8-0.2-2.4-0.6c-0.6-0.4-0.9-1-0.9-1.8c0-0.7,0.4-1.5,1.2-2.2c1.5-1.5,4.2-2.5,8.1-3.3c2.7-0.5,5.9-0.7,9.5-0.7h0.9
	c0.5-0.4,0.9-0.6,1.3-0.6s0.6,0.2,0.6,0.5c0,0.1,0,0.1,0,0.2c3.4,0.2,6.2,0.8,8.3,1.7C233.4,54.8,234.6,56.2,234.6,57.9L234.6,57.9z
	 M233.1,57.6c0-1.4-1.1-2.5-3.4-3.4c-2-0.8-4.4-1.2-7.4-1.4l-1.1,3.3c-0.8,2.1-2.5,5-4.9,8.7c0.2,0.1,0.6,0.2,1.1,0.4
	c0.9,0.2,1.6,0.2,2.1,0.2c1.7,0,3.6-0.3,5.8-1c2.2-0.7,4-1.7,5.5-3.1C232.3,60,233.1,58.7,233.1,57.6z M239.3,72.6
	c-1.3,0-2-0.8-2-2.3c0-0.9,0.3-1.8,0.9-2.9c0.6-1.1,1.4-2.3,2.2-3.7c-2.8,1.4-5.4,3.5-7.7,6.3c-1.3,1.9-2,2.9-2.3,2.9
	c-0.6,0-1-0.2-1-0.6c0-0.2,0.1-0.6,0.4-1.1c2.1-3.8,3.8-6.6,4.9-8.4c2.6-4.2,4.5-6.5,5.6-6.9c0,0,0.1,0,0.1,0c0.3,0,0.5,0.2,0.6,0.7
	c-0.1,0.5-1.2,2.1-3.5,5.1c-2.3,2.9-3.6,4.9-4,5.8c0.8-0.6,2.2-1.6,4.3-3c2.2-1.5,3.6-2.3,4.4-2.3c0.7,0,1.1,0.3,1.1,0.8
	c0,0.1,0,0.1,0,0.2c0,0-0.8,1.1-2.3,3.1c-1.5,2.1-2.3,3.6-2.3,4.6c0,0.5,0.2,0.8,0.6,0.8c1.2,0,3-1.5,5.4-4.3
	c0.2-0.2,0.3-0.3,0.4-0.3c0.1,0,0.1,0.1,0.1,0.2c0,0.4-1.1,1.6-3.3,3.6C240.8,72,239.8,72.6,239.3,72.6z M254.1,65.7
	c0,0.8-0.7,2.1-2.2,3.9c-1.7,2.1-3.2,3.2-4.5,3.2h-0.5c-0.6,0-1-0.3-1.4-0.9c-0.3-0.4-0.4-0.9-0.4-1.4c0-1.3,1-3.2,2.9-5.6
	c1.9-2.4,3.5-3.6,4.7-3.6c1.1,0,1.7,0.6,1.7,1.8c0,0.3-0.1,0.7-0.2,1.2c0,0.1,0.2,0.1,0.6,0.1c0.4,0,1-0.2,1.8-0.6
	c0,0.4-0.9,0.9-2.6,1.6C254.1,65.5,254.1,65.6,254.1,65.7L254.1,65.7z M251.9,64c-0.8,0-1.8,0.9-3.2,2.7c-1.4,1.8-2.1,3.1-2.1,3.9
	c0,0.8,0.3,1.3,0.8,1.3c1,0,2.2-0.9,3.6-2.6c1.5-1.7,2.2-3,2.2-3.7C252.9,65.3,252.5,64.8,251.9,64z M264.9,62.1l4.8-0.1
	c0.1,0,0.1,0.1,0.1,0.1c0,0.2-1.4,0.5-4.1,0.8c-2.8,0.4-4.2,0.6-4.5,0.6c-0.4,0.4-1.2,1.5-2.3,3.4c-1.1,1.9-1.7,3.2-1.7,4.1
	c0,0.8,0.6,1.2,1.7,1.2c0.5,0,1.2-0.2,2.1-0.5c0.9-0.3,1.5-0.6,2-0.9c1.2-0.8,2.6-1.9,4-3.4c0.3-0.3,0.5-0.5,0.6-0.5
	c0.1,0,0.1,0.1,0.1,0.2c0,0.1-0.2,0.4-0.5,0.8c-1.2,1.4-2.4,2.6-3.9,3.4c-1.7,1.1-3.4,1.6-5,1.6c-0.7,0-1.2-0.1-1.7-0.4
	c-0.4-0.3-0.6-0.9-0.6-1.8s0.4-2.2,1.2-3.7s1.4-2.8,1.8-3.5c-0.3,0.1-0.6,0.1-0.8,0.1c-0.6,0-1-0.3-1-0.8c0-0.4,0.3-0.6,0.8-0.8
	c0.1,0,0.2,0,0.3,0h1.9c0.4-0.5,0.9-1.1,1.4-1.8c0.6-0.8,1-1.2,1.3-1.2c0.2,0,0.5,0.1,0.8,0.3c0.3,0.2,0.5,0.4,0.5,0.6
	c0,0.2-0.5,1-1.6,2.2C263.2,62.1,264,62.1,264.9,62.1L264.9,62.1z M276.2,65.7c0,0.8-0.7,2.1-2.2,3.9c-1.7,2.1-3.2,3.2-4.5,3.2H269
	c-0.6,0-1-0.3-1.4-0.9c-0.3-0.4-0.4-0.9-0.4-1.4c0-1.3,1-3.2,2.9-5.6c1.9-2.4,3.5-3.6,4.7-3.6c1.1,0,1.7,0.6,1.7,1.8
	c0,0.3-0.1,0.7-0.2,1.2c0,0.1,0.2,0.1,0.6,0.1c0.4,0,1-0.2,1.8-0.6c0,0.4-0.9,0.9-2.6,1.6C276.2,65.5,276.2,65.6,276.2,65.7
	L276.2,65.7z M274.1,64c-0.8,0-1.8,0.9-3.2,2.7c-1.4,1.8-2.1,3.1-2.1,3.9c0,0.8,0.3,1.3,0.8,1.3c1,0,2.2-0.9,3.6-2.6
	c1.5-1.7,2.2-3,2.2-3.7C275.1,65.3,274.6,64.8,274.1,64z M289.5,62.6l0.5-0.1c0.3,0,0.5,0.1,0.7,0.3c0.2,0.2,0.2,0.3,0.2,0.4
	c0,0.1,0,0.2,0,0.3c0,0.1-0.3,0.7-1,1.7c-0.8,1.4-1.4,2.5-1.9,3.4c-1.8,3.3-3.2,5.6-4.1,6.9c-2,2.7-4,4.1-5.8,4.1
	c-0.6,0-1.2-0.3-1.7-0.8c-0.5-0.5-0.7-1.1-0.7-1.8c0.1-0.3,0.2-0.4,0.3-0.4c0.1,0,0.1,0.1,0.2,0.2c0.1,0.6,0.3,1,0.6,1.3
	c0.3,0.3,0.6,0.5,0.9,0.5c1.3,0,2.6-0.8,4.1-2.5c1-1.1,2-2.7,3.2-4.9l1.7-3.3l-2.5,2.5c-1.6,1.5-2.7,2.3-3.3,2.3s-1.1-0.2-1.7-0.6
	c-0.6-0.4-0.9-1-0.9-1.8c0-1.6,1.1-3.5,3.4-5.8c2.3-2.2,4.3-3.4,6.2-3.4c0.8,0,1.2,0.2,1.5,0.7c0.1,0.2,0.1,0.3,0.2,0.4
	C289.4,62.6,289.5,62.6,289.5,62.6L289.5,62.6z M279.5,70.8c0,0.8,0.3,1.2,0.8,1.2c1.3,0,3-1.4,5.2-4.2l3.5-4.9
	c-0.1-0.3-0.4-0.5-0.8-0.5c-1.4,0-3.2,1.1-5.4,3.2C280.7,67.8,279.5,69.5,279.5,70.8L279.5,70.8z M298.9,72.9
	c-1.7,0-2.5-0.9-2.5-2.8c0-0.9,0.2-1.9,0.7-3.1s1-2,1.6-2.8c-0.1,0-0.3,0-0.4,0c-0.5,0-1-0.4-1.3-1.1l-2.5,3.2
	c-1.4,1.7-2.2,2.6-2.4,2.6c-0.1,0-0.2,0-0.2-0.1c0-0.2,0.2-0.5,0.6-1c1.9-2.2,3.3-4.1,4.1-5.7c0.5-1.9,1.2-2.9,1.9-2.9
	c0.5,0,0.8,0.2,0.8,0.7c0,0.4-0.3,1-0.8,1.7l-0.8,1.1c0,0.5,0.3,0.7,1,0.7c0.4,0,0.8-0.1,1.3-0.4l0.9-0.5c0,0,0.2,0,0.3,0
	c0.2,0,0.4,0.1,0.6,0.3c0.2,0.2,0.3,0.4,0.2,0.6l-2.3,2.9c-1.4,1.8-2.1,3.3-2.1,4.3s0.5,1.6,1.5,1.6c1,0,2.3-0.5,3.8-1.6
	c0.9-0.6,1.7-1.4,2.4-2.2c0.7-0.8,1.1-1.2,1.1-1.2c0.2,0,0.2,0.1,0.2,0.2s-0.1,0.4-0.3,0.6l-1.1,1.2c-0.6,0.6-1.3,1.2-2,1.8
	C301.5,72.3,300,72.9,298.9,72.9L298.9,72.9z M317.7,62.8l0.5-0.1c0.2,0,0.5,0.1,0.7,0.3c0.2,0.2,0.3,0.4,0.3,0.5
	c0,0.1-0.7,1.2-2.1,3.2c-1.4,2-2.1,3.4-2.1,4.2c0,0.1,0,0.1,0,0.2c0.1,0.5,0.4,0.8,0.7,0.8c1.2,0,3.3-1.9,6.3-5.7
	c0.1-0.1,0.1-0.1,0.2-0.1c0.1,0,0.1,0.1,0.1,0.2c0,0.2-0.1,0.4-0.3,0.6c-2.8,3.8-5,5.7-6.5,5.7c-0.2,0-0.4,0-0.6-0.1
	c-1-0.4-1.5-1.1-1.5-2.2c0-0.4,0-0.8,0.1-1.1l-2.1,2c-1.3,1.2-2.3,1.7-2.8,1.7s-1.1-0.2-1.7-0.6c-0.6-0.4-0.9-1-0.9-1.8
	c0-1.6,1.1-3.5,3.4-5.8c2.3-2.2,4.3-3.4,6.2-3.4c0.7,0,1.2,0.3,1.5,0.8c0.1,0.2,0.1,0.3,0.2,0.4C317.7,62.8,317.7,62.8,317.7,62.8
	L317.7,62.8z M307.8,71c0,0.8,0.3,1.2,0.8,1.2c1.3,0,3-1.4,5.2-4.2l3.5-4.9c-0.2-0.3-0.5-0.5-0.9-0.5c-1.4,0-3.1,1-5.4,3.1
	C308.9,67.9,307.8,69.6,307.8,71L307.8,71z M334.4,65.3c0,1.8-1,3.5-3.1,5.1c-2,1.6-3.8,2.4-5.3,2.4c-1,0-1.7-0.1-2.2-0.2
	c-0.5-0.1-1-0.5-1.5-1.2c-0.4,0.3-0.9,1.1-1.5,2.4c-0.6,1.3-1,2.4-1,3.3c0,0.4,0.2,1,0.6,1.7c0,0.1,0,0.2-0.1,0.3
	c-0.1,0.1-0.2,0.1-0.2,0.1c-0.1,0-0.1,0-0.1,0c-0.9-0.5-1.4-1.5-1.4-3c0-1.5,1.2-4,3.7-7.6c2.4-3.6,4.1-5.6,5.1-5.9
	c0.2,0,0.4-0.1,0.4-0.1c0.4,0,0.6,0.4,0.6,1.2c0.2-0.2,0.7-0.4,1.4-0.6c0.8-0.2,1.4-0.3,1.8-0.3c0.8,0,1.5,0.2,2.1,0.7
	S334.4,64.5,334.4,65.3L334.4,65.3z M332.7,64.9c0-0.8-0.5-1.3-1.5-1.3c-1,0-1.9,0.2-2.7,0.6c-0.4,0.2-1.4,1.2-3.1,2.9
	c-1.7,1.8-2.6,2.9-2.6,3.4c0,0.4,0.3,0.7,0.9,0.9s1.2,0.3,1.8,0.3c1.2,0,2.7-0.7,4.5-2.1S332.7,66.8,332.7,64.9L332.7,64.9z
	 M343.7,72.6c-1.3,0-2-0.8-2-2.3c0-0.9,0.3-1.8,0.9-2.9s1.4-2.3,2.2-3.7c-2.8,1.4-5.4,3.5-7.7,6.3c-1.3,1.9-2,2.9-2.3,2.9
	c-0.6,0-1-0.2-1-0.6c0-0.2,0.1-0.6,0.4-1.1c2.1-3.8,3.8-6.6,4.9-8.4c2.6-4.2,4.5-6.5,5.6-6.9c0,0,0.1,0,0.1,0c0.3,0,0.5,0.2,0.6,0.7
	c-0.1,0.5-1.2,2.1-3.5,5.1c-2.3,2.9-3.6,4.9-4,5.8c0.8-0.6,2.2-1.6,4.3-3c2.2-1.5,3.6-2.3,4.4-2.3c0.7,0,1.1,0.3,1.1,0.8
	c0,0.1,0,0.1,0,0.2c0,0-0.8,1.1-2.3,3.1c-1.5,2.1-2.3,3.6-2.3,4.6c0,0.5,0.2,0.8,0.6,0.8c1.2,0,3-1.5,5.4-4.3
	c0.2-0.2,0.3-0.3,0.4-0.3c0.1,0,0.1,0.1,0.1,0.2c0,0.4-1.1,1.6-3.3,3.6C345.1,72,344.2,72.6,343.7,72.6z M347.9,76.6
	c1.1,1.3,2,2,2.8,2c1.3,0,2.6-1,4.1-3c1.1-1.5,2.1-3.4,3.1-5.6l1.3-3.1l-4.9,3.8c-1.5,1.2-2.7,1.8-3.6,1.8c-0.5,0-0.9-0.2-1.2-0.5
	c-0.3-0.3-0.4-0.7-0.4-1.1c0-1,0.8-2.5,2.5-4.7s2.8-3.3,3.6-3.3c0.8,0,1.1,0.3,1.1,0.8c0,0.2-1,1.3-2.9,3.4c-2,2.1-2.9,3.5-2.9,4.2
	c0,0.3,0.2,0.4,0.6,0.4c0.7,0,2.1-0.8,4.3-2.5c2.1-1.7,3.7-3,4.8-4.1c0.2-0.3,0.6-0.7,1-1.3c0.4-0.5,0.9-0.7,1.4-0.7
	c0.5,0,0.8,0.2,0.8,0.7c0,0.1-0.5,0.9-1.5,2.4c-1,1.5-1.5,2.3-1.6,2.4c-0.7,1.3-1.7,3.3-3.2,5.8c-2.1,3.5-4.3,5.2-6.4,5.2
	c-0.7,0-1.3-0.3-1.9-0.9C348.2,78.1,347.9,77.4,347.9,76.6L347.9,76.6z M0,10"/>
</svg>
