<?xml version="1.0" encoding="utf-8"?>
<!-- Generator: Adobe Illustrator 25.2.1, SVG Export Plug-In . SVG Version: 6.00 Build 0)  -->
<svg version="1.1" id="Layer_1" xmlns="http://www.w3.org/2000/svg" xmlns:xlink="http://www.w3.org/1999/xlink" x="0px" y="0px"
	 viewBox="0 0 600 90" style="enable-background:new 0 0 600 90;" xml:space="preserve">
<style type="text/css">
	.st0{fill:#FFFFFF;}
</style>
<path class="st0" d="M55,27.3l5.2-0.2c1.3,0,2,0.2,2,0.4c0,0.5-2.7,0.9-7.9,1.3c-3.4,6.5-5,10.9-5,13.3c0,1.6,0.5,2.5,1.6,2.5
	c0.4,0,0.9-0.2,1.4-0.7c0.5-0.5,0.9-0.7,1.1-0.7s0.2,0,0.2,0.4c-0.2,0.7-0.7,1.3-1.6,1.6s-1.6,0.7-2.3,0.7c-0.7,0-1.1,0-1.4-0.2
	c-0.9-0.4-1.3-1.4-1.3-3.1c0-3.6,1.4-8.3,4.1-13.8l-6.5,0.2c-4.8,4.7-9.7,8.8-14.5,12.4c-7.2,5.2-12.9,7.9-17,7.9
	c-0.2,0-0.5,0-0.7,0C6.7,48.5,4,45.6,4,40.4c0-3.1,0.9-6.3,2.9-9.9c2.5-4.7,6.1-8.4,10.6-11.8s8.4-4.8,12-4.8s5.4,1.3,5.4,3.9
	c0,1.8-0.5,3.8-1.6,5.9c-1.1,2.2-2.2,3.6-3.2,4.1c-0.2,0-0.2,0-0.4,0s-0.2,0-0.2-0.2l1.8-2.9c1.3-2,1.8-3.6,1.8-5
	c0-1.4-0.4-2.5-0.9-3.4c-0.5-0.9-1.6-1.3-3.1-1.3c-2.9,0-6.1,1.6-10,4.7s-6.8,7-8.8,11.5s-3.1,8.1-3.1,10.6c0,3.8,2,5.7,5.9,5.7
	c3.8,0,8.8-2.3,15.3-7.2c2.9-2.2,7.4-6.1,13.8-12c-1.3,0-2.3,0.2-3.6,0.4c-2.3,0.4-3.4,0.4-3.2-0.2c0.2-1.3,0.9-2,2-2
	c2.3,0.4,4.3,0.4,5.9,0.4c3.1-2.9,7.7-7.5,13.8-14c4.1-4.3,6.6-6.5,7.5-6.5c0.4,0,0.5,0.4,0.5,0.9s0,1.8-0.4,3.1
	c-0.4,1.3-0.7,2.2-1.1,2.3c-0.9,0.5-1.6,1.4-2.3,2.3c-0.7,1.1-1.8,2.9-3.1,5.6C57.1,23.4,55.9,25.7,55,27.3z M59.3,14.2L45.4,27.1
	h3.2c0.7,0,1.6,0,2.9,0C52.4,25.2,55.1,20.9,59.3,14.2z M87.1,42c-2.5,0-3.6-1.1-3.6-3.4c0-1.3,0.5-3.1,1.8-5.4
	c1.1-2.2,2.3-4.1,3.6-5.7c-2.2,1.1-4.8,3.1-7.7,5.9c-2.9,2.9-5,5.7-6.1,8.8c-0.2,0.4-0.5,0.4-0.9,0.4c-0.9,0-1.3-0.5-1.3-1.4
	c0.4-2,1.1-4.3,2.3-6.8c0.4-0.9,1.6-3.2,3.6-7.2c-2.9,1.8-5.2,3.8-7.2,5.9s-3.8,4.1-5.4,6.3c-1.6,2.2-2.7,3.2-2.9,3.2
	c-0.5,0-0.9-0.2-1.3-0.7c-0.4-0.4-0.5-0.9-0.5-1.3c0-0.7,0.9-3.1,2.9-7.2l-3.2,3.4c-0.7,0.7-1.3,1.3-1.4,1.3s-0.4-0.2-0.4-0.4
	c0-0.2,0.2-0.5,0.4-0.7c1.3-1.3,2.5-2.7,3.6-3.9c1.1-1.3,2.7-3.8,5.2-7.2c0.4-0.5,0.9-0.9,1.6-0.9c0.7,0,1.1,0.4,1.1,1.1
	c0,0.2-0.9,2-2.9,5.2s-3.1,5.2-3.2,6.1c1.4-1.6,3.6-3.8,6.6-6.5c4.5-4.1,7.4-6.1,8.8-6.1c0.4,0,0.9,0.2,1.3,0.4
	c0.4,0.2,0.5,0.5,0.5,0.9s-0.7,1.6-2.2,4.1s-2.2,3.9-2.3,4.5c3.9-3.4,5.9-5,5.9-5c3.4-2.7,5.7-3.9,7.2-3.9c0.4,0,0.9,0.2,1.3,0.4
	c0.4,0.2,0.5,0.5,0.5,0.9c0,0-1.3,1.6-3.6,4.5c-2.3,3.1-3.6,5.4-3.9,7.4c0,0.7,0,1.1,0.4,1.4c0.4,0.4,0.9,0.5,1.8,0.5
	c0.9,0,2.2-0.5,3.8-1.8c1.6-1.1,3.2-2.7,5-4.7c0.7-0.7,1.1-1.1,1.3-1.1c0.2,0,0.4,0,0.4,0.4c0,0.2-0.2,0.5-0.5,0.9
	c-1.8,2.2-3.6,3.9-5.7,5.4C89.8,41.3,88.2,42,87.1,42z M115.6,26.6l0.7-0.2c0.4,0,0.7,0.2,1.1,0.5s0.5,0.5,0.5,0.7
	c0,0.2-1.1,2-3.4,5.2c-2.3,3.2-3.4,5.6-3.4,6.8c0,0.2,0,0.2,0,0.4c0.2,0.9,0.5,1.3,1.3,1.3c1.8,0,5.2-3.1,10.2-9.3
	c0.2-0.2,0.2-0.2,0.4-0.2s0.2,0.2,0.2,0.4c0,0.4-0.2,0.5-0.5,1.1c-4.7,6.1-8.1,9.2-10.4,9.2c-0.4,0-0.5,0-0.9-0.2
	c-1.6-0.5-2.3-1.8-2.3-3.6c0-0.5,0-1.3,0.2-1.8l-3.4,3.2c-2.2,1.8-3.6,2.9-4.7,2.9c-1.1,0-1.8-0.4-2.7-0.9c-0.9-0.7-1.4-1.6-1.4-2.9
	c0-2.7,1.8-5.7,5.6-9.3c3.6-3.6,7-5.4,10-5.4c1.3,0,2,0.4,2.3,1.3c0.2,0.4,0.2,0.5,0.4,0.7C115.4,26.6,115.4,26.6,115.6,26.6z
	 M99.5,39.9c0,1.3,0.4,2,1.4,2c2.2,0,4.8-2.3,8.4-6.8l5.7-7.9c-0.4-0.5-0.7-0.7-1.4-0.7c-2.2,0-5,1.6-8.8,5
	C101.1,34.9,99.5,37.7,99.5,39.9z M130.9,25.7c0.9,0,1.4,0.4,1.4,1.1c0,0.2,0,0.4-0.2,0.7c-3.2,4.5-5.2,7.9-5.7,10.2
	c8.4-8.4,13.5-12.6,15.3-12.6c0.2,0,0.4,0,0.5,0c1.1,0,1.4,0.4,1.4,1.4c0,0.2,0,0.4-0.2,0.5c0,0.2-0.7,1.1-2.2,2.9
	c-1.6,1.8-2.9,3.6-3.9,5.4s-1.6,3.2-1.6,4.3s0.2,1.8,0.7,1.8c1.6,0,4.3-2.2,8.3-6.5c0,0,0.2-0.2,0.4-0.5c0.5-0.7,0.9-0.9,0.9-0.9
	s0.2,0.2,0.2,0.5c0,0.4-0.2,0.9-0.7,1.4c-4.5,5-7.5,7.5-9.5,7.5c-1.8,0-2.7-0.9-2.7-2.9c0-2,0.7-4.1,2.2-6.6l3.4-5.6
	c-2.5,1.8-4.7,3.8-6.5,5.9c-2,2.2-3.6,4.1-5.2,6.3c-1.6,2-2.5,3.1-2.7,3.1c-0.5,0-0.9-0.2-1.3-0.7c-0.4-0.5-0.5-1.1-0.5-1.6
	c0-0.7,0.2-1.6,0.7-2.7c0.5-1.1,1.1-2.5,1.8-3.9l-3.2,3.4c-0.7,0.7-1.3,1.3-1.4,1.3c-0.2,0-0.4-0.2-0.4-0.4c0-0.2,0.2-0.5,0.4-0.7
	c1.3-1.3,2.5-2.7,3.4-3.8c0.9-1.3,2.9-3.6,5.7-7C130.1,25.9,130.5,25.7,130.9,25.7L130.9,25.7z M201.9,19.8
	c-1.3,0.5-2.5,0.9-3.4,0.9s-1.4-0.2-1.4-0.5c0-0.2,0.5-0.4,1.6-0.4s1.8-0.2,2.3-0.4c1.4-0.7,2-1.8,2-3.2c0-0.7-0.2-1.4-0.5-2.3
	c-1.1-2-3.9-3.1-8.4-3.1c-2.5,0-5,0.4-7.7,1.1c-2.5,0.7-4.7,2-6.5,3.6c-1.8,1.6-2.5,3.1-2.5,4.5c0,2.2,2,3.6,6.1,4.5l6.3,1.3
	c2.5,0.5,4.5,1.1,5.7,2c1.6,1.1,2.5,2.5,2.5,4.3c0,0.7-0.2,1.6-0.4,2.3c-1.1,3.9-4.1,6.8-8.8,9c-3.9,1.8-8.6,2.7-14.2,2.7
	c-1.6,0-2.9,0-3.9-0.2c1.1,0.7,2.7,1.3,4.5,1.6c0.2,0,0.2,0.2,0.2,0.2c0,0.4-0.4,0.5-1.1,0.5c-1.4,0-3.2-0.9-5.6-2.7
	c-3.1-0.5-5.2-1.3-6.6-2.5c-0.9-0.7-1.8-1.8-2.5-3.4s-1.3-2.9-1.3-4.1c0-1.3,0.2-2.2,0.7-3.1c1.1-2,2.5-2.9,4.1-2.9
	c1.3,0,2,1.1,2.2,3.2c0.5,4.1,0.9,6.5,1.1,7c0.5,1.8,1.4,3.2,2.7,4.5c1.4,0.4,3.2,0.5,4.8,0.5c3.9,0,7.7-0.7,11.5-2.3
	s6.5-3.8,8.1-6.6c0.7-1.1,1.1-2.2,1.1-3.1c0-1.6-1.4-3.1-4.5-3.9l-9.5-2.2c-2-0.5-3.4-1.3-4.7-2.3c-1.1-1.1-1.8-2.3-1.8-3.8
	c0-2.2,1.4-4.3,3.9-6.5c2-1.6,4.5-2.9,7.5-3.8s5.9-1.4,8.8-1.4c2.9,0,5.2,0.4,7,1.3c2.3,1.1,3.6,2.7,3.6,4.8
	C205.1,17.3,204.1,18.9,201.9,19.8z M167.3,43.6c-2.2-2.3-3.4-5.4-3.9-9.3c-0.4-2.3-0.5-3.4-0.9-3.4s-0.5,0-0.7,0.2
	c-0.2,0.2-0.5,0.5-0.7,1.1s-0.4,1.3-0.4,2.2c0,2.7,0.9,5.2,2.9,7.2C164.2,42.4,165.5,43.1,167.3,43.6z M215.2,21.2
	c0.5,0.4,0.7,0.7,0.7,1.3s-0.2,0.9-0.7,1.3c-0.5,0.4-0.9,0.5-1.4,0.5s-1.1-0.2-1.4-0.5c-0.4-0.4-0.7-0.9-0.7-1.4
	c0-1.1,0.7-1.4,2-1.4C214.1,20.9,214.7,21,215.2,21.2z M203.9,43.3c-1.8,0-2.7-1.3-2.7-3.6c0-2,1.1-4.7,3.2-8.1s3.8-5.2,5.2-5.2
	c0.4,0,0.7,0.2,1.3,0.4c0.4,0.4,0.7,0.5,0.7,0.9c-0.2,0.2-0.4,0.5-0.7,0.9c-0.2,0.4-0.5,0.7-0.7,1.1c-0.4,0.4-0.7,0.9-1.3,1.6
	s-1.1,1.3-1.4,2c-2.7,3.4-3.9,5.9-3.9,7.2c0,1.3,0.4,2,1.4,2c0.7,0,1.8-0.4,3.1-1.3c3.1-1.8,5.4-3.9,7.2-6.1
	c0.7-0.9,1.1-1.3,1.3-1.3s0.4,0.2,0.4,0.4s-0.4,0.9-1.3,1.8c-0.9,0.9-1.4,1.6-2,2c-0.5,0.5-0.9,0.9-1.1,1.1
	c-0.2,0.2-0.5,0.5-1.1,0.9c-0.5,0.4-0.9,0.7-1.1,0.9c-0.2,0.2-0.5,0.4-1.1,0.9c-0.5,0.5-0.9,0.5-1.3,0.7s-0.7,0.4-1.3,0.5
	C205.9,43.1,205,43.3,203.9,43.3L203.9,43.3z M225.2,25.7c0.9,0,1.4,0.4,1.4,1.1c0,0.2,0,0.4-0.2,0.7c-3.2,4.5-5.2,7.9-5.7,10.2
	c8.4-8.4,13.5-12.6,15.3-12.6c0.2,0,0.4,0,0.5,0c1.1,0,1.4,0.4,1.4,1.4c0,0.2,0,0.4-0.2,0.5c0,0.2-0.7,1.1-2.2,2.9
	c-1.6,1.8-2.9,3.6-3.9,5.4c-1.1,1.8-1.6,3.2-1.6,4.3s0.2,1.8,0.7,1.8c1.6,0,4.3-2.2,8.3-6.5c0,0,0.2-0.2,0.4-0.5
	c0.5-0.7,0.9-0.9,0.9-0.9s0.2,0.2,0.2,0.5c0,0.4-0.2,0.9-0.7,1.4c-4.5,5-7.5,7.5-9.5,7.5c-1.8,0-2.7-0.9-2.7-2.9
	c0-2,0.7-4.1,2.2-6.6l3.4-5.6c-2.5,1.8-4.7,3.8-6.5,5.9c-2,2.2-3.6,4.1-5.2,6.3c-1.6,2-2.5,3.1-2.7,3.1c-0.5,0-0.9-0.2-1.3-0.7
	c-0.4-0.4-0.5-1.1-0.5-1.6c0-0.7,0.2-1.6,0.7-2.7c0.5-1.1,1.1-2.5,1.8-3.9l-3.2,3.4c-0.7,0.7-1.3,1.3-1.4,1.3
	c-0.2,0-0.4-0.2-0.4-0.4c0-0.2,0.2-0.5,0.4-0.7c1.3-1.3,2.5-2.7,3.4-3.8c0.9-1.3,2.9-3.6,5.7-7C224.5,25.9,224.9,25.7,225.2,25.7
	L225.2,25.7z M258.6,26.2l0.7-0.2c0.5,0,0.9,0.2,1.1,0.4s0.4,0.5,0.4,0.7c0,0.2,0,0.4,0,0.5c0,0.2-0.5,1.1-1.6,2.7
	c-1.3,2.2-2.3,4.1-3.1,5.6c-2.9,5.4-5.2,9.2-6.6,11.1c-3.2,4.3-6.5,6.6-9.3,6.6c-1.1,0-2-0.4-2.7-1.3s-1.3-1.8-1.3-2.9
	c0.2-0.4,0.2-0.7,0.5-0.7c0.2,0,0.2,0.2,0.2,0.4c0.2,0.9,0.5,1.6,1.1,2.2c0.5,0.5,1.1,0.7,1.4,0.7c2,0,4.3-1.4,6.6-3.9
	c1.6-1.8,3.2-4.5,5.2-7.9l2.7-5.4L250,39c-2.5,2.5-4.3,3.8-5.4,3.8c-0.9,0-1.8-0.4-2.7-0.9c-0.9-0.7-1.4-1.6-1.4-2.9
	c0-2.7,1.8-5.7,5.6-9.3c3.6-3.6,7-5.4,10-5.4c1.3,0,2,0.4,2.3,1.3C258.6,25.9,258.6,26.1,258.6,26.2
	C258.4,26.2,258.4,26.2,258.6,26.2L258.6,26.2z M242.5,39.5c0,1.3,0.4,2,1.4,2c2.2,0,4.8-2.3,8.4-6.8l5.7-7.9
	c-0.2-0.5-0.7-0.7-1.4-0.7c-2.2,0-5.2,1.8-8.8,5.2S242.5,37.4,242.5,39.5z M275.7,42.6c-2.2,0-3.2-1.3-3.2-3.8
	c0-1.4,0.5-2.9,1.4-4.7c1.1-1.8,2.2-3.8,3.6-5.9c-4.7,2.3-8.8,5.7-12.6,10.2c-2.2,3.1-3.2,4.7-3.6,4.7c-1.1,0-1.6-0.4-1.6-0.9
	c0-0.4,0.2-0.9,0.7-1.8c3.4-6.3,6.1-10.8,7.9-13.6c4.3-6.8,7.4-10.6,9-11.1h0.2c0.5,0,0.7,0.4,0.9,1.1c-0.2,0.7-2,3.4-5.6,8.3
	c-3.8,4.8-5.9,7.9-6.5,9.3c1.3-0.9,3.6-2.7,7-4.8c3.6-2.5,5.9-3.8,7-3.8c1.1,0,1.8,0.4,1.8,1.4c0,0.2,0,0.2,0,0.4c0,0-1.3,1.8-3.8,5
	c-2.5,3.4-3.8,5.7-3.8,7.4c0,0.9,0.4,1.3,0.9,1.3c2,0,4.8-2.3,8.8-7c0.4-0.4,0.5-0.5,0.7-0.5s0.2,0.2,0.2,0.4c0,0.7-1.8,2.7-5.4,5.7
	C278,41.5,276.4,42.6,275.7,42.6L275.7,42.6z M362.9,18.7c0,1.8-0.9,3.8-2.7,6.1c-1.8,2.2-4.7,3.9-8.3,5.4c-3.8,1.4-7.4,2-10.8,2
	c-3.6,0-6.3-0.4-8.3-1.4c-4.5,6.6-7.5,10.6-8.8,12c-3.9,3.9-8.4,5.7-13.8,5.7c-3.1,0-5.4-0.7-6.8-2.2c-1.4-1.4-2.3-3.2-2.3-5.6
	c0-3.1,1.3-6.1,3.8-8.8c2.7-3.1,6.3-4.5,10.4-4.5c1.8,0,3.2,0.4,4.3,1.3c1.3,0.7,1.8,2,1.8,3.6c0,1.1-0.5,2.3-1.8,3.9
	c-1.3,1.4-2,2.3-2.3,2.3c0,0-0.2,0-0.2-0.2c0-0.2,0-0.4,0.2-0.4c1.1-1.6,1.8-3.2,1.8-4.7s-0.4-2.5-1.3-3.2c-0.9-0.7-2-1.1-3.2-1.1
	c-3.1,0-5.7,1.4-8.1,4.1c-2.3,2.7-3.4,5.6-3.4,8.3c0,1.8,0.5,3.2,1.6,4.3s2.9,1.6,5.2,1.6c4.5,0,8.3-1.4,11.3-4.5
	c1.8-1.8,3.6-4.3,5.6-7.5l4.7-8.4c2.3-3.8,5-9.2,8.1-16.5h-0.9c-4.8,0-9.7,0.5-14.5,1.6s-8.6,2.5-11.1,4.5c-1.1,0.9-1.6,1.6-1.6,2.3
	s0.4,1.4,1.3,2c0.9,0.5,1.8,0.7,3.1,0.7c1.1,0,2.5-0.2,4.3-0.7c1.8-0.5,3.1-1.1,3.8-1.8c0.4-0.4,0.5-0.4,0.7-0.4
	c0.4,0,0.4,0.2,0.2,0.4c-1.3,1.4-3.2,2.7-5.9,3.4c-1.6,0.5-3.2,0.7-4.8,0.7s-2.9-0.4-3.9-1.1s-1.4-1.6-1.4-2.9s0.7-2.3,2-3.6
	c2.5-2.3,6.8-4.1,13.1-5.2c4.5-0.7,9.5-1.3,15.4-1.3h1.4c0.7-0.7,1.4-1.1,2.2-1.1s0.9,0.2,0.9,0.7c0,0.2,0,0.2,0,0.4
	c5.6,0.4,10,1.3,13.5,2.9C360.9,13.7,362.9,15.8,362.9,18.7L362.9,18.7z M360.3,18.2c0-2.3-1.8-4.1-5.6-5.6c-3.2-1.3-7.2-2-12-2.3
	l-1.8,5.4c-1.4,3.4-3.9,8.1-7.9,14.2c0.4,0.2,0.9,0.4,1.8,0.5c1.4,0.2,2.5,0.4,3.4,0.4c2.7,0,5.9-0.5,9.3-1.6c3.6-1.1,6.5-2.7,9-5
	C359.1,21.9,360.3,20,360.3,18.2L360.3,18.2z M370.6,42.6c-2.2,0-3.2-1.3-3.2-3.8c0-1.4,0.5-2.9,1.4-4.7c0.9-1.8,2.2-3.8,3.6-5.9
	c-4.7,2.3-8.8,5.7-12.6,10.2c-2.2,3.1-3.2,4.7-3.6,4.7c-1.1,0-1.6-0.4-1.6-0.9c0-0.4,0.2-0.9,0.7-1.8c3.4-6.3,6.1-10.8,7.9-13.6
	c4.3-6.8,7.4-10.6,9-11.1h0.2c0.5,0,0.7,0.4,0.9,1.1c-0.2,0.7-2,3.4-5.6,8.3c-3.8,4.8-5.9,7.9-6.5,9.3c1.3-0.9,3.6-2.7,7-4.8
	c3.6-2.5,5.9-3.8,7-3.8s1.8,0.4,1.8,1.4c0,0.2,0,0.2,0,0.4c0,0-1.3,1.8-3.8,5c-2.5,3.4-3.8,5.7-3.8,7.4c0,0.9,0.4,1.3,0.9,1.3
	c2,0,4.8-2.3,8.8-7c0.4-0.4,0.5-0.5,0.7-0.5s0.2,0.2,0.2,0.4c0,0.7-1.8,2.7-5.4,5.7C372.9,41.5,371.3,42.6,370.6,42.6L370.6,42.6z
	 M394.4,31.3c0,1.3-1.3,3.4-3.6,6.3c-2.9,3.4-5.2,5.2-7.4,5.2h-0.9c-0.9,0-1.6-0.5-2.2-1.4c-0.4-0.7-0.7-1.4-0.7-2.3
	c0-2.2,1.6-5.2,4.7-9.2c3.1-3.9,5.7-5.9,7.5-5.9s2.7,0.9,2.7,2.9c0,0.5-0.2,1.1-0.2,2c0,0.2,0.4,0.2,1.1,0.2s1.6-0.4,2.9-1.1
	c0,0.5-1.4,1.4-4.3,2.7C394.4,30.9,394.4,31.1,394.4,31.3L394.4,31.3z M391,28.6c-1.3,0-2.9,1.4-5.2,4.3s-3.4,5-3.4,6.3
	c0,1.3,0.4,2,1.3,2c1.6,0,3.6-1.4,5.9-4.1c2.3-2.9,3.6-4.8,3.6-6.1C392.5,30.7,391.7,29.8,391,28.6z M412,25.3l7.7-0.2
	c0.2,0,0.2,0.2,0.2,0.2c0,0.4-2.2,0.7-6.6,1.4c-4.5,0.7-6.8,0.9-7.2,1.1c-0.7,0.5-2,2.5-3.8,5.4c-1.8,3.1-2.7,5.2-2.7,6.6
	c0,1.3,0.9,2,2.7,2c0.9,0,2-0.2,3.4-0.9c1.4-0.5,2.5-1.1,3.2-1.4c2-1.3,4.1-3.1,6.5-5.6c0.5-0.5,0.9-0.7,1.1-0.7s0.2,0.2,0.2,0.4
	s-0.2,0.7-0.7,1.3c-1.8,2.3-3.9,4.1-6.3,5.6c-2.9,1.8-5.4,2.5-8.1,2.5c-1.1,0-2-0.2-2.7-0.7s-1.1-1.4-1.1-2.9c0-1.4,0.7-3.4,2-6.1
	s2.3-4.5,2.9-5.7c-0.5,0.2-0.9,0.2-1.3,0.2c-1.1,0-1.6-0.4-1.6-1.3c0-0.5,0.4-1.1,1.3-1.3c0.2,0,0.4,0,0.5,0h3.1
	c0.7-0.9,1.4-1.8,2.2-2.9c1.1-1.3,1.6-2,2-2c0.4,0,0.7,0.2,1.4,0.4c0.5,0.4,0.7,0.7,0.7,1.1c0,0.4-0.9,1.6-2.5,3.6
	C409.2,25.3,410.4,25.3,412,25.3z M430.3,31.3c0,1.3-1.3,3.4-3.6,6.3c-2.9,3.4-5.2,5.2-7.4,5.2h-0.9c-0.9,0-1.6-0.5-2.2-1.4
	c-0.4-0.7-0.7-1.4-0.7-2.3c0-2.2,1.6-5.2,4.7-9.2s5.7-5.9,7.5-5.9s2.7,0.9,2.7,2.9c0,0.5,0,1.1-0.2,2c0,0.2,0.4,0.2,1.1,0.2
	c0.7,0,1.6-0.4,2.9-1.1c0,0.5-1.4,1.4-4.3,2.7C430.3,30.9,430.3,31.1,430.3,31.3L430.3,31.3z M426.7,28.6c-1.3,0-2.9,1.4-5.2,4.3
	s-3.4,5-3.4,6.3c0,1.3,0.4,2,1.3,2c1.6,0,3.4-1.4,5.9-4.1c2.3-2.9,3.6-4.8,3.6-6.1C428.4,30.7,427.6,29.8,426.7,28.6z M451.7,26.2
	l0.7-0.2c0.5,0,0.9,0.2,1.1,0.4c0.4,0.4,0.4,0.5,0.4,0.7c0,0.2,0,0.4,0,0.5c0,0.2-0.5,1.1-1.6,2.7c-1.3,2.2-2.3,4.1-3.1,5.6
	c-2.9,5.4-5.2,9.2-6.6,11.1c-3.2,4.3-6.5,6.6-9.3,6.6c-1.1,0-2-0.4-2.7-1.3s-1.3-1.8-1.3-2.9c0.2-0.4,0.2-0.7,0.5-0.7
	c0.2,0,0.2,0.2,0.2,0.4c0.2,0.9,0.5,1.6,1.1,2.2c0.5,0.5,1.1,0.7,1.4,0.7c2,0,4.3-1.4,6.6-3.9c1.6-1.8,3.2-4.5,5.2-7.9l2.7-5.4
	l-3.9,4.1c-2.5,2.5-4.3,3.8-5.4,3.8c-0.9,0-1.8-0.4-2.7-0.9c-0.9-0.7-1.4-1.6-1.4-2.9c0-2.7,1.8-5.7,5.6-9.3c3.6-3.6,7-5.4,10-5.4
	c1.3,0,2,0.4,2.3,1.3c0.2,0.4,0.2,0.5,0.4,0.7C451.7,26.2,451.7,26.2,451.7,26.2L451.7,26.2z M435.7,39.5c0,1.3,0.4,2,1.3,2
	c2.2,0,4.8-2.3,8.4-6.8l5.7-7.9c-0.2-0.5-0.7-0.7-1.3-0.7c-2.2,0-5.2,1.8-8.8,5.2S435.7,37.4,435.7,39.5L435.7,39.5z M467.1,43.1
	c-2.7,0-3.9-1.4-3.9-4.5c0-1.4,0.4-3.2,1.3-5c0.7-1.8,1.6-3.2,2.5-4.5c-0.2,0-0.4,0-0.7,0c-0.9,0-1.6-0.5-2.2-1.8l-3.9,5.2
	c-2.2,2.7-3.6,4.1-3.9,4.1c-0.2,0-0.4,0-0.4-0.2c0-0.4,0.4-0.9,0.9-1.6c3.1-3.6,5.4-6.6,6.6-9.2c0.9-3.1,1.8-4.7,3.1-4.7
	c0.9,0,1.3,0.4,1.3,1.1c0,0.7-0.4,1.6-1.4,2.7l-1.3,1.8c0,0.7,0.5,1.1,1.6,1.1c0.7,0,1.4-0.2,2.2-0.7l1.4-0.9c0,0,0.2,0,0.5,0
	c0.4,0,0.5,0.2,0.9,0.5c0.4,0.4,0.4,0.7,0.4,0.9l-3.8,4.7c-2.3,2.9-3.4,5.2-3.4,7s0.7,2.5,2.3,2.5s3.6-0.9,6.1-2.7
	c1.4-1.1,2.7-2.2,3.9-3.6c1.1-1.3,1.8-2,1.8-2c0.2,0,0.4,0.2,0.4,0.4s-0.2,0.5-0.5,0.9l-1.8,2c-0.9,1.1-2,2-3.2,2.9
	C471.2,42,468.9,42.9,467.1,43.1z M497.6,26.6l0.7-0.2c0.4,0,0.7,0.2,1.1,0.5s0.5,0.5,0.5,0.7c0,0.2-1.1,2-3.4,5.2
	c-2.3,3.2-3.4,5.6-3.4,6.8c0,0.2,0,0.2,0,0.4c0.2,0.9,0.5,1.3,1.3,1.3c1.8,0,5.2-3.1,10.2-9.3c0.2-0.2,0.2-0.2,0.4-0.2
	s0.2,0.2,0.2,0.4c0,0.4-0.2,0.5-0.5,1.1c-4.7,6.1-8.1,9.2-10.6,9.2c-0.4,0-0.5,0-0.9-0.2c-1.6-0.5-2.3-1.8-2.3-3.6
	c0-0.5,0-1.3,0.2-1.8l-3.4,3.2c-2.2,1.8-3.6,2.9-4.7,2.9c-0.9,0-1.8-0.4-2.7-0.9c-0.9-0.7-1.4-1.6-1.4-2.9c0-2.7,1.8-5.7,5.6-9.3
	c3.6-3.6,7-5.4,10-5.4c1.3,0,2,0.4,2.3,1.3c0.2,0.4,0.2,0.5,0.4,0.7C497.4,26.6,497.4,26.6,497.6,26.6z M481.5,39.9
	c0,1.3,0.4,2,1.4,2c2.2,0,4.8-2.3,8.4-6.8l5.7-7.9c-0.4-0.5-0.7-0.7-1.4-0.7c-2.2,0-5,1.6-8.8,5C483.3,34.9,481.5,37.7,481.5,39.9z
	 M524.5,30.5c0,2.9-1.6,5.7-5,8.3c-3.4,2.5-6.3,3.9-8.6,3.9c-1.6,0-2.9-0.2-3.6-0.4s-1.6-0.9-2.5-2c-0.5,0.5-1.4,1.8-2.5,3.8
	c-1.1,2.2-1.6,3.8-1.6,5.4c0,0.7,0.4,1.6,1.1,2.7c0,0.2,0,0.4-0.2,0.5c-0.2,0.2-0.4,0.2-0.4,0.2H501c-1.4-0.9-2.3-2.5-2.3-4.8
	c0-2.3,2-6.5,5.9-12.4c3.9-5.9,6.6-9,8.3-9.5c0.4,0,0.5-0.2,0.7-0.2c0.5,0,0.9,0.7,0.9,2c0.4-0.4,1.1-0.7,2.2-1.1
	c1.4-0.4,2.3-0.5,2.9-0.5c1.3,0,2.3,0.4,3.4,1.1C524,28.4,524.5,29.3,524.5,30.5L524.5,30.5z M521.8,30c0-1.4-0.9-2-2.5-2
	s-3.1,0.4-4.5,1.1c-0.5,0.4-2.3,1.8-5,4.7c-2.7,2.9-4.1,4.7-4.1,5.6c0,0.7,0.5,1.1,1.4,1.4c0.9,0.4,2,0.5,3.1,0.5
	c2,0,4.5-1.1,7.2-3.4C520.4,35.6,521.8,33.1,521.8,30z M539.6,42.6c-2.2,0-3.2-1.3-3.2-3.8c0-1.4,0.5-2.9,1.4-4.7
	c1.1-1.8,2.2-3.8,3.6-5.9c-4.7,2.3-8.8,5.7-12.6,10.2c-2.2,3.1-3.2,4.7-3.6,4.7c-1.1,0-1.6-0.4-1.6-0.9c0-0.4,0.2-0.9,0.7-1.8
	c3.4-6.3,6.1-10.8,7.9-13.6c4.3-6.8,7.4-10.6,9-11.1h0.2c0.5,0,0.7,0.4,0.9,1.1c-0.2,0.7-2,3.4-5.6,8.3c-3.8,4.8-5.9,7.9-6.5,9.3
	c1.3-0.9,3.6-2.7,7-4.8c3.6-2.5,5.9-3.8,7-3.8s1.8,0.4,1.8,1.4c0,0.2,0,0.2,0,0.4c0,0-1.3,1.8-3.8,5c-2.5,3.4-3.8,5.7-3.8,7.4
	c0,0.9,0.4,1.3,0.9,1.3c2,0,4.8-2.3,8.8-7c0.4-0.4,0.5-0.5,0.7-0.5s0.2,0.2,0.2,0.4c0,0.7-1.8,2.7-5.4,5.7
	C541.9,41.5,540.5,42.6,539.6,42.6z M546.4,49c1.8,2.2,3.2,3.2,4.5,3.2c2,0,4.3-1.6,6.6-4.8c1.8-2.3,3.4-5.4,5-9.2l2-5l-7.9,6.3
	c-2.5,2-4.5,2.9-5.9,2.9c-0.7,0-1.4-0.4-1.8-0.9c-0.5-0.5-0.7-1.1-0.7-1.8c0-1.6,1.3-4.1,3.9-7.5c2.7-3.6,4.7-5.4,5.7-5.4
	s1.8,0.4,1.8,1.3c0,0.4-1.6,2.2-4.8,5.6c-3.2,3.4-4.8,5.7-4.8,6.8c0,0.5,0.4,0.7,0.9,0.7c1.1,0,3.4-1.4,7-3.9s6.1-4.8,7.9-6.6
	c0.4-0.5,0.9-1.3,1.6-2.2c0.7-0.7,1.4-1.3,2.3-1.3s1.3,0.4,1.3,1.3c0,0.2-0.9,1.4-2.5,3.8c-1.6,2.3-2.5,3.6-2.5,3.8
	c-1.1,2.2-2.9,5.2-5.2,9.3c-3.4,5.6-7,8.4-10.4,8.4c-1.1,0-2.2-0.5-3.1-1.4C546.8,51.4,546.4,50.3,546.4,49z"/>
</svg>
