<?xml version="1.0" encoding="utf-8"?>
<!-- Generator: Adobe Illustrator 25.2.1, SVG Export Plug-In . SVG Version: 6.00 Build 0)  -->
<svg version="1.1" id="Layer_1" xmlns="http://www.w3.org/2000/svg" xmlns:xlink="http://www.w3.org/1999/xlink" x="0px" y="0px"
	 viewBox="0 0 500 80" style="enable-background:new 0 0 500 80;" xml:space="preserve">
<style type="text/css">
	.st0{fill:#FFFFFF;}
</style>
<path class="st0" d="M46.7,25.4l4.5-0.1c1.1,0,1.7,0.1,1.7,0.2c0,0.4-2.3,0.8-6.8,1.1c-2.9,5.7-4.3,9.5-4.3,11.6
	c0,1.4,0.5,2.1,1.4,2.1c0.3,0,0.8-0.2,1.3-0.6c0.5-0.4,0.8-0.6,0.9-0.6s0.2,0.1,0.2,0.2c-0.2,0.6-0.6,1-1.4,1.4
	c-0.8,0.4-1.5,0.6-2,0.6s-1,0-1.3-0.1c-0.7-0.3-1.1-1.2-1.1-2.7c0-3.1,1.2-7.2,3.6-12l-5.6,0.1c-4.2,4.1-8.4,7.7-12.6,10.7
	c-6.3,4.6-11.2,6.9-14.8,6.9c-0.2,0-0.4,0-0.7,0c-4.8-0.4-7.2-2.9-7.2-7.4c0-2.7,0.8-5.5,2.5-8.5c2.2-4,5.3-7.4,9.2-10.2
	s7.4-4.2,10.5-4.2s4.6,1.1,4.6,3.4c0,1.5-0.5,3.2-1.4,5.1c-0.9,1.9-1.9,3.1-2.9,3.6c-0.1,0-0.2,0-0.3,0c-0.1,0-0.2,0-0.2-0.1
	l1.5-2.5c1.1-1.7,1.6-3.1,1.6-4.3c0-1.2-0.3-2.3-0.8-3c-0.5-0.8-1.4-1.1-2.6-1.1c-2.4,0-5.3,1.4-8.7,4.1s-6,6-7.7,10
	c-1.8,4-2.6,7-2.6,9.3c0,3.3,1.7,5,5.1,5c3.2,0,7.6-2.1,13.2-6.3c2.5-1.8,6.5-5.3,12-10.4c-1.1,0.1-2.1,0.2-3,0.3
	c-2,0.4-2.9,0.3-2.8-0.2c0.1-1.2,0.7-1.7,1.8-1.7c2.1,0.2,3.8,0.4,5.2,0.4c2.7-2.5,6.7-6.5,12-12.1c3.6-3.8,5.8-5.7,6.5-5.7
	c0.3,0,0.5,0.3,0.5,0.8c0,0.5-0.1,1.4-0.4,2.5s-0.6,1.8-0.9,2.1c-0.7,0.5-1.4,1.2-2,2c-0.6,0.9-1.5,2.5-2.7,4.8
	C48.5,22,47.5,23.9,46.7,25.4z M50.5,14l-12,11.2h2.8c0.7,0,1.5,0,2.4,0C44.6,23.5,46.9,19.7,50.5,14z M74.6,38.2
	c-2.1,0-3.2-1-3.2-2.9c0-1.1,0.5-2.7,1.5-4.6c1-1.9,2-3.6,3.1-4.9c-1.9,0.9-4.2,2.6-6.7,5.1c-2.5,2.4-4.3,5-5.3,7.7
	c-0.2,0.2-0.4,0.4-0.8,0.4c-0.7,0-1.1-0.4-1.1-1.3c0.3-1.7,1-3.7,2.1-5.9c0.3-0.7,1.4-2.8,3-6.3c-2.4,1.6-4.5,3.3-6.2,5.1
	c-1.7,1.8-3.3,3.7-4.7,5.5c-1.4,1.8-2.3,2.8-2.5,2.8c-0.4,0-0.8-0.2-1.1-0.6c-0.3-0.4-0.4-0.7-0.4-1.1c0-0.6,0.8-2.6,2.4-6.2
	l-2.8,2.9c-0.7,0.7-1.1,1-1.3,1s-0.3-0.1-0.3-0.3s0.1-0.4,0.4-0.7c1.2-1.2,2.2-2.3,3.1-3.5s2.4-3.2,4.5-6.2c0.3-0.5,0.8-0.7,1.4-0.7
	c0.6,0,0.9,0.3,0.9,0.9c0,0.2-0.8,1.7-2.5,4.6c-1.7,2.8-2.6,4.6-2.8,5.3c1.3-1.4,3.2-3.3,5.7-5.7c3.8-3.6,6.4-5.3,7.6-5.3
	c0.4,0,0.7,0.1,1,0.3c0.3,0.2,0.5,0.5,0.5,0.7c0,0.3-0.6,1.4-1.8,3.5c-1.2,2.1-1.8,3.4-2,3.8c3.5-2.9,5.2-4.4,5.2-4.4
	c2.9-2.3,5-3.4,6.3-3.4c0.4,0,0.7,0.1,1.1,0.4c0.3,0.2,0.5,0.5,0.5,0.8c0,0.1-1,1.4-3,3.9c-2,2.6-3.2,4.7-3.4,6.3
	c-0.1,0.6,0,1,0.3,1.3c0.3,0.3,0.8,0.4,1.5,0.4c0.7,0,1.8-0.5,3.2-1.5c1.4-1,2.9-2.4,4.3-4.1c0.6-0.6,0.9-0.9,1.1-0.9
	s0.3,0.1,0.3,0.2c0,0.2-0.1,0.5-0.4,0.7c-1.5,1.8-3.2,3.4-4.9,4.7C77,37.6,75.6,38.2,74.6,38.2L74.6,38.2z M99.3,24.8l0.7-0.1
	c0.3,0,0.7,0.1,1,0.4c0.3,0.3,0.5,0.5,0.5,0.7c0,0.2-1,1.7-2.9,4.5c-1.9,2.9-2.9,4.8-2.9,6c0,0.1,0,0.2,0,0.3c0.2,0.7,0.5,1.1,1,1.1
	c1.6,0,4.6-2.7,8.9-8c0.1-0.1,0.2-0.2,0.3-0.2c0.1,0,0.2,0.1,0.2,0.4c0,0.2-0.1,0.5-0.4,0.9c-4,5.3-7,8-9.1,8c-0.3,0-0.5,0-0.8-0.1
	c-1.4-0.5-2.1-1.6-2.1-3.1c0-0.5,0.1-1.1,0.2-1.6L91,36.6c-1.8,1.6-3.2,2.4-4,2.4c-0.8,0-1.6-0.3-2.4-0.8c-0.8-0.6-1.3-1.4-1.3-2.5
	c0-2.3,1.6-5,4.8-8.2c3.2-3.2,6.1-4.7,8.7-4.7c1,0,1.7,0.4,2.1,1.1c0.1,0.2,0.2,0.5,0.2,0.6C99.3,24.7,99.3,24.8,99.3,24.8z
	 M85.4,36.3c0,1.1,0.4,1.7,1.2,1.7c1.8,0,4.3-2,7.4-5.9l5-6.8c-0.2-0.4-0.7-0.7-1.2-0.7c-1.9,0-4.4,1.5-7.6,4.4
	C86.9,31.9,85.4,34.4,85.4,36.3z M112.7,24c0.8,0,1.3,0.3,1.3,1c0,0.2,0,0.4-0.1,0.6c-2.8,3.9-4.5,6.8-5,8.8
	c7.3-7.3,11.7-10.9,13.2-10.9c0.2,0,0.3,0,0.4,0c0.9,0,1.3,0.4,1.3,1.2c0,0.2,0,0.3-0.1,0.5c-0.1,0.2-0.7,1-1.9,2.5
	c-1.4,1.6-2.5,3.2-3.5,4.7c-1,1.5-1.4,2.7-1.4,3.7c0,1,0.2,1.5,0.7,1.5c1.4,0,3.8-1.9,7.2-5.7c0.1-0.1,0.2-0.2,0.3-0.4
	c0.5-0.6,0.7-0.8,0.8-0.8s0.1,0.2,0.1,0.5c0,0.3-0.2,0.7-0.7,1.2c-3.9,4.4-6.6,6.6-8.2,6.6c-1.5,0-2.3-0.8-2.3-2.5
	c0-1.7,0.6-3.6,1.9-5.8l3-4.9c-2.1,1.6-4,3.3-5.7,5.1c-1.7,1.9-3.2,3.7-4.5,5.4c-1.4,1.7-2.1,2.6-2.4,2.6c-0.5,0-0.8-0.2-1.1-0.6
	c-0.3-0.4-0.4-0.9-0.4-1.4c0-0.6,0.2-1.3,0.6-2.3c0.4-1,0.9-2.1,1.5-3.5l-2.8,2.9c-0.7,0.7-1.1,1-1.3,1s-0.3-0.1-0.3-0.3
	s0.1-0.4,0.4-0.7c1.2-1.2,2.1-2.3,3-3.3c0.8-1.1,2.5-3.1,5-6.1C112,24.2,112.3,24,112.7,24z M174.3,18.8c-1.2,0.5-2.1,0.7-3,0.7
	s-1.2-0.2-1.2-0.5c0-0.2,0.5-0.3,1.4-0.4s1.6-0.1,2-0.3c1.2-0.6,1.8-1.5,1.8-2.8c0-0.6-0.2-1.3-0.5-2c-1-1.8-3.4-2.7-7.2-2.7
	c-2.2,0-4.4,0.3-6.6,1s-4.1,1.7-5.6,3.1c-1.5,1.4-2.2,2.7-2.2,3.9c0,1.8,1.8,3.1,5.4,4l5.5,1c2.2,0.4,3.9,1,5,1.7
	c1.4,0.9,2.1,2.1,2.1,3.7c0,0.7-0.1,1.4-0.3,2.1c-1,3.4-3.6,5.9-7.7,7.7c-3.5,1.5-7.5,2.3-12.2,2.3c-1.3,0-2.5-0.1-3.5-0.2
	c1,0.6,2.3,1,3.9,1.4c0.1,0,0.2,0.1,0.2,0.2c0,0.3-0.3,0.4-1,0.4c-1.3,0-2.9-0.8-4.8-2.3c-2.6-0.4-4.5-1.1-5.8-2.1
	c-0.8-0.7-1.6-1.6-2.2-2.9c-0.7-1.3-1-2.4-1-3.5c0-1,0.2-1.9,0.6-2.6c0.9-1.7,2.1-2.5,3.6-2.5c1.1,0,1.7,0.9,1.9,2.8
	c0.4,3.6,0.7,5.6,0.9,6.1c0.5,1.5,1.3,2.8,2.4,3.9c1.3,0.3,2.7,0.4,4.3,0.4c3.4,0,6.7-0.7,9.9-2c3.2-1.3,5.6-3.2,7-5.7
	c0.6-1,0.9-1.8,0.9-2.6c0-1.5-1.3-2.6-3.9-3.4l-8.2-1.9c-1.7-0.4-3-1.1-4-2c-1-0.9-1.5-2-1.5-3.2c0-1.9,1.2-3.7,3.5-5.6
	c1.8-1.4,3.9-2.5,6.5-3.3c2.6-0.8,5.1-1.2,7.6-1.2s4.5,0.4,6.1,1.1c2.1,1,3.1,2.4,3.1,4.2S176.2,18,174.3,18.8L174.3,18.8z
	 M144.2,39.6c-1.8-2-3-4.7-3.5-8.2c-0.3-2-0.5-2.9-0.8-2.9s-0.5,0.1-0.7,0.2c-0.2,0.1-0.4,0.4-0.7,0.9c-0.2,0.5-0.3,1.1-0.3,1.8
	c0,2.4,0.8,4.5,2.5,6.2C141.6,38.5,142.8,39.2,144.2,39.6z M185.8,20.2c0.4,0.3,0.6,0.6,0.6,1.1c0,0.4-0.2,0.8-0.6,1.1
	s-0.8,0.4-1.3,0.4s-0.9-0.2-1.3-0.5c-0.4-0.3-0.6-0.7-0.6-1.2c0-0.9,0.6-1.3,1.8-1.3C185,19.7,185.4,19.9,185.8,20.2L185.8,20.2z
	 M176.1,39.3c-1.6,0-2.4-1-2.4-3.1c0-1.7,0.9-4,2.8-7c1.8-3,3.3-4.5,4.4-4.5c0.3,0,0.7,0.1,1.1,0.4c0.4,0.2,0.6,0.5,0.6,0.7
	c-0.2,0.2-0.3,0.5-0.6,0.7c-0.2,0.3-0.5,0.6-0.7,0.9c-0.2,0.3-0.6,0.8-1,1.3c-0.4,0.6-0.9,1.1-1.3,1.7c-2.3,3-3.5,5.1-3.5,6.2
	c0,1.1,0.4,1.7,1.2,1.7c0.7,0,1.5-0.4,2.7-1.1c2.6-1.6,4.7-3.4,6.2-5.3c0.6-0.7,0.9-1.1,1.1-1.1c0.2,0,0.3,0.1,0.3,0.4
	c0,0.2-0.4,0.7-1.1,1.5c-0.7,0.7-1.3,1.3-1.7,1.8c-0.4,0.4-0.7,0.7-0.9,0.9c-0.2,0.1-0.4,0.4-0.9,0.8c-0.4,0.4-0.7,0.7-1,0.8
	c-0.2,0.2-0.5,0.4-0.9,0.7c-0.4,0.3-0.8,0.5-1.1,0.7c-0.3,0.1-0.7,0.3-1.1,0.5C177.7,39.2,177,39.3,176.1,39.3L176.1,39.3z
	 M194.5,24c0.8,0,1.3,0.3,1.3,1c0,0.2,0,0.4-0.1,0.6c-2.8,3.9-4.5,6.8-5,8.8c7.3-7.3,11.7-10.9,13.2-10.9c0.2,0,0.3,0,0.4,0
	c0.9,0,1.3,0.4,1.3,1.2c0,0.2,0,0.3-0.1,0.5c-0.1,0.2-0.7,1-1.9,2.5c-1.4,1.6-2.5,3.2-3.5,4.7c-1,1.5-1.4,2.7-1.4,3.7
	c0,1,0.2,1.5,0.7,1.5c1.4,0,3.8-1.9,7.2-5.7c0.1-0.1,0.2-0.2,0.3-0.4c0.5-0.6,0.7-0.8,0.8-0.8c0.1,0,0.1,0.2,0.1,0.5
	c0,0.3-0.2,0.7-0.7,1.2c-3.9,4.4-6.6,6.6-8.2,6.6c-1.5,0-2.3-0.8-2.3-2.5c0-1.7,0.6-3.6,1.9-5.8l3-4.9c-2.1,1.6-4,3.3-5.7,5.1
	c-1.7,1.9-3.2,3.7-4.5,5.4s-2.1,2.6-2.4,2.6c-0.5,0-0.8-0.2-1.1-0.6c-0.3-0.4-0.4-0.9-0.4-1.4s0.2-1.3,0.6-2.3
	c0.4-1,0.9-2.1,1.5-3.5l-2.8,2.9c-0.7,0.7-1.1,1-1.3,1c-0.2,0-0.3-0.1-0.3-0.3s0.1-0.4,0.4-0.7c1.2-1.2,2.1-2.3,3-3.3
	c0.8-1.1,2.5-3.1,5-6.1C193.9,24.2,194.2,24,194.5,24L194.5,24z M223.5,24.5l0.7-0.1c0.4,0,0.7,0.1,1,0.4c0.2,0.2,0.4,0.4,0.4,0.6
	s0,0.3,0,0.5c0,0.2-0.5,1-1.4,2.4c-1.1,1.9-2,3.5-2.7,4.8c-2.5,4.7-4.5,7.9-5.8,9.7c-2.9,3.8-5.6,5.7-8.2,5.7
	c-0.9,0-1.7-0.4-2.4-1.1c-0.7-0.8-1-1.6-1.1-2.5c0.1-0.4,0.2-0.6,0.4-0.6c0.1,0,0.2,0.1,0.2,0.3c0.2,0.8,0.5,1.4,0.9,1.9
	c0.4,0.4,0.9,0.7,1.3,0.7c1.8,0,3.7-1.2,5.7-3.5c1.3-1.6,2.8-3.8,4.4-6.8l2.3-4.6l-3.5,3.6c-2.2,2.1-3.8,3.2-4.6,3.2
	c-0.8,0-1.6-0.3-2.4-0.8c-0.8-0.6-1.3-1.4-1.3-2.5c0-2.3,1.6-5,4.8-8.1c3.2-3.1,6.1-4.7,8.7-4.7c1.1,0,1.7,0.3,2.1,1
	c0.1,0.2,0.2,0.5,0.2,0.6C223.4,24.4,223.5,24.5,223.5,24.5L223.5,24.5z M209.5,36c0,1.1,0.4,1.7,1.2,1.7c1.8,0,4.3-2,7.4-5.9l5-6.8
	c-0.2-0.4-0.6-0.7-1.2-0.7c-1.9,0-4.5,1.5-7.6,4.5S209.5,34.1,209.5,36L209.5,36z M238.3,38.6c-1.8,0-2.8-1.1-2.8-3.2
	c0-1.2,0.4-2.6,1.3-4s1.9-3.2,3.2-5.2c-4,2-7.6,4.9-10.8,8.8c-1.8,2.7-2.9,4.1-3.2,4.1c-0.9,0-1.4-0.3-1.4-0.8
	c0-0.3,0.2-0.8,0.6-1.5c3-5.4,5.3-9.3,6.9-11.8c3.7-6,6.3-9.2,7.9-9.7c0.1,0,0.1,0,0.2,0c0.4,0,0.7,0.3,0.8,1
	c-0.1,0.7-1.7,3-4.9,7.1c-3.3,4.1-5.1,6.9-5.6,8.1c1.2-0.8,3.2-2.3,6-4.3c3.1-2.1,5.1-3.2,6.1-3.2c1,0,1.5,0.4,1.5,1.2
	c0,0.1,0,0.2,0,0.3s-1.1,1.5-3.2,4.4c-2.1,2.9-3.2,5-3.2,6.4c0,0.7,0.3,1.1,0.8,1.1c1.7-0.1,4.2-2.1,7.6-6.1
	c0.3-0.3,0.5-0.4,0.6-0.4s0.2,0.1,0.2,0.3c0,0.6-1.5,2.3-4.6,5C240.3,37.7,239,38.6,238.3,38.6L238.3,38.6z M314.1,17.9
	c0,1.6-0.8,3.3-2.4,5.2s-4,3.4-7.2,4.6c-3.2,1.2-6.4,1.8-9.4,1.8s-5.4-0.4-7.2-1.2c-3.9,5.8-6.5,9.2-7.7,10.4c-3.4,3.4-7.4,5-12.1,5
	c-2.6,0-4.6-0.6-6-1.8c-1.3-1.2-2-2.8-2-4.8c0-2.7,1.1-5.3,3.3-7.7c2.4-2.6,5.4-4,9.1-4c1.5,0,2.8,0.3,3.8,1c1,0.7,1.5,1.7,1.5,3.1
	c0,0.9-0.5,2.1-1.6,3.4c-1.1,1.3-1.7,2-2,2c-0.1,0-0.1-0.1-0.1-0.2s0-0.2,0.1-0.4c1-1.5,1.5-2.8,1.5-4c0-1.2-0.4-2.2-1.1-2.9
	s-1.7-1-2.8-1c-2.6,0-4.9,1.2-6.9,3.6c-2,2.4-3,4.8-3,7.2c0,1.6,0.5,2.8,1.5,3.8c1,1,2.5,1.4,4.6,1.4c3.8,0,7.1-1.3,9.9-3.9
	c1.6-1.5,3.2-3.7,4.8-6.5l4.1-7.3c2-3.2,4.3-8,7-14.3h-0.8c-4.2,0-8.4,0.5-12.7,1.4c-4.2,0.9-7.4,2.2-9.6,3.9
	c-0.9,0.7-1.4,1.4-1.4,2.1c0,0.7,0.4,1.2,1.1,1.7c0.7,0.4,1.6,0.6,2.6,0.6s2.2-0.2,3.7-0.6s2.6-0.9,3.3-1.6c0.3-0.2,0.5-0.4,0.7-0.4
	c0.2,0,0.3,0.1,0.1,0.4c-1.1,1.3-2.8,2.3-5.1,2.9c-1.4,0.4-2.8,0.6-4.2,0.6s-2.5-0.3-3.4-0.9c-0.9-0.6-1.3-1.4-1.3-2.5
	s0.6-2.1,1.7-3.2c2.1-2.1,5.9-3.6,11.4-4.6c3.9-0.7,8.3-1,13.3-1h1.3c0.7-0.6,1.3-0.9,1.9-0.9s0.8,0.2,0.8,0.7c0,0.1,0,0.2,0,0.3
	c4.8,0.3,8.7,1.2,11.7,2.4C312.3,13.5,314.1,15.5,314.1,17.9L314.1,17.9z M311.9,17.4c0-2-1.6-3.6-4.8-4.8c-2.8-1.1-6.2-1.7-10.4-2
	l-1.5,4.7c-1.2,2.9-3.5,7-6.8,12.2c0.3,0.2,0.8,0.3,1.6,0.5c1.2,0.2,2.2,0.3,2.9,0.3c2.4,0,5.1-0.5,8.2-1.5c3.1-1,5.7-2.4,7.7-4.3
	C310.9,20.7,311.9,19,311.9,17.4z M320.7,38.6c-1.8,0-2.8-1.1-2.8-3.2c0-1.2,0.4-2.6,1.3-4s1.9-3.2,3.2-5.2c-4,2-7.6,4.9-10.8,8.8
	c-1.8,2.7-2.9,4.1-3.2,4.1c-0.9,0-1.4-0.3-1.4-0.8c0-0.3,0.2-0.8,0.6-1.5c3-5.4,5.3-9.3,6.9-11.8c3.7-6,6.3-9.2,7.9-9.7
	c0.1,0,0.1,0,0.2,0c0.4,0,0.7,0.3,0.8,1c-0.1,0.7-1.7,3-4.9,7.1c-3.3,4.1-5.1,6.9-5.6,8.1c1.2-0.8,3.2-2.3,6-4.3
	c3.1-2.1,5.1-3.2,6.1-3.2s1.5,0.4,1.5,1.2c0,0.1,0,0.2,0,0.3c0,0-1.1,1.5-3.2,4.4c-2.1,2.9-3.2,5-3.2,6.4c0,0.7,0.3,1.1,0.8,1.1
	c1.7-0.1,4.2-2.1,7.6-6.1c0.3-0.3,0.5-0.4,0.6-0.4c0.1,0,0.2,0.1,0.2,0.3c0,0.6-1.5,2.3-4.6,5C322.7,37.7,321.4,38.6,320.7,38.6
	L320.7,38.6z M341.5,28.9c0,1.1-1,2.9-3.1,5.5c-2.5,3-4.6,4.5-6.3,4.5h-0.7c-0.8,0-1.4-0.4-1.9-1.3c-0.4-0.6-0.6-1.2-0.6-2
	c0-1.9,1.4-4.5,4.1-7.9c2.7-3.4,4.9-5.1,6.6-5.1c1.6,0,2.4,0.8,2.4,2.5c0,0.4-0.1,1-0.2,1.7c0,0.1,0.3,0.1,0.9,0.1
	c0.6,0,1.4-0.3,2.6-0.9c0,0.5-1.3,1.3-3.7,2.3C341.5,28.6,341.5,28.7,341.5,28.9z M338.5,26.4c-1.1,0-2.6,1.2-4.5,3.7
	c-1.9,2.5-2.9,4.3-2.9,5.5c0,1.2,0.4,1.8,1.1,1.8c1.3,0,3-1.2,5.1-3.6c2.1-2.4,3.1-4.2,3.1-5.2C339.8,28.3,339.2,27.6,338.5,26.4z
	 M356.7,23.7l6.7-0.1c0.1,0.1,0.1,0.1,0.1,0.1c0,0.3-1.9,0.7-5.8,1.2c-3.9,0.5-6,0.8-6.3,0.9c-0.6,0.5-1.7,2.1-3.3,4.7
	c-1.6,2.6-2.4,4.6-2.4,5.8c0,1.2,0.8,1.7,2.4,1.7c0.7,0,1.7-0.2,2.9-0.7c1.2-0.5,2.1-0.9,2.8-1.3c1.7-1.1,3.6-2.7,5.6-4.8
	c0.4-0.4,0.7-0.7,0.9-0.7c0.1,0,0.1,0.1,0.1,0.3c0,0.2-0.2,0.6-0.7,1.1c-1.6,2-3.4,3.6-5.5,4.8c-2.4,1.5-4.8,2.2-7,2.2
	c-1,0-1.8-0.2-2.4-0.6s-0.9-1.3-0.9-2.5c0-1.3,0.6-3,1.7-5.3c1.1-2.2,2-3.9,2.6-5c-0.4,0.1-0.8,0.1-1.1,0.1c-0.9,0-1.4-0.4-1.4-1.1
	c0-0.5,0.4-0.9,1.1-1.1c0.1,0,0.2,0,0.4,0h2.7c0.6-0.7,1.2-1.5,1.9-2.5c0.9-1.1,1.5-1.7,1.8-1.7c0.3,0,0.7,0.1,1.2,0.4
	c0.5,0.2,0.7,0.5,0.7,0.9s-0.7,1.4-2.2,3C354.3,23.7,355.4,23.7,356.7,23.7z M372.6,28.9c0,1.1-1,2.9-3.1,5.5
	c-2.5,3-4.6,4.5-6.3,4.5h-0.7c-0.8,0-1.4-0.4-1.9-1.3c-0.4-0.6-0.6-1.2-0.6-2c0-1.9,1.4-4.5,4.1-7.9c2.7-3.4,4.9-5.1,6.6-5.1
	c1.6,0,2.4,0.8,2.4,2.5c0,0.4-0.1,1-0.2,1.7c0,0.1,0.3,0.1,0.9,0.1c0.6,0,1.4-0.3,2.6-0.9c0,0.5-1.3,1.3-3.7,2.3
	C372.6,28.6,372.6,28.7,372.6,28.9z M369.6,26.4c-1.1,0-2.6,1.2-4.5,3.7c-1.9,2.5-2.9,4.3-2.9,5.5c0,1.2,0.4,1.8,1.1,1.8
	c1.3,0,3-1.2,5.1-3.6c2.1-2.4,3.1-4.2,3.1-5.2C371,28.3,370.4,27.6,369.6,26.4z M391.3,24.5l0.7-0.1c0.4,0,0.7,0.1,1,0.4
	c0.2,0.2,0.4,0.4,0.4,0.6s0,0.3,0,0.5c0,0.2-0.5,1-1.4,2.4c-1.1,1.9-2,3.5-2.7,4.8c-2.5,4.7-4.5,7.9-5.8,9.7
	c-2.9,3.8-5.6,5.7-8.2,5.7c-0.9,0-1.7-0.4-2.4-1.1s-1-1.6-1.1-2.5c0.1-0.4,0.2-0.6,0.4-0.6c0.1,0,0.2,0.1,0.2,0.3
	c0.2,0.8,0.5,1.4,0.9,1.9c0.4,0.4,0.9,0.7,1.3,0.7c1.8,0,3.7-1.2,5.7-3.5c1.3-1.6,2.8-3.8,4.4-6.8L387,32l-3.5,3.6
	c-2.2,2.1-3.8,3.2-4.6,3.2s-1.6-0.3-2.4-0.8c-0.8-0.6-1.3-1.4-1.3-2.5c0-2.3,1.6-5,4.8-8.1c3.2-3.1,6.1-4.7,8.7-4.7
	c1.1,0,1.7,0.3,2.1,1c0.1,0.2,0.2,0.5,0.2,0.6C391.2,24.4,391.2,24.5,391.3,24.5L391.3,24.5z M377.3,36c0,1.1,0.4,1.7,1.2,1.7
	c1.8,0,4.3-2,7.4-5.9l5-6.8c-0.2-0.4-0.6-0.7-1.2-0.7c-1.9,0-4.5,1.5-7.6,4.5S377.3,34.1,377.3,36z M404.5,39
	c-2.3,0-3.5-1.3-3.5-3.9c0-1.3,0.3-2.7,1-4.3s1.4-2.9,2.2-3.9c-0.2,0-0.4,0-0.6,0c-0.7,0-1.4-0.5-1.9-1.6l-3.5,4.5
	c-1.9,2.4-3.1,3.6-3.4,3.6c-0.2,0-0.2-0.1-0.2-0.2c0-0.3,0.3-0.8,0.8-1.4c2.7-3.1,4.6-5.8,5.7-8c0.7-2.7,1.6-4.1,2.7-4.1
	c0.7,0,1.1,0.3,1.1,0.9c0,0.6-0.4,1.4-1.2,2.4l-1.1,1.5c0,0.7,0.5,1,1.4,1c0.6,0,1.2-0.2,1.9-0.6l1.2-0.7c0.1,0,0.2,0,0.5,0
	c0.2,0,0.5,0.2,0.8,0.5c0.3,0.3,0.4,0.6,0.3,0.8l-3.2,4.1c-2,2.6-3,4.6-3,6.1c0,1.5,0.7,2.2,2.1,2.2c1.4,0,3.2-0.8,5.3-2.3
	c1.2-0.9,2.4-1.9,3.4-3c1-1.1,1.5-1.7,1.6-1.7c0.2,0,0.3,0.1,0.3,0.4c0,0.2-0.1,0.5-0.4,0.8l-1.5,1.7c-0.8,0.9-1.8,1.7-2.8,2.5
	C408.1,38.1,406.1,39,404.5,39L404.5,39z M431,24.8l0.7-0.1c0.3,0,0.7,0.1,1,0.4c0.3,0.3,0.5,0.5,0.5,0.7c0,0.2-1,1.7-2.9,4.5
	c-1.9,2.9-2.9,4.8-2.9,6c0,0.1,0,0.2,0,0.3c0.2,0.7,0.5,1.1,1,1.1c1.6,0,4.6-2.7,8.9-8c0.1-0.1,0.2-0.2,0.3-0.2
	c0.1,0,0.2,0.1,0.2,0.4c0,0.2-0.1,0.5-0.4,0.9c-4,5.3-7,8-9.1,8c-0.3,0-0.5,0-0.8-0.1c-1.4-0.5-2.1-1.6-2.1-3.1
	c0-0.5,0.1-1.1,0.2-1.6l-2.9,2.8c-1.8,1.6-3.2,2.4-4,2.4c-0.8,0-1.6-0.3-2.4-0.8c-0.8-0.6-1.3-1.4-1.3-2.5c0-2.3,1.6-5,4.8-8.2
	c3.2-3.2,6.1-4.7,8.7-4.7c1,0,1.7,0.4,2.1,1.1c0.1,0.2,0.2,0.5,0.2,0.6C430.9,24.7,431,24.8,431,24.8L431,24.8z M417,36.3
	c0,1.1,0.4,1.7,1.2,1.7c1.8,0,4.3-2,7.4-5.9l5-6.8c-0.2-0.4-0.7-0.7-1.2-0.7c-1.9,0-4.4,1.5-7.6,4.4S417,34.4,417,36.3L417,36.3z
	 M454.4,28.2c0,2.5-1.4,4.9-4.3,7.2c-2.9,2.3-5.4,3.4-7.5,3.4c-1.4,0-2.4-0.1-3.1-0.3c-0.6-0.2-1.3-0.7-2.1-1.7
	c-0.5,0.4-1.2,1.6-2.1,3.3c-0.9,1.8-1.4,3.3-1.4,4.6c0,0.6,0.3,1.4,0.9,2.3c0.1,0.2,0,0.3-0.1,0.4c-0.2,0.1-0.3,0.2-0.4,0.2
	s-0.1,0-0.2,0c-1.3-0.7-2-2.1-2-4.2c0-2.1,1.7-5.7,5.2-10.7c3.4-5.1,5.8-7.9,7.1-8.3c0.3-0.1,0.5-0.1,0.6-0.1c0.5,0,0.8,0.6,0.8,1.7
	c0.3-0.3,1-0.6,1.9-0.9c1.2-0.3,2-0.5,2.5-0.5c1.1,0,2.1,0.3,2.9,1C454,26.3,454.4,27.1,454.4,28.2L454.4,28.2z M452,27.7
	c0-1.2-0.7-1.8-2.1-1.8c-1.4,0-2.7,0.3-3.8,0.9c-0.5,0.2-2,1.6-4.4,4.1s-3.6,4.1-3.6,4.8c0,0.6,0.4,1,1.3,1.3
	c0.9,0.3,1.7,0.4,2.6,0.4c1.7,0,3.8-1,6.3-2.9C450.8,32.6,452,30.3,452,27.7L452,27.7z M467.6,38.6c-1.8,0-2.8-1.1-2.8-3.2
	c0-1.2,0.4-2.6,1.3-4s1.9-3.2,3.2-5.2c-4,2-7.6,4.9-10.8,8.8c-1.8,2.7-2.9,4.1-3.2,4.1c-0.9,0-1.4-0.3-1.4-0.8
	c0-0.3,0.2-0.8,0.6-1.5c3-5.4,5.3-9.3,6.9-11.8c3.7-6,6.3-9.2,7.9-9.7c0.1,0,0.1,0,0.2,0c0.4,0,0.7,0.3,0.8,1
	c-0.1,0.7-1.7,3-4.9,7.1c-3.3,4.1-5.1,6.9-5.6,8.1c1.2-0.8,3.2-2.3,6-4.3c3.1-2.1,5.1-3.2,6.1-3.2s1.5,0.4,1.5,1.2
	c0,0.1,0,0.2,0,0.3c0,0-1.1,1.5-3.2,4.4c-2.1,2.9-3.2,5-3.2,6.4c0,0.7,0.3,1.1,0.8,1.1c1.7-0.1,4.2-2.1,7.6-6.1
	c0.3-0.3,0.5-0.4,0.6-0.4c0.1,0,0.2,0.1,0.2,0.3c0,0.6-1.5,2.3-4.6,5C469.6,37.7,468.2,38.6,467.6,38.6L467.6,38.6z M473.5,44.2
	c1.5,1.9,2.8,2.8,3.9,2.8c1.8,0,3.7-1.4,5.7-4.3c1.5-2.1,3-4.7,4.4-7.9l1.8-4.3l-6.9,5.4c-2.1,1.7-3.8,2.5-5.1,2.5
	c-0.7,0-1.2-0.2-1.6-0.7c-0.4-0.5-0.6-1-0.6-1.6c0-1.3,1.2-3.5,3.5-6.6c2.3-3.1,4-4.6,5-4.6c1.1,0,1.6,0.4,1.6,1.1
	c0,0.3-1.4,1.9-4.1,4.8c-2.8,2.9-4.1,4.9-4.1,6c0,0.4,0.3,0.6,0.8,0.6c1,0,3-1.2,6-3.5c3-2.3,5.3-4.3,6.8-5.8c0.3-0.4,0.8-1,1.4-1.8
	c0.6-0.7,1.2-1,2-1c0.7,0,1.1,0.3,1.1,1c0,0.1-0.7,1.2-2.1,3.3c-1.4,2.1-2.1,3.2-2.2,3.3c-1,1.9-2.4,4.6-4.4,8.2
	c-3,4.9-6,7.3-9.1,7.3c-1,0-1.9-0.4-2.6-1.3C473.8,46.2,473.5,45.3,473.5,44.2L473.5,44.2z M-15-36"/>
</svg>
