<?xml version="1.0" encoding="utf-8"?>
<!-- Generator: Adobe Illustrator 25.2.1, SVG Export Plug-In . SVG Version: 6.00 Build 0)  -->
<svg version="1.1" id="Layer_1" xmlns="http://www.w3.org/2000/svg" xmlns:xlink="http://www.w3.org/1999/xlink" x="0px" y="0px"
	 viewBox="0 0 354.9 33.6" style="enable-background:new 0 0 354.9 33.6;" xml:space="preserve">
<style type="text/css">
	.st0{fill:#FFFFFF;}
</style>
<path class="st0" d="M37.1,14.4l3.2-0.1c0.8,0,1.2,0.1,1.2,0.2c0,0.3-1.6,0.5-4.8,0.8c-2,4-3.1,6.7-3.1,8.2c0,1,0.3,1.5,1,1.5
	c0.2,0,0.5-0.1,0.9-0.4c0.4-0.3,0.6-0.4,0.7-0.4c0.1,0,0.1,0.1,0.1,0.2c-0.1,0.4-0.4,0.7-1,1c-0.6,0.3-1,0.4-1.4,0.4s-0.7,0-0.9-0.1
	c-0.5-0.2-0.8-0.8-0.8-1.9c0-2.2,0.8-5,2.5-8.5l-4,0.1c-2.9,2.9-5.9,5.4-8.9,7.6c-4.4,3.2-7.9,4.9-10.4,4.9c-0.2,0-0.3,0-0.5,0
	c-3.4-0.3-5.1-2-5.1-5.2c0-1.9,0.6-3.9,1.8-6c1.6-2.8,3.8-5.2,6.5-7.2s5.2-3,7.4-3s3.3,0.8,3.3,2.4c0,1.1-0.3,2.3-1,3.6
	s-1.3,2.2-2,2.5c-0.1,0-0.1,0-0.2,0s-0.1,0-0.1-0.1l1.1-1.8c0.7-1.2,1.1-2.2,1.1-3.1c0-0.9-0.2-1.6-0.6-2.1c-0.4-0.5-1-0.8-1.8-0.8
	c-1.7,0-3.8,1-6.2,2.9s-4.2,4.3-5.4,7.1c-1.2,2.8-1.9,5-1.9,6.5c0,2.4,1.2,3.5,3.6,3.5c2.3,0,5.4-1.5,9.3-4.4
	c1.7-1.3,4.6-3.8,8.5-7.4c-0.8,0-1.5,0.1-2.1,0.2c-1.4,0.3-2.1,0.2-2-0.1c0.1-0.8,0.5-1.2,1.3-1.2c1.5,0.2,2.7,0.3,3.7,0.3
	c1.9-1.7,4.7-4.6,8.5-8.5c2.5-2.7,4.1-4,4.6-4c0.2,0,0.4,0.2,0.4,0.6s-0.1,1-0.3,1.7c-0.2,0.8-0.4,1.3-0.7,1.5
	c-0.5,0.4-1,0.8-1.4,1.4c-0.4,0.6-1.1,1.7-1.9,3.4C38.4,12,37.7,13.4,37.1,14.4L37.1,14.4z M39.8,6.3l-8.4,7.9h1.9c0.5,0,1,0,1.7,0
	C35.6,13,37.2,10.4,39.8,6.3z M56.8,23.4c-1.5,0-2.2-0.7-2.2-2.1c0-0.8,0.4-1.9,1.1-3.2c0.7-1.4,1.4-2.5,2.2-3.5
	c-1.4,0.7-2.9,1.9-4.7,3.6c-1.8,1.7-3,3.5-3.7,5.4c-0.1,0.2-0.3,0.3-0.6,0.3c-0.5,0-0.8-0.3-0.8-0.9c0.2-1.2,0.7-2.6,1.5-4.2
	c0.2-0.5,1-2,2.1-4.4c-1.7,1.1-3.2,2.3-4.4,3.6c-1.2,1.3-2.3,2.6-3.3,3.9c-1,1.3-1.6,1.9-1.7,1.9c-0.3,0-0.5-0.1-0.7-0.4
	s-0.3-0.5-0.3-0.8c0-0.4,0.6-1.8,1.7-4.4l-2,2.1c-0.5,0.5-0.8,0.7-0.9,0.7c-0.1,0-0.2-0.1-0.2-0.2c0-0.1,0.1-0.3,0.3-0.5
	c0.8-0.8,1.5-1.6,2.2-2.4c0.6-0.8,1.7-2.3,3.2-4.4c0.2-0.3,0.6-0.5,1-0.5c0.4,0,0.7,0.2,0.7,0.6c0,0.2-0.6,1.2-1.7,3.2
	c-1.2,2-1.8,3.2-1.9,3.7c0.9-1,2.3-2.3,4.1-4c2.7-2.5,4.5-3.8,5.3-3.8c0.3,0,0.5,0.1,0.7,0.2c0.2,0.2,0.3,0.3,0.3,0.5
	c0,0.2-0.4,1-1.3,2.5c-0.8,1.5-1.3,2.4-1.4,2.7c2.4-2,3.7-3.1,3.7-3.1c2.1-1.6,3.6-2.4,4.5-2.4c0.3,0,0.5,0.1,0.7,0.2
	c0.2,0.2,0.3,0.4,0.3,0.6c0,0-0.7,1-2.1,2.8c-1.4,1.8-2.2,3.3-2.4,4.5c0,0.4,0,0.7,0.2,0.9s0.6,0.3,1.1,0.3c0.5,0,1.3-0.4,2.3-1.1
	c1-0.7,2-1.7,3.1-2.9c0.4-0.4,0.7-0.7,0.8-0.7s0.2,0.1,0.2,0.2c0,0.2-0.1,0.3-0.3,0.5c-1.1,1.3-2.2,2.4-3.5,3.3
	C58.5,23,57.5,23.4,56.8,23.4z M74.3,14l0.5-0.1c0.2,0,0.5,0.1,0.7,0.3c0.2,0.2,0.3,0.4,0.3,0.5s-0.7,1.2-2,3.2c-1.4,2-2,3.4-2,4.2
	c0,0.1,0,0.1,0,0.2c0.1,0.5,0.4,0.8,0.7,0.8c1.1,0,3.2-1.9,6.3-5.7c0.1-0.1,0.1-0.1,0.2-0.1c0.1,0,0.1,0.1,0.1,0.2s-0.1,0.4-0.3,0.6
	c-2.8,3.8-5,5.6-6.4,5.6c-0.2,0-0.4,0-0.6-0.1c-1-0.4-1.5-1.1-1.5-2.2c0-0.4,0-0.7,0.1-1.1l-2,2c-1.3,1.1-2.2,1.7-2.8,1.7
	s-1.1-0.2-1.7-0.6c-0.6-0.4-0.9-1-0.9-1.7c0-1.6,1.1-3.5,3.4-5.8s4.3-3.3,6.2-3.3c0.7,0,1.2,0.3,1.5,0.8c0.1,0.2,0.1,0.3,0.2,0.4
	C74.2,13.9,74.2,14,74.3,14L74.3,14z M64.4,22.1c0,0.8,0.3,1.2,0.8,1.2c1.3,0,3-1.4,5.2-4.2l3.5-4.8c-0.2-0.3-0.5-0.5-0.9-0.5
	c-1.3,0-3.1,1-5.3,3.1C65.5,19,64.4,20.7,64.4,22.1z M83.7,13.4c0.6,0,0.9,0.2,0.9,0.7c0,0.1,0,0.3-0.1,0.4c-2,2.7-3.2,4.8-3.6,6.2
	c5.1-5.1,8.2-7.7,9.3-7.7c0.1,0,0.2,0,0.3,0c0.6,0,0.9,0.3,0.9,0.8c0,0.1,0,0.2-0.1,0.3c0,0.1-0.5,0.7-1.3,1.8
	c-1,1.1-1.8,2.2-2.5,3.3c-0.7,1.1-1,1.9-1,2.6c0,0.7,0.2,1.1,0.5,1.1c1,0,2.7-1.3,5-4c0,0,0.1-0.1,0.2-0.3c0.3-0.4,0.5-0.6,0.6-0.6
	c0.1,0,0.1,0.1,0.1,0.3s-0.2,0.5-0.5,0.9c-2.7,3.1-4.7,4.7-5.8,4.7c-1.1,0-1.6-0.6-1.6-1.8s0.4-2.6,1.3-4.1l2.1-3.4
	c-1.5,1.1-2.8,2.3-4,3.6c-1.2,1.3-2.2,2.6-3.2,3.8c-1,1.2-1.5,1.8-1.7,1.8c-0.3,0-0.6-0.1-0.8-0.4c-0.2-0.3-0.3-0.6-0.3-1
	s0.1-1,0.4-1.6c0.3-0.7,0.6-1.5,1.1-2.5l-2,2.1c-0.5,0.5-0.8,0.7-0.9,0.7c-0.1,0-0.2-0.1-0.2-0.2c0-0.1,0.1-0.3,0.3-0.5
	c0.8-0.8,1.5-1.6,2.1-2.3c0.6-0.7,1.7-2.2,3.5-4.3C83.2,13.5,83.5,13.4,83.7,13.4L83.7,13.4z M127.2,9.7c-0.8,0.3-1.5,0.5-2.1,0.5
	c-0.6,0-0.9-0.1-0.9-0.4c0-0.2,0.3-0.2,1-0.3c0.6,0,1.1-0.1,1.4-0.2c0.8-0.4,1.3-1.1,1.3-1.9c0-0.4-0.1-0.9-0.4-1.4
	c-0.7-1.3-2.4-1.9-5.1-1.9c-1.6,0-3.1,0.2-4.7,0.7c-1.6,0.5-2.9,1.2-3.9,2.2c-1.1,1-1.6,1.9-1.6,2.7c0,1.3,1.3,2.2,3.8,2.8l3.9,0.7
	c1.6,0.3,2.7,0.7,3.5,1.2c1,0.6,1.5,1.5,1.5,2.6c0,0.5-0.1,1-0.2,1.5c-0.7,2.4-2.5,4.2-5.4,5.4c-2.4,1.1-5.3,1.6-8.6,1.6
	c-0.9,0-1.8,0-2.5-0.1c0.7,0.4,1.6,0.7,2.8,1c0.1,0,0.1,0.1,0.1,0.1c0,0.2-0.2,0.3-0.7,0.3c-0.9,0-2-0.5-3.4-1.6
	c-1.8-0.3-3.2-0.8-4.1-1.5c-0.6-0.5-1.1-1.1-1.6-2c-0.5-0.9-0.7-1.7-0.7-2.4s0.1-1.3,0.4-1.8c0.7-1.2,1.5-1.7,2.5-1.7
	c0.8,0,1.2,0.6,1.4,1.9c0.3,2.5,0.5,3.9,0.6,4.3c0.3,1.1,0.9,2,1.7,2.7c0.9,0.2,1.9,0.3,3,0.3c2.4,0,4.7-0.5,7-1.4s3.9-2.3,4.9-4
	c0.4-0.7,0.6-1.3,0.6-1.8c0-1-0.9-1.8-2.7-2.4l-5.8-1.3c-1.2-0.3-2.1-0.8-2.9-1.4c-0.7-0.7-1.1-1.4-1.1-2.3c0-1.3,0.8-2.6,2.5-4
	c1.3-1,2.8-1.8,4.6-2.4c1.8-0.6,3.6-0.8,5.3-0.8s3.2,0.3,4.3,0.8c1.5,0.7,2.2,1.7,2.2,3C129.2,8.3,128.5,9.2,127.2,9.7L127.2,9.7z
	 M106,24.4c-1.3-1.4-2.1-3.3-2.4-5.8c-0.2-1.4-0.4-2.1-0.6-2.1s-0.3,0-0.5,0.1s-0.3,0.3-0.5,0.6c-0.2,0.3-0.2,0.8-0.2,1.3
	c0,1.7,0.6,3.1,1.8,4.4C104.1,23.6,104.9,24.1,106,24.4z M135.3,10.7c0.3,0.2,0.4,0.5,0.4,0.7c0,0.3-0.1,0.5-0.4,0.7
	c-0.3,0.2-0.6,0.3-0.9,0.3c-0.3,0-0.6-0.1-0.9-0.4c-0.3-0.3-0.4-0.5-0.4-0.8c0-0.6,0.4-0.9,1.3-0.9C134.7,10.4,135,10.5,135.3,10.7
	L135.3,10.7z M128.4,24.2c-1.1,0-1.7-0.7-1.7-2.2c0-1.2,0.6-2.8,1.9-4.9c1.3-2.1,2.3-3.2,3.1-3.2c0.2,0,0.5,0.1,0.7,0.3
	c0.3,0.2,0.4,0.4,0.4,0.5c-0.1,0.2-0.2,0.3-0.4,0.5c-0.2,0.2-0.3,0.4-0.5,0.6c-0.2,0.2-0.4,0.5-0.7,0.9c-0.3,0.4-0.6,0.8-0.9,1.2
	c-1.6,2.1-2.5,3.6-2.5,4.4s0.3,1.2,0.8,1.2c0.5,0,1.1-0.3,1.9-0.8c1.8-1.1,3.3-2.4,4.4-3.8c0.4-0.5,0.7-0.8,0.8-0.8
	c0.1,0,0.2,0.1,0.2,0.3s-0.3,0.5-0.8,1.1c-0.5,0.5-0.9,0.9-1.2,1.3c-0.3,0.3-0.5,0.5-0.6,0.6c-0.1,0.1-0.3,0.3-0.6,0.6
	c-0.3,0.3-0.5,0.5-0.7,0.6c-0.2,0.1-0.4,0.3-0.7,0.5s-0.5,0.4-0.8,0.5c-0.2,0.1-0.5,0.2-0.8,0.3C129.6,24.1,129.1,24.2,128.4,24.2
	L128.4,24.2z M141.5,13.4c0.6,0,0.9,0.2,0.9,0.7c0,0.1,0,0.3-0.1,0.4c-2,2.7-3.2,4.8-3.6,6.2c5.1-5.1,8.2-7.7,9.3-7.7
	c0.1,0,0.2,0,0.3,0c0.6,0,0.9,0.3,0.9,0.8c0,0.1,0,0.2-0.1,0.3c0,0.1-0.5,0.7-1.3,1.8c-1,1.1-1.8,2.2-2.5,3.3c-0.7,1.1-1,1.9-1,2.6
	c0,0.7,0.2,1.1,0.5,1.1c1,0,2.7-1.3,5-4c0,0,0.1-0.1,0.2-0.3c0.3-0.4,0.5-0.6,0.6-0.6s0.1,0.1,0.1,0.3s-0.2,0.5-0.5,0.9
	c-2.7,3.1-4.7,4.7-5.8,4.7s-1.6-0.6-1.6-1.8s0.4-2.6,1.3-4.1l2.1-3.4c-1.5,1.1-2.8,2.3-4,3.6c-1.2,1.3-2.2,2.6-3.2,3.8
	c-1,1.2-1.5,1.8-1.7,1.8c-0.3,0-0.6-0.1-0.8-0.4c-0.2-0.3-0.3-0.6-0.3-1s0.1-1,0.4-1.6c0.3-0.6,0.6-1.5,1.1-2.5l-2,2.1
	c-0.5,0.5-0.8,0.7-0.9,0.7c-0.1,0,0.1-0.1,0.1-0.2c0-0.1,0.1-0.3,0.3-0.5c0.8-0.8,1.5-1.6,2.1-2.3c0.6-0.7,1.7-2.2,3.5-4.3
	C141,13.5,141.2,13.4,141.5,13.4L141.5,13.4z M161.9,13.8l0.5-0.1c0.3,0,0.5,0.1,0.7,0.3c0.2,0.2,0.2,0.3,0.2,0.4c0,0.1,0,0.2,0,0.3
	s-0.3,0.7-1,1.7c-0.8,1.3-1.4,2.5-1.9,3.4c-1.8,3.3-3.1,5.6-4.1,6.8c-2,2.7-3.9,4-5.8,4c-0.6,0-1.2-0.3-1.7-0.8
	c-0.5-0.5-0.7-1.1-0.7-1.8c0.1-0.3,0.2-0.4,0.3-0.4c0.1,0,0.1,0.1,0.2,0.2c0.1,0.6,0.3,1,0.6,1.3c0.3,0.3,0.6,0.5,0.9,0.5
	c1.3,0,2.6-0.8,4-2.5c0.9-1.1,2-2.7,3.1-4.8l1.6-3.3l-2.5,2.5c-1.6,1.5-2.7,2.3-3.2,2.3c-0.5,0-1.1-0.2-1.7-0.6
	c-0.6-0.4-0.9-1-0.9-1.7c0-1.6,1.1-3.5,3.4-5.7c2.3-2.2,4.3-3.3,6.2-3.3c0.7,0,1.2,0.2,1.5,0.7c0.1,0.2,0.1,0.3,0.2,0.4
	C161.9,13.7,161.9,13.8,161.9,13.8z M152.1,21.9c0,0.8,0.3,1.2,0.8,1.2c1.3,0,3-1.4,5.2-4.2l3.5-4.8c-0.1-0.3-0.4-0.5-0.8-0.5
	c-1.4,0-3.2,1.1-5.4,3.2C153.2,18.8,152.1,20.6,152.1,21.9z M172.4,23.7c-1.3,0-1.9-0.8-1.9-2.3c0-0.9,0.3-1.8,0.9-2.9
	c0.6-1,1.3-2.3,2.2-3.7c-2.8,1.4-5.4,3.5-7.7,6.2c-1.3,1.9-2,2.9-2.2,2.9c-0.6,0-1-0.2-1-0.6c0-0.2,0.1-0.5,0.4-1.1
	c2.1-3.8,3.8-6.6,4.9-8.3c2.6-4.2,4.5-6.5,5.5-6.8h0.1c0.3,0,0.5,0.2,0.6,0.7c-0.1,0.5-1.2,2.1-3.4,5c-2.3,2.9-3.6,4.8-3.9,5.7
	c0.8-0.6,2.2-1.6,4.3-3c2.2-1.5,3.6-2.3,4.3-2.3c0.7,0,1.1,0.3,1.1,0.8c0,0.1,0,0.1,0,0.2c0,0-0.8,1.1-2.3,3.1
	c-1.5,2-2.3,3.6-2.3,4.5c0,0.5,0.2,0.8,0.6,0.8c1.2,0,3-1.5,5.3-4.3c0.2-0.2,0.3-0.3,0.4-0.3c0.1,0,0.1,0.1,0.1,0.2
	c0,0.4-1.1,1.6-3.3,3.6C173.8,23.1,172.9,23.7,172.4,23.7z M225.9,9.1c0,1.1-0.6,2.4-1.7,3.7c-1.1,1.3-2.8,2.4-5.1,3.3
	c-2.3,0.8-4.5,1.3-6.6,1.3c-2.1,0-3.8-0.3-5.1-0.8c-2.8,4.1-4.6,6.5-5.4,7.4c-2.4,2.4-5.2,3.6-8.5,3.6c-1.9,0-3.3-0.4-4.2-1.3
	c-0.9-0.9-1.4-2-1.4-3.4c0-1.9,0.8-3.7,2.3-5.4c1.7-1.9,3.8-2.8,6.4-2.8c1.1,0,1.9,0.2,2.7,0.7s1.1,1.2,1.1,2.2
	c0,0.7-0.4,1.5-1.1,2.4c-0.7,0.9-1.2,1.4-1.4,1.4c0,0-0.1,0-0.1-0.1s0-0.2,0.1-0.3c0.7-1,1.1-2,1.1-2.9s-0.3-1.5-0.8-2
	c-0.5-0.5-1.2-0.7-2-0.7c-1.8,0-3.5,0.8-4.9,2.5c-1.4,1.7-2.1,3.4-2.1,5.1c0,1.1,0.3,2,1,2.7c0.7,0.7,1.8,1,3.2,1c2.7,0,5-0.9,7-2.7
	c1.1-1.1,2.3-2.6,3.4-4.6l2.9-5.2c1.4-2.3,3-5.6,4.9-10.1h-0.7c-3,0-5.9,0.3-8.9,1c-3,0.6-5.3,1.6-6.8,2.8c-0.7,0.5-1,1-1,1.5
	s0.3,0.9,0.8,1.2c0.5,0.3,1.1,0.4,1.8,0.4c0.7,0,1.6-0.1,2.6-0.4c1-0.3,1.8-0.6,2.4-1.1c0.2-0.2,0.4-0.3,0.5-0.3
	c0.2,0,0.2,0.1,0.1,0.3c-0.8,0.9-2,1.6-3.6,2.1c-1,0.3-2,0.4-2.9,0.4c-1,0-1.8-0.2-2.4-0.6c-0.6-0.4-0.9-1-0.9-1.7
	c0-0.7,0.4-1.5,1.2-2.2c1.5-1.5,4.2-2.5,8-3.2c2.7-0.5,5.9-0.7,9.4-0.7h0.9c0.5-0.4,0.9-0.6,1.3-0.6s0.6,0.2,0.6,0.5
	c0,0.1,0,0.1,0,0.2c3.4,0.2,6.2,0.8,8.3,1.7C224.6,6,225.9,7.4,225.9,9.1L225.9,9.1z M224.3,8.7c0-1.4-1.1-2.5-3.4-3.4
	c-2-0.8-4.4-1.2-7.4-1.4l-1.1,3.3c-0.8,2.1-2.4,4.9-4.8,8.6c0.2,0.1,0.6,0.2,1.1,0.4c0.9,0.2,1.6,0.2,2,0.2c1.7,0,3.6-0.3,5.8-1
	s4-1.7,5.5-3C223.6,11.1,224.3,9.9,224.3,8.7z M230.6,23.7c-1.3,0-1.9-0.8-1.9-2.3c0-0.9,0.3-1.8,0.9-2.9c0.6-1,1.3-2.3,2.2-3.7
	c-2.8,1.4-5.4,3.5-7.7,6.2c-1.3,1.9-2,2.9-2.2,2.9c-0.6,0-1-0.2-1-0.6c0-0.2,0.1-0.5,0.4-1.1c2.1-3.8,3.8-6.6,4.9-8.3
	c2.6-4.2,4.5-6.5,5.5-6.8h0.1c0.3,0,0.5,0.2,0.6,0.7c-0.1,0.5-1.2,2.1-3.4,5c-2.3,2.9-3.6,4.8-3.9,5.7c0.8-0.6,2.2-1.6,4.3-3
	c2.2-1.5,3.6-2.3,4.3-2.3c0.7,0,1.1,0.3,1.1,0.8c0,0.1,0,0.1,0,0.2c0,0-0.8,1.1-2.3,3.1c-1.5,2-2.3,3.6-2.3,4.5
	c0,0.5,0.2,0.8,0.6,0.8c1.2,0,3-1.5,5.3-4.3c0.2-0.2,0.3-0.3,0.4-0.3s0.1,0.1,0.1,0.2c0,0.4-1.1,1.6-3.3,3.6
	C232,23.1,231.1,23.7,230.6,23.7z M245.2,16.8c0,0.8-0.7,2.1-2.2,3.9c-1.7,2.1-3.2,3.2-4.5,3.2H238c-0.6,0-1-0.3-1.4-0.9
	c-0.3-0.4-0.4-0.9-0.4-1.4c0-1.3,1-3.2,2.9-5.6c1.9-2.4,3.5-3.6,4.7-3.6c1.1,0,1.7,0.6,1.7,1.8c0,0.3-0.1,0.7-0.2,1.2
	c0,0.1,0.2,0.1,0.6,0.1s1-0.2,1.8-0.6c0,0.4-0.9,0.9-2.6,1.6C245.2,16.6,245.2,16.7,245.2,16.8L245.2,16.8z M243.1,15.1
	c-0.7,0-1.8,0.9-3.2,2.6c-1.4,1.8-2.1,3.1-2.1,3.9s0.3,1.3,0.8,1.3c0.9,0,2.1-0.9,3.6-2.6c1.5-1.7,2.2-2.9,2.2-3.7
	C244.1,16.4,243.6,15.9,243.1,15.1z M256,13.2l4.8-0.1c0.1,0,0.1,0.1,0.1,0.1c0,0.2-1.4,0.5-4.1,0.8c-2.7,0.4-4.2,0.6-4.4,0.6
	c-0.4,0.4-1.2,1.5-2.3,3.3c-1.1,1.8-1.7,3.2-1.7,4.1c0,0.8,0.6,1.2,1.7,1.2c0.5,0,1.2-0.2,2.1-0.5c0.9-0.3,1.5-0.6,2-0.9
	c1.2-0.8,2.6-1.9,4-3.4c0.3-0.3,0.5-0.5,0.6-0.5s0.1,0.1,0.1,0.2s-0.2,0.4-0.5,0.8c-1.1,1.4-2.4,2.5-3.9,3.4
	c-1.7,1.1-3.4,1.6-4.9,1.6c-0.7,0-1.2-0.1-1.7-0.4c-0.5-0.3-0.6-0.9-0.6-1.8s0.4-2.1,1.2-3.7c0.8-1.6,1.4-2.7,1.8-3.5
	c-0.3,0.1-0.6,0.1-0.8,0.1c-0.6,0-1-0.3-1-0.8c0-0.4,0.3-0.6,0.8-0.8c0.1,0,0.2,0,0.3,0h1.9c0.4-0.5,0.8-1.1,1.4-1.7
	c0.6-0.8,1-1.2,1.3-1.2c0.2,0,0.5,0.1,0.8,0.3c0.3,0.2,0.5,0.4,0.5,0.6c0,0.2-0.5,1-1.6,2.1C254.3,13.2,255,13.2,256,13.2L256,13.2z
	 M267.2,16.8c0,0.8-0.7,2.1-2.2,3.9c-1.7,2.1-3.2,3.2-4.5,3.2H260c-0.6,0-1-0.3-1.4-0.9c-0.3-0.4-0.4-0.9-0.4-1.4
	c0-1.3,1-3.2,2.9-5.6c1.9-2.4,3.5-3.6,4.7-3.6c1.1,0,1.7,0.6,1.7,1.8c0,0.3-0.1,0.7-0.2,1.2c0,0.1,0.2,0.1,0.6,0.1
	c0.4,0,1-0.2,1.8-0.6c0,0.4-0.9,0.9-2.6,1.6C267.2,16.6,267.2,16.7,267.2,16.8L267.2,16.8z M265.1,15.1c-0.7,0-1.8,0.9-3.2,2.6
	c-1.4,1.8-2.1,3.1-2.1,3.9s0.3,1.3,0.8,1.3c0.9,0,2.1-0.9,3.6-2.6s2.2-2.9,2.2-3.7C266,16.4,265.6,15.9,265.1,15.1z M280.4,13.8
	l0.5-0.1c0.3,0,0.5,0.1,0.7,0.3c0.2,0.2,0.2,0.3,0.2,0.4c0,0.1,0,0.2,0,0.3s-0.3,0.7-1,1.7c-0.8,1.3-1.4,2.5-1.9,3.4
	c-1.8,3.3-3.1,5.6-4.1,6.8c-2,2.7-3.9,4-5.8,4c-0.6,0-1.2-0.3-1.7-0.8c-0.5-0.5-0.7-1.1-0.7-1.8c0.1-0.3,0.2-0.4,0.3-0.4
	c0.1,0,0.1,0.1,0.2,0.2c0.1,0.6,0.3,1,0.6,1.3c0.3,0.3,0.6,0.5,0.9,0.5c1.3,0,2.6-0.8,4-2.5c0.9-1.1,2-2.7,3.1-4.8l1.6-3.3l-2.5,2.5
	c-1.6,1.5-2.7,2.3-3.2,2.3c-0.5,0-1.1-0.2-1.7-0.6c-0.6-0.4-0.9-1-0.9-1.7c0-1.6,1.1-3.5,3.4-5.7c2.3-2.2,4.3-3.3,6.2-3.3
	c0.7,0,1.2,0.2,1.5,0.7c0.1,0.2,0.1,0.3,0.2,0.4C280.3,13.7,280.3,13.8,280.4,13.8L280.4,13.8z M270.5,21.9c0,0.8,0.3,1.2,0.8,1.2
	c1.3,0,3-1.4,5.2-4.2l3.5-4.8c-0.1-0.3-0.4-0.5-0.8-0.5c-1.4,0-3.2,1.1-5.4,3.2C271.6,18.8,270.5,20.6,270.5,21.9L270.5,21.9z
	 M289.7,24c-1.6,0-2.5-0.9-2.5-2.7c0-0.9,0.2-1.9,0.7-3c0.5-1.1,1-2,1.6-2.8c-0.1,0-0.3,0-0.4,0c-0.5,0-1-0.4-1.3-1.1l-2.4,3.2
	c-1.4,1.7-2.2,2.5-2.4,2.5c-0.1,0-0.2,0-0.2-0.1c0-0.2,0.2-0.5,0.6-1c1.9-2.2,3.3-4.1,4.1-5.6c0.5-1.9,1.1-2.9,1.9-2.9
	c0.5,0,0.8,0.2,0.8,0.7c0,0.4-0.3,1-0.8,1.7l-0.8,1.1c0,0.5,0.3,0.7,1,0.7c0.4,0,0.8-0.1,1.3-0.4l0.9-0.5c0,0,0.2,0,0.3,0
	s0.4,0.1,0.6,0.3s0.3,0.4,0.2,0.6l-2.3,2.9c-1.4,1.8-2.1,3.2-2.1,4.3c0,1,0.5,1.6,1.5,1.6c1,0,2.3-0.5,3.7-1.6
	c0.9-0.6,1.7-1.4,2.4-2.1c0.7-0.8,1.1-1.2,1.1-1.2c0.2,0,0.2,0.1,0.2,0.2s-0.1,0.4-0.3,0.6l-1.1,1.2c-0.6,0.6-1.3,1.2-2,1.8
	C292.3,23.3,290.9,24,289.7,24L289.7,24z M308.4,14l0.5-0.1c0.2,0,0.5,0.1,0.7,0.3c0.2,0.2,0.3,0.4,0.3,0.5s-0.7,1.2-2,3.2
	c-1.4,2-2,3.4-2,4.2c0,0.1,0,0.1,0,0.2c0.1,0.5,0.4,0.8,0.7,0.8c1.1,0,3.2-1.9,6.3-5.7c0.1-0.1,0.1-0.1,0.2-0.1s0.1,0.1,0.1,0.2
	c0,0.2-0.1,0.4-0.3,0.6c-2.8,3.8-5,5.6-6.4,5.6c-0.2,0-0.4,0-0.6-0.1c-1-0.4-1.5-1.1-1.5-2.2c0-0.4,0-0.7,0.1-1.1l-2,2
	c-1.3,1.1-2.2,1.7-2.8,1.7s-1.1-0.2-1.7-0.6c-0.6-0.4-0.9-1-0.9-1.7c0-1.6,1.1-3.5,3.4-5.8c2.2-2.2,4.3-3.3,6.2-3.3
	c0.7,0,1.2,0.3,1.5,0.8c0.1,0.2,0.1,0.3,0.2,0.4C308.4,13.9,308.4,14,308.4,14L308.4,14z M298.5,22.1c0,0.8,0.3,1.2,0.8,1.2
	c1.3,0,3-1.4,5.2-4.2l3.5-4.8c-0.2-0.3-0.5-0.5-0.9-0.5c-1.3,0-3.1,1-5.3,3.1C299.7,19,298.5,20.7,298.5,22.1L298.5,22.1z
	 M324.9,16.4c0,1.8-1,3.5-3.1,5.1c-2,1.6-3.8,2.4-5.3,2.4c-1,0-1.7-0.1-2.2-0.2c-0.5-0.1-1-0.5-1.5-1.2c-0.4,0.3-0.9,1.1-1.5,2.4
	c-0.6,1.3-1,2.3-1,3.2c0,0.4,0.2,1,0.6,1.6c0,0.1,0,0.2-0.1,0.3s-0.2,0.1-0.2,0.1h-0.1c-0.9-0.5-1.4-1.5-1.4-3c0-1.5,1.2-4,3.6-7.6
	c2.4-3.6,4.1-5.5,5-5.9c0.2,0,0.4-0.1,0.4-0.1c0.4,0,0.6,0.4,0.6,1.2c0.2-0.2,0.7-0.4,1.4-0.6c0.8-0.2,1.4-0.3,1.8-0.3
	c0.8,0,1.5,0.2,2.1,0.7C324.7,15,324.9,15.6,324.9,16.4L324.9,16.4z M323.3,16c0-0.8-0.5-1.3-1.5-1.3c-1,0-1.9,0.2-2.7,0.6
	c-0.4,0.2-1.4,1.1-3.1,2.9s-2.5,2.9-2.5,3.4c0,0.4,0.3,0.7,0.9,0.9c0.6,0.2,1.2,0.3,1.8,0.3c1.2,0,2.7-0.7,4.5-2.1
	C322.5,19.3,323.3,17.9,323.3,16L323.3,16z M334.2,23.7c-1.3,0-1.9-0.8-1.9-2.3c0-0.9,0.3-1.8,0.9-2.9c0.6-1,1.3-2.3,2.2-3.7
	c-2.8,1.4-5.4,3.5-7.7,6.2c-1.3,1.9-2,2.9-2.2,2.9c-0.6,0-1-0.2-1-0.6c0-0.2,0.1-0.5,0.4-1.1c2.1-3.8,3.8-6.6,4.9-8.3
	c2.6-4.2,4.5-6.5,5.5-6.8h0.1c0.3,0,0.5,0.2,0.6,0.7c-0.1,0.5-1.2,2.1-3.4,5c-2.3,2.9-3.6,4.8-3.9,5.7c0.8-0.6,2.2-1.6,4.3-3
	c2.2-1.5,3.6-2.3,4.3-2.3c0.7,0,1.1,0.3,1.1,0.8c0,0.1,0,0.1,0,0.2c0,0-0.8,1.1-2.3,3.1s-2.3,3.6-2.3,4.5c0,0.5,0.2,0.8,0.6,0.8
	c1.2,0,3-1.5,5.3-4.3c0.2-0.2,0.3-0.3,0.4-0.3s0.1,0.1,0.1,0.2c0,0.4-1.1,1.6-3.3,3.6C335.6,23.1,334.7,23.7,334.2,23.7z
	 M338.4,27.7c1.1,1.3,2,2,2.7,2c1.3,0,2.6-1,4.1-3c1.1-1.5,2.1-3.3,3.1-5.6l1.3-3l-4.9,3.8c-1.5,1.2-2.7,1.7-3.6,1.7
	c-0.5,0-0.9-0.2-1.2-0.5c-0.3-0.3-0.4-0.7-0.4-1.1c0-0.9,0.8-2.5,2.4-4.7s2.8-3.2,3.6-3.2c0.7,0,1.1,0.3,1.1,0.8
	c0,0.2-1,1.3-2.9,3.4c-1.9,2.1-2.9,3.5-2.9,4.2c0,0.3,0.2,0.4,0.6,0.4c0.7,0,2.1-0.8,4.2-2.5c2.1-1.6,3.7-3,4.8-4.1
	c0.2-0.3,0.6-0.7,1-1.3c0.4-0.5,0.9-0.7,1.4-0.7s0.8,0.2,0.8,0.7c0,0.1-0.5,0.9-1.5,2.3c-1,1.5-1.5,2.3-1.6,2.3
	c-0.7,1.3-1.7,3.2-3.1,5.8c-2.1,3.4-4.3,5.1-6.4,5.1c-0.7,0-1.3-0.3-1.8-0.9C338.7,29,338.4,28.4,338.4,27.7L338.4,27.7z"/>
</svg>
