<?xml version="1.0"?>
<svg version="1.1" xmlns="http://www.w3.org/2000/svg" width="400" height="60" style=""><path fill="#ffffff" d="M43.38,39.42l2.91-0.06q1.08,0,1.08,0.15q0,0.39-4.38,0.69q-2.79,5.46-2.79,7.44q0,1.38,0.87,1.38q0.33,0,0.825-0.405t0.6-0.405t0.105,0.15q-0.15,0.54-0.915,0.9t-1.29,0.36t-0.825-0.06q-0.72-0.27-0.72-1.74q0-3.03,2.31-7.71l-3.6,0.09q-4.02,3.93-8.07,6.9q-6.06,4.41-9.48,4.41q-0.21,0-0.42-0.03q-4.62-0.39-4.62-4.74q0-2.58,1.62-5.46q2.16-3.84,5.91-6.555t6.72-2.715t2.97,2.19q0,1.47-0.9,3.27t-1.83,2.28q-0.09,0.03-0.195,0.03t-0.105-0.06l0.99-1.62q1.02-1.59,1.02-2.79t-0.525-1.935t-1.665-0.735q-2.34,0-5.595,2.61t-4.95,6.42t-1.695,5.94q0,3.21,3.27,3.21q3.12,0,8.46-4.02q2.37-1.77,7.71-6.69q-1.05,0.06-1.95,0.21q-1.92,0.36-1.8-0.12q0.12-1.11,1.14-1.11q1.98,0.24,3.33,0.24q2.58-2.37,7.71-7.77q3.45-3.63,4.2-3.63q0.33,0,0.33,0.51t-0.27,1.59t-0.6,1.32q-0.69,0.48-1.29,1.305t-1.71,3.09t-1.89,3.675z M45.78,32.1l-7.68,7.2l1.77,0q0.63,0.03,1.56,0.03q0.87-1.71,4.35-7.23z M61.2651,47.64q-2.04,0-2.04-1.89q0-1.08,0.96-2.955t2.01-3.165q-1.86,0.9-4.29,3.255t-3.39,4.935q-0.15,0.24-0.51,0.24q-0.72,0-0.72-0.81q0.3-1.65,1.35-3.78q0.33-0.69,1.95-4.02q-2.34,1.53-3.975,3.285t-3.03,3.525t-1.575,1.77q-0.39,0-0.675-0.36t-0.285-0.72q0-0.54,1.56-3.96l-1.8,1.89q-0.66,0.66-0.825,0.66t-0.165-0.195t0.24-0.435q1.11-1.11,1.98-2.22t2.88-3.96q0.33-0.45,0.93-0.45t0.6,0.57q0,0.21-1.59,2.925t-1.77,3.405q1.23-1.35,3.69-3.63q3.69-3.42,4.86-3.42q0.36,0,0.66,0.21t0.3,0.465t-1.17,2.265q-1.14,2.07-1.26,2.46q3.33-2.79,3.33-2.82q2.82-2.19,4.05-2.19q0.36,0,0.675,0.225t0.315,0.525q0,0.06-1.95,2.535t-2.19,4.065q-0.06,0.54,0.21,0.81t0.975,0.27t2.07-0.975t2.775-2.625q0.54-0.6,0.735-0.6t0.195,0.15q0,0.21-0.27,0.48q-1.47,1.77-3.165,3.015t-2.655,1.245z M77.1402,39.03l0.42-0.09q0.33,0,0.63,0.27t0.3,0.42t-1.86,2.895t-1.86,3.825q0,0.09,0.03,0.18q0.15,0.69,0.66,0.69q1.56,0,5.7-5.16q0.09-0.12,0.21-0.12t0.12,0.225t-0.27,0.585q-3.84,5.13-5.85,5.13q-0.27,0-0.51-0.09q-1.32-0.51-1.32-1.98q0-0.51,0.12-1.02l-1.86,1.8q-1.77,1.56-2.565,1.56t-1.515-0.51q-0.81-0.6-0.81-1.59q0-2.19,3.06-5.235t5.61-3.045q0.99,0,1.32,0.69q0.09,0.24,0.15,0.405t0.09,0.165z M68.1702,46.41q0,1.08,0.75,1.08q1.74,0,4.74-3.81l3.18-4.38q-0.24-0.42-0.78-0.42q-1.83,0-4.86,2.835t-3.03,4.695z M85.6953,38.52q0.81,0,0.81,0.63q0,0.18-0.09,0.36q-2.7,3.75-3.24,5.67q6.99-6.99,8.49-6.99q0.15-0.03,0.27-0.03q0.84,0,0.84,0.75q0,0.15-0.06,0.3t-1.2,1.62q-1.32,1.56-2.235,3t-0.915,2.4t0.42,0.96q1.32,0,4.59-3.63q0.06-0.06,0.21-0.27q0.45-0.54,0.54-0.54t0.09,0.3t-0.42,0.78q-3.72,4.23-5.28,4.23q-1.47,0-1.47-1.62t1.2-3.72l1.92-3.12q-2.04,1.5-3.63,3.285t-2.895,3.465t-1.515,1.68q-0.45,0-0.705-0.375t-0.255-0.93t0.39-1.485t0.99-2.25l-1.8,1.89q-0.66,0.66-0.825,0.66t-0.165-0.195t0.24-0.435q1.11-1.11,1.92-2.13q0.78-1.02,3.21-3.9q0.27-0.36,0.57-0.36z M125.2755,35.16q-1.11,0.45-1.905,0.45t-0.795-0.33q0-0.21,0.885-0.24t1.275-0.21q1.14-0.6,1.14-1.77q0-0.6-0.33-1.26q-0.96-1.71-4.65-1.71q-2.13,0-4.26,0.645t-3.57,1.98t-1.44,2.475q0,1.74,3.45,2.55l3.54,0.66q2.13,0.39,3.18,1.08q1.38,0.84,1.38,2.4q0,0.63-0.21,1.35q-0.96,3.24-4.95,4.95q-3.33,1.47-7.86,1.47q-1.29,0-2.25-0.12q0.96,0.54,2.52,0.93q0.12,0.03,0.12,0.12q0,0.27-0.63,0.27q-1.23,0-3.06-1.47q-2.49-0.39-3.72-1.38q-0.78-0.63-1.44-1.86t-0.66-2.22t0.39-1.65q0.9-1.59,2.28-1.59q1.05,0,1.23,1.77q0.42,3.42,0.57,3.9q0.45,1.47,1.53,2.49q1.26,0.27,2.73,0.27q3.24,0,6.36-1.29t4.5-3.66q0.57-0.93,0.57-1.65q0-1.41-2.49-2.19l-5.28-1.2q-1.62-0.39-2.595-1.29t-0.975-2.07q0-1.8,2.25-3.6q1.71-1.38,4.185-2.145t4.86-0.765t3.945,0.69q2.01,0.93,2.01,2.715t-1.83,2.505z M105.9555,48.54q-1.74-1.92-2.22-5.25q-0.27-1.89-0.51-1.89t-0.45,0.135t-0.42,0.585t-0.21,1.17q0,2.31,1.62,3.96q0.81,0.84,2.19,1.29z M132.6756,36.045q0.405,0.285,0.405,0.675t-0.375,0.675t-0.825,0.285t-0.825-0.33t-0.375-0.75q0-0.84,1.14-0.84q0.45,0,0.855,0.285z M126.3906,48.33q-1.53,0-1.53-1.98q0-1.62,1.77-4.485t2.85-2.895q0.3,0,0.675,0.24t0.375,0.48q-0.15,0.21-0.36,0.465t-0.45,0.555t-0.66,0.855t-0.81,1.065q-2.25,2.91-2.25,4.005t0.75,1.095q0.63,0,1.71-0.69q2.52-1.56,3.99-3.42q0.54-0.69,0.735-0.69t0.195,0.24t-0.69,0.96t-1.095,1.14t-0.555,0.555t-0.555,0.51t-0.615,0.525t-0.6,0.45t-0.69,0.435t-0.69,0.315q-0.63,0.27-1.5,0.27z M138.2457,38.52q0.81,0,0.81,0.63q0,0.18-0.09,0.36q-2.7,3.75-3.24,5.67q6.99-6.99,8.49-6.99q0.15-0.03,0.27-0.03q0.84,0,0.84,0.75q0,0.15-0.06,0.3t-1.2,1.62q-1.32,1.56-2.235,3t-0.915,2.4t0.42,0.96q1.32,0,4.59-3.63q0.06-0.06,0.21-0.27q0.45-0.54,0.54-0.54t0.09,0.3t-0.42,0.78q-3.72,4.23-5.28,4.23q-1.47,0-1.47-1.62t1.2-3.72l1.92-3.12q-2.04,1.5-3.63,3.285t-2.895,3.465t-1.515,1.68q-0.45,0-0.705-0.375t-0.255-0.93t0.39-1.485t0.99-2.25l-1.8,1.89q-0.66,0.66-0.825,0.66t-0.165-0.195t0.24-0.435q1.11-1.11,1.92-2.13q0.78-1.02,3.21-3.9q0.27-0.36,0.57-0.36z M156.8508,38.85l0.42-0.09q0.39,0,0.615,0.24t0.225,0.375t-0.03,0.3t-0.87,1.515q-1.05,1.83-1.74,3.09q-2.43,4.53-3.72,6.21q-2.76,3.66-5.25,3.66q-0.87,0-1.515-0.735t-0.675-1.635q0.09-0.36,0.27-0.36q0.09,0,0.15,0.21q0.15,0.78,0.57,1.2t0.84,0.42q1.71,0,3.66-2.25q1.29-1.5,2.85-4.38l1.5-2.97l-2.25,2.28q-2.16,2.07-2.955,2.07t-1.515-0.54q-0.81-0.6-0.81-1.59q0-2.19,3.075-5.22t5.595-3.03q1.02,0,1.32,0.66q0.09,0.24,0.15,0.405t0.09,0.165z M147.8808,46.23q0,1.08,0.75,1.08q1.74,0,4.74-3.81l3.18-4.38q-0.18-0.42-0.75-0.42q-1.86,0-4.89,2.865t-3.03,4.665z M166.3659,47.88q-1.77,0-1.77-2.07q0-1.17,0.825-2.595t2.025-3.345q-3.84,1.92-6.96,5.67q-1.74,2.61-2.04,2.61q-0.87,0-0.87-0.51q0-0.27,0.36-0.96q2.91-5.19,4.41-7.59q3.57-5.73,5.04-6.21q0.06-0.03,0.12-0.03q0.39,0,0.54,0.63q-0.09,0.63-3.12,4.56q-3.15,3.99-3.57,5.22q1.11-0.81,3.87-2.73q2.97-2.07,3.93-2.07t0.96,0.75q0,0.12-0.015,0.165t-2.085,2.835t-2.07,4.11q0,0.69,0.51,0.69q1.62-0.06,4.86-3.9q0.27-0.27,0.405-0.27t0.135,0.18q0,0.6-2.97,3.24q-1.86,1.62-2.52,1.62z M215.0061,34.59q0,1.53-1.53,3.36t-4.635,2.97t-6.03,1.14t-4.635-0.75q-3.78,5.55-4.92,6.69q-3.24,3.24-7.74,3.24q-2.55,0-3.825-1.185t-1.275-3.075q0-2.61,2.1-4.92q2.31-2.55,5.82-2.55q1.44,0,2.43,0.66t0.99,2.01q0,0.9-1.02,2.16t-1.26,1.26q-0.06,0-0.06-0.12t0.09-0.24q0.96-1.41,0.96-2.595t-0.735-1.83t-1.815-0.645q-2.52,0-4.455,2.295t-1.935,4.635q0,1.5,0.945,2.43t2.925,0.93q3.69,0,6.33-2.49q1.53-1.44,3.09-4.2l2.61-4.71q1.92-3.09,4.47-9.18l-0.54,0q-4.05,0-8.13,0.885t-6.18,2.535q-0.9,0.69-0.9,1.35t0.705,1.065t1.665,0.405t2.385-0.375t2.145-1.005q0.3-0.24,0.42-0.24q0.24,0,0.09,0.24q-1.08,1.26-3.27,1.89q-1.35,0.39-2.67,0.39t-2.16-0.585t-0.84-1.59t1.08-2.025q2.04-1.98,7.29-2.94q3.72-0.66,8.55-0.66l0.81,0q0.66-0.57,1.2-0.57t0.54,0.42q0,0.09-0.03,0.21q4.65,0.33,7.53,1.56q3.42,1.44,3.42,3.75z M213.5961,34.29q0-1.89-3.06-3.09q-2.67-1.05-6.69-1.26l-0.96,3q-1.14,2.82-4.38,7.86q0.3,0.15,1.02,0.33q1.2,0.21,1.86,0.21q2.28,0,5.25-0.945t4.965-2.76t1.995-3.345z M219.2712,47.88q-1.77,0-1.77-2.07q0-1.17,0.825-2.595t2.025-3.345q-3.84,1.92-6.96,5.67q-1.74,2.61-2.04,2.61q-0.87,0-0.87-0.51q0-0.27,0.36-0.96q2.91-5.19,4.41-7.59q3.57-5.73,5.04-6.21q0.06-0.03,0.12-0.03q0.39,0,0.54,0.63q-0.09,0.63-3.12,4.56q-3.15,3.99-3.57,5.22q1.11-0.81,3.87-2.73q2.97-2.07,3.93-2.07t0.96,0.75q0,0.12-0.015,0.165t-2.085,2.835t-2.07,4.11q0,0.69,0.51,0.69q1.62-0.06,4.86-3.9q0.27-0.27,0.405-0.27t0.135,0.18q0,0.6-2.97,3.24q-1.86,1.62-2.52,1.62z M232.5963,41.64q0,1.05-2.01,3.51q-2.37,2.91-4.05,2.91l-0.48,0q-0.78,0-1.23-0.81q-0.36-0.57-0.36-1.26q0-1.8,2.625-5.055t4.245-3.255q1.53,0,1.53,1.62q0,0.42-0.15,1.08q0.03,0.09,0.57,0.09t1.65-0.57q-0.03,0.51-2.37,1.47q0.03,0.12,0.03,0.27z M230.6463,40.08q-1.02,0-2.895,2.4t-1.875,3.54t0.72,1.14q1.29,0,3.27-2.34t1.98-3.36q-0.48-0.27-1.2-1.38z M242.3514,38.34l4.32-0.06q0.09,0.06,0.09,0.09q0,0.27-3.735,0.75t-4.035,0.57q-0.57,0.51-2.1,3.045t-1.53,3.705q0,1.11,1.53,1.11q0.72,0,1.89-0.45t1.8-0.84q1.68-1.05,3.6-3.09q0.42-0.42,0.57-0.42q0.09,0,0.09,0.18t-0.45,0.72q-1.56,1.92-3.51,3.09q-2.34,1.44-4.47,1.44q-0.93,0-1.515-0.405t-0.585-1.635t1.08-3.375t1.65-3.195q-0.42,0.09-0.72,0.09q-0.87,0-0.87-0.69q0-0.51,0.72-0.72q0.09,0,0.27-0.03l1.74,0q0.54-0.69,1.23-1.59q0.84-1.08,1.14-1.08t0.75,0.24t0.45,0.57t-1.44,1.95q0.78,0.03,2.04,0.03z M252.5865,41.64q0,1.05-2.01,3.51q-2.37,2.91-4.05,2.91l-0.48,0q-0.78,0-1.23-0.81q-0.36-0.57-0.36-1.26q0-1.8,2.625-5.055t4.245-3.255q1.53,0,1.53,1.62q0,0.42-0.15,1.08q0.03,0.09,0.57,0.09t1.65-0.57q-0.03,0.51-2.37,1.47q0.03,0.12,0.03,0.27z M250.6365,40.08q-1.02,0-2.895,2.4t-1.875,3.54t0.72,1.14q1.29,0,3.27-2.34t1.98-3.36q-0.48-0.27-1.2-1.38z M264.5316,38.85l0.42-0.09q0.39,0,0.615,0.24t0.225,0.375t-0.03,0.3t-0.87,1.515q-1.05,1.83-1.74,3.09q-2.43,4.53-3.72,6.21q-2.76,3.66-5.25,3.66q-0.87,0-1.515-0.735t-0.675-1.635q0.09-0.36,0.27-0.36q0.09,0,0.15,0.21q0.15,0.78,0.57,1.2t0.84,0.42q1.71,0,3.66-2.25q1.29-1.5,2.85-4.38l1.5-2.97l-2.25,2.28q-2.16,2.07-2.955,2.07t-1.515-0.54q-0.81-0.6-0.81-1.59q0-2.19,3.075-5.22t5.595-3.03q1.02,0,1.32,0.66q0.09,0.24,0.15,0.405t0.09,0.165z M255.5616,46.23q0,1.08,0.75,1.08q1.74,0,4.74-3.81l3.18-4.38q-0.18-0.42-0.75-0.42q-1.86,0-4.89,2.865t-3.03,4.665z M273.0567,48.15q-2.25,0-2.25-2.49q0-1.26,0.66-2.76t1.44-2.52q-0.15,0.03-0.39,0.03q-0.72,0-1.2-1.02l-2.22,2.88q-1.86,2.31-2.16,2.31q-0.15,0-0.15-0.12q0-0.3,0.51-0.87q2.61-3.03,3.69-5.13q0.69-2.61,1.74-2.61q0.69,0,0.69,0.6t-0.75,1.53l-0.72,0.96q0,0.63,0.93,0.63q0.54,0,1.2-0.39l0.78-0.48q0.06-0.03,0.3-0.03t0.51,0.3t0.18,0.54l-2.07,2.61q-1.92,2.46-1.92,3.885t1.32,1.425q1.38,0,3.39-1.47q1.2-0.87,2.19-1.95q0.93-1.08,1.02-1.08q0.21,0,0.21,0.225t-0.27,0.525l-0.96,1.08q-0.81,0.84-1.8,1.62q-2.37,1.77-3.9,1.77z M290.0418,39.03l0.42-0.09q0.33,0,0.63,0.27t0.3,0.42t-1.86,2.895t-1.86,3.825q0,0.09,0.03,0.18q0.15,0.69,0.66,0.69q1.56,0,5.7-5.16q0.09-0.12,0.21-0.12t0.12,0.225t-0.27,0.585q-3.84,5.13-5.85,5.13q-0.27,0-0.51-0.09q-1.32-0.51-1.32-1.98q0-0.51,0.12-1.02l-1.86,1.8q-1.77,1.56-2.565,1.56t-1.515-0.51q-0.81-0.6-0.81-1.59q0-2.19,3.06-5.235t5.61-3.045q0.99,0,1.32,0.69q0.09,0.24,0.15,0.405t0.09,0.165z M281.0718,46.41q0,1.08,0.75,1.08q1.74,0,4.74-3.81l3.18-4.38q-0.24-0.42-0.78-0.42q-1.83,0-4.86,2.835t-3.03,4.695z M305.0769,41.22q0,2.43-2.775,4.605t-4.815,2.175q-1.35,0-1.965-0.18t-1.365-1.08q-0.51,0.42-1.38,2.145t-0.87,2.955q0,0.57,0.57,1.5q0.06,0.15-0.09,0.255t-0.225,0.105t-0.135-0.03q-1.26-0.69-1.26-2.685t3.315-6.9t4.575-5.325q0.3-0.06,0.39-0.06q0.51,0,0.51,1.11q0.3-0.3,1.23-0.57q1.14-0.3,1.62-0.3q1.08,0,1.875,0.615t0.795,1.665z M303.5469,40.92q0-1.14-1.35-1.14t-2.46,0.57q-0.51,0.24-2.82,2.64t-2.31,3.09q0,0.54,0.825,0.81t1.665,0.27q1.65,0,4.05-1.875t2.4-4.365z M313.512,47.88q-1.77,0-1.77-2.07q0-1.17,0.825-2.595t2.025-3.345q-3.84,1.92-6.96,5.67q-1.74,2.61-2.04,2.61q-0.87,0-0.87-0.51q0-0.27,0.36-0.96q2.91-5.19,4.41-7.59q3.57-5.73,5.04-6.21q0.06-0.03,0.12-0.03q0.39,0,0.54,0.63q-0.09,0.63-3.12,4.56q-3.15,3.99-3.57,5.22q1.11-0.81,3.87-2.73q2.97-2.07,3.93-2.07t0.96,0.75q0,0.12-0.015,0.165t-2.085,2.835t-2.07,4.11q0,0.69,0.51,0.69q1.62-0.06,4.86-3.9q0.27-0.27,0.405-0.27t0.135,0.18q0,0.6-2.97,3.24q-1.86,1.62-2.52,1.62z M317.3271,51.48q1.44,1.8,2.49,1.8q1.71,0,3.69-2.73q1.44-2.01,2.82-5.07l1.14-2.76l-4.41,3.45q-2.04,1.59-3.27,1.59q-0.66,0-1.05-0.45t-0.39-1.02q0-1.29,2.22-4.245t3.24-2.955t1.02,0.69q0,0.27-2.655,3.105t-2.655,3.825q0,0.39,0.51,0.39q0.96,0,3.855-2.25t4.365-3.72q0.33-0.39,0.93-1.17q0.57-0.66,1.26-0.66t0.69,0.66q0,0.12-1.35,2.13t-1.41,2.13q-0.93,1.8-2.85,5.25q-2.91,4.68-5.82,4.68q-0.96,0-1.68-0.825t-0.69-1.845z"/><path fill="#" d=""/></svg>
