<?xml version="1.0"?>
<svg version="1.1" xmlns="http://www.w3.org/2000/svg" width="458" height="98" style=""><path fill="#ffffff" d="M50.948,60.932l3.686-0.076q1.368,0,1.368,0.19q0,0.494-5.548,0.874q-3.534,6.916-3.534,9.424q0,1.748,1.102,1.748q0.418,0,1.045-0.513t0.76-0.513t0.133,0.19q-0.19,0.684-1.159,1.14t-1.634,0.456t-1.045-0.076q-0.912-0.342-0.912-2.204q0-3.838,2.926-9.766l-4.56,0.114q-5.092,4.978-10.222,8.74q-7.676,5.586-12.008,5.586q-0.266,0-0.532-0.038q-5.852-0.494-5.852-6.004q0-3.268,2.052-6.916q2.736-4.864,7.486-8.303t8.512-3.439t3.762,2.774q0,1.862-1.14,4.142t-2.318,2.888q-0.114,0.038-0.247,0.038t-0.133-0.076l1.254-2.052q1.292-2.014,1.292-3.534t-0.665-2.451t-2.109-0.931q-2.964,0-7.087,3.306t-6.27,8.132t-2.147,7.524q0,4.066,4.142,4.066q3.952,0,10.716-5.092q3.002-2.242,9.766-8.474q-1.33,0.076-2.47,0.266q-2.432,0.456-2.28-0.152q0.152-1.406,1.444-1.406q2.508,0.304,4.218,0.304q3.268-3.002,9.766-9.842q4.37-4.598,5.32-4.598q0.418,0,0.418,0.646t-0.342,2.014t-0.76,1.672q-0.874,0.608-1.634,1.653t-2.166,3.914t-2.394,4.655z M53.988,51.66l-9.728,9.12l2.242,0q0.798,0.038,1.976,0.038q1.102-2.166,5.51-9.158z M73.60246,71.344q-2.584,0-2.584-2.394q0-1.368,1.216-3.743t2.546-4.009q-2.356,1.14-5.434,4.123t-4.294,6.251q-0.19,0.304-0.646,0.304q-0.912,0-0.912-1.026q0.38-2.09,1.71-4.788q0.418-0.874,2.47-5.092q-2.964,1.938-5.035,4.161t-3.838,4.465t-1.995,2.242q-0.494,0-0.855-0.456t-0.361-0.912q0-0.684,1.976-5.016l-2.28,2.394q-0.836,0.836-1.045,0.836t-0.209-0.247t0.304-0.551q1.406-1.406,2.508-2.812t3.648-5.016q0.418-0.57,1.178-0.57t0.76,0.722q0,0.266-2.014,3.705t-2.242,4.313q1.558-1.71,4.674-4.598q4.674-4.332,6.156-4.332q0.456,0,0.836,0.266t0.38,0.589t-1.482,2.869q-1.444,2.622-1.596,3.116q4.218-3.534,4.218-3.572q3.572-2.774,5.13-2.774q0.456,0,0.855,0.285t0.399,0.665q0,0.076-2.47,3.211t-2.774,5.149q-0.076,0.684,0.266,1.026t1.235,0.342t2.622-1.235t3.515-3.325q0.684-0.76,0.931-0.76t0.247,0.19q0,0.266-0.342,0.608q-1.862,2.242-4.009,3.819t-3.363,1.577z M93.71092,60.438l0.532-0.114q0.418,0,0.798,0.342t0.38,0.532t-2.356,3.667t-2.356,4.845q0,0.114,0.038,0.228q0.19,0.874,0.836,0.874q1.976,0,7.22-6.536q0.114-0.152,0.266-0.152t0.152,0.285t-0.342,0.741q-4.864,6.498-7.41,6.498q-0.342,0-0.646-0.114q-1.672-0.646-1.672-2.508q0-0.646,0.152-1.292l-2.356,2.28q-2.242,1.976-3.249,1.976t-1.919-0.646q-1.026-0.76-1.026-2.014q0-2.774,3.876-6.631t7.106-3.857q1.254,0,1.672,0.874q0.114,0.304,0.19,0.513t0.114,0.209z M82.34892,69.786q0,1.368,0.95,1.368q2.204,0,6.004-4.826l4.028-5.548q-0.304-0.532-0.988-0.532q-2.318,0-6.156,3.591t-3.838,5.947z M104.54738,59.792q1.026,0,1.026,0.798q0,0.228-0.114,0.456q-3.42,4.75-4.104,7.182q8.854-8.854,10.754-8.854q0.19-0.038,0.342-0.038q1.064,0,1.064,0.95q0,0.19-0.076,0.38t-1.52,2.052q-1.672,1.976-2.831,3.8t-1.159,3.04t0.532,1.216q1.672,0,5.814-4.598q0.076-0.076,0.266-0.342q0.57-0.684,0.684-0.684t0.114,0.38t-0.532,0.988q-4.712,5.358-6.688,5.358q-1.862,0-1.862-2.052t1.52-4.712l2.432-3.952q-2.584,1.9-4.598,4.161t-3.667,4.389t-1.919,2.128q-0.57,0-0.893-0.475t-0.323-1.178t0.494-1.881t1.254-2.85l-2.28,2.394q-0.836,0.836-1.045,0.836t-0.209-0.247t0.304-0.551q1.406-1.406,2.432-2.698q0.988-1.292,4.066-4.94q0.342-0.456,0.722-0.456z M154.6823,55.536q-1.406,0.57-2.413,0.57t-1.007-0.418q0-0.266,1.121-0.304t1.615-0.266q1.444-0.76,1.444-2.242q0-0.76-0.418-1.596q-1.216-2.166-5.89-2.166q-2.698,0-5.396,0.817t-4.522,2.508t-1.824,3.135q0,2.204,4.37,3.23l4.484,0.836q2.698,0.494,4.028,1.368q1.748,1.064,1.748,3.04q0,0.798-0.266,1.71q-1.216,4.104-6.27,6.27q-4.218,1.862-9.956,1.862q-1.634,0-2.85-0.152q1.216,0.684,3.192,1.178q0.152,0.038,0.152,0.152q0,0.342-0.798,0.342q-1.558,0-3.876-1.862q-3.154-0.494-4.712-1.748q-0.988-0.798-1.824-2.356t-0.836-2.812t0.494-2.09q1.14-2.014,2.888-2.014q1.33,0,1.558,2.242q0.532,4.332,0.722,4.94q0.57,1.862,1.938,3.154q1.596,0.342,3.458,0.342q4.104,0,8.056-1.634t5.7-4.636q0.722-1.178,0.722-2.09q0-1.786-3.154-2.774l-6.688-1.52q-2.052-0.494-3.287-1.634t-1.235-2.622q0-2.28,2.85-4.56q2.166-1.748,5.301-2.717t6.156-0.969t4.997,0.874q2.546,1.178,2.546,3.439t-2.318,3.173z M130.2103,72.484q-2.204-2.432-2.812-6.65q-0.342-2.394-0.646-2.394t-0.57,0.171t-0.532,0.741t-0.266,1.482q0,2.926,2.052,5.016q1.026,1.064,2.774,1.634z M164.05576,56.657q0.513,0.361,0.513,0.855t-0.475,0.855t-1.045,0.361t-1.045-0.418t-0.475-0.95q0-1.064,1.444-1.064q0.57,0,1.083,0.361z M156.09476,72.218q-1.938,0-1.938-2.508q0-2.052,2.242-5.681t3.61-3.667q0.38,0,0.855,0.304t0.475,0.608q-0.19,0.266-0.456,0.589t-0.57,0.703t-0.836,1.083t-1.026,1.349q-2.85,3.686-2.85,5.073t0.95,1.387q0.798,0,2.166-0.874q3.192-1.976,5.054-4.332q0.684-0.874,0.931-0.874t0.247,0.304t-0.874,1.216t-1.387,1.444t-0.703,0.703t-0.703,0.646t-0.779,0.665t-0.76,0.57t-0.874,0.551t-0.874,0.399q-0.798,0.342-1.9,0.342z M171.11122,59.792q1.026,0,1.026,0.798q0,0.228-0.114,0.456q-3.42,4.75-4.104,7.182q8.854-8.854,10.754-8.854q0.19-0.038,0.342-0.038q1.064,0,1.064,0.95q0,0.19-0.076,0.38t-1.52,2.052q-1.672,1.976-2.831,3.8t-1.159,3.04t0.532,1.216q1.672,0,5.814-4.598q0.076-0.076,0.266-0.342q0.57-0.684,0.684-0.684t0.114,0.38t-0.532,0.988q-4.712,5.358-6.688,5.358q-1.862,0-1.862-2.052t1.52-4.712l2.432-3.952q-2.584,1.9-4.598,4.161t-3.667,4.389t-1.919,2.128q-0.57,0-0.893-0.475t-0.323-1.178t0.494-1.881t1.254-2.85l-2.28,2.394q-0.836,0.836-1.045,0.836t-0.209-0.247t0.304-0.551q1.406-1.406,2.432-2.698q0.988-1.292,4.066-4.94q0.342-0.456,0.722-0.456z M194.67768,60.21l0.532-0.114q0.494,0,0.779,0.304t0.285,0.475t-0.038,0.38t-1.102,1.919q-1.33,2.318-2.204,3.914q-3.078,5.738-4.712,7.866q-3.496,4.636-6.65,4.636q-1.102,0-1.919-0.931t-0.855-2.071q0.114-0.456,0.342-0.456q0.114,0,0.19,0.266q0.19,0.988,0.722,1.52t1.064,0.532q2.166,0,4.636-2.85q1.634-1.9,3.61-5.548l1.9-3.762l-2.85,2.888q-2.736,2.622-3.743,2.622t-1.919-0.684q-1.026-0.76-1.026-2.014q0-2.774,3.895-6.612t7.087-3.838q1.292,0,1.672,0.836q0.114,0.304,0.19,0.513t0.114,0.209z M183.31568,69.558q0,1.368,0.95,1.368q2.204,0,6.004-4.826l4.028-5.548q-0.228-0.532-0.95-0.532q-2.356,0-6.194,3.629t-3.838,5.909z M206.73014,71.648q-2.242,0-2.242-2.622q0-1.482,1.045-3.287t2.565-4.237q-4.864,2.432-8.816,7.182q-2.204,3.306-2.584,3.306q-1.102,0-1.102-0.646q0-0.342,0.456-1.216q3.686-6.574,5.586-9.614q4.522-7.258,6.384-7.866q0.076-0.038,0.152-0.038q0.494,0,0.684,0.798q-0.114,0.798-3.952,5.776q-3.99,5.054-4.522,6.612q1.406-1.026,4.902-3.458q3.762-2.622,4.978-2.622t1.216,0.95q0,0.152-0.019,0.209t-2.641,3.591t-2.622,5.206q0,0.874,0.646,0.874q2.052-0.076,6.156-4.94q0.342-0.342,0.513-0.342t0.171,0.228q0,0.76-3.762,4.104q-2.356,2.052-3.192,2.052z M268.34106,54.814q0,1.938-1.938,4.256t-5.871,3.762t-7.638,1.444t-5.871-0.95q-4.788,7.03-6.232,8.474q-4.104,4.104-9.804,4.104q-3.23,0-4.845-1.501t-1.615-3.895q0-3.306,2.66-6.232q2.926-3.23,7.372-3.23q1.824,0,3.078,0.836t1.254,2.546q0,1.14-1.292,2.736t-1.596,1.596q-0.076,0-0.076-0.152t0.114-0.304q1.216-1.786,1.216-3.287t-0.931-2.318t-2.299-0.817q-3.192,0-5.643,2.907t-2.451,5.871q0,1.9,1.197,3.078t3.705,1.178q4.674,0,8.018-3.154q1.938-1.824,3.914-5.32l3.306-5.966q2.432-3.914,5.662-11.628l-0.684,0q-5.13,0-10.298,1.121t-7.828,3.211q-1.14,0.874-1.14,1.71t0.893,1.349t2.109,0.513t3.021-0.475t2.717-1.273q0.38-0.304,0.532-0.304q0.304,0,0.114,0.304q-1.368,1.596-4.142,2.394q-1.71,0.494-3.382,0.494t-2.736-0.741t-1.064-2.014t1.368-2.565q2.584-2.508,9.234-3.724q4.712-0.836,10.83-0.836l1.026,0q0.836-0.722,1.52-0.722t0.684,0.532q0,0.114-0.038,0.266q5.89,0.418,9.538,1.976q4.332,1.824,4.332,4.75z M266.55506,54.434q0-2.394-3.876-3.914q-3.382-1.33-8.474-1.596l-1.216,3.8q-1.444,3.572-5.548,9.956q0.38,0.19,1.292,0.418q1.52,0.266,2.356,0.266q2.888,0,6.65-1.197t6.289-3.496t2.527-4.237z M273.74352,71.648q-2.242,0-2.242-2.622q0-1.482,1.045-3.287t2.565-4.237q-4.864,2.432-8.816,7.182q-2.204,3.306-2.584,3.306q-1.102,0-1.102-0.646q0-0.342,0.456-1.216q3.686-6.574,5.586-9.614q4.522-7.258,6.384-7.866q0.076-0.038,0.152-0.038q0.494,0,0.684,0.798q-0.114,0.798-3.952,5.776q-3.99,5.054-4.522,6.612q1.406-1.026,4.902-3.458q3.762-2.622,4.978-2.622t1.216,0.95q0,0.152-0.019,0.209t-2.641,3.591t-2.622,5.206q0,0.874,0.646,0.874q2.052-0.076,6.156-4.94q0.342-0.342,0.513-0.342t0.171,0.228q0,0.76-3.762,4.104q-2.356,2.052-3.192,2.052z M290.62198,63.744q0,1.33-2.546,4.446q-3.002,3.686-5.13,3.686l-0.608,0q-0.988,0-1.558-1.026q-0.456-0.722-0.456-1.596q0-2.28,3.325-6.403t5.377-4.123q1.938,0,1.938,2.052q0,0.532-0.19,1.368q0.038,0.114,0.722,0.114t2.09-0.722q-0.038,0.646-3.002,1.862q0.038,0.152,0.038,0.342z M288.15198,61.768q-1.292,0-3.667,3.04t-2.375,4.484t0.912,1.444q1.634,0,4.142-2.964t2.508-4.256q-0.608-0.342-1.52-1.748z M302.97844,59.564l5.472-0.076q0.114,0.076,0.114,0.114q0,0.342-4.731,0.95t-5.111,0.722q-0.722,0.646-2.66,3.857t-1.938,4.693q0,1.406,1.938,1.406q0.912,0,2.394-0.57t2.28-1.064q2.128-1.33,4.56-3.914q0.532-0.532,0.722-0.532q0.114,0,0.114,0.228t-0.57,0.912q-1.976,2.432-4.446,3.914q-2.964,1.824-5.662,1.824q-1.178,0-1.919-0.513t-0.741-2.071t1.368-4.275t2.09-4.047q-0.532,0.114-0.912,0.114q-1.102,0-1.102-0.874q0-0.646,0.912-0.912q0.114,0,0.342-0.038l2.204,0q0.684-0.874,1.558-2.014q1.064-1.368,1.444-1.368t0.95,0.304t0.57,0.722t-1.824,2.47q0.988,0.038,2.584,0.038z M315.9429,63.744q0,1.33-2.546,4.446q-3.002,3.686-5.13,3.686l-0.608,0q-0.988,0-1.558-1.026q-0.456-0.722-0.456-1.596q0-2.28,3.325-6.403t5.377-4.123q1.938,0,1.938,2.052q0,0.532-0.19,1.368q0.038,0.114,0.722,0.114t2.09-0.722q-0.038,0.646-3.002,1.862q0.038,0.152,0.038,0.342z M313.4729,61.768q-1.292,0-3.667,3.04t-2.375,4.484t0.912,1.444q1.634,0,4.142-2.964t2.508-4.256q-0.608-0.342-1.52-1.748z M331.07336,60.21l0.532-0.114q0.494,0,0.779,0.304t0.285,0.475t-0.038,0.38t-1.102,1.919q-1.33,2.318-2.204,3.914q-3.078,5.738-4.712,7.866q-3.496,4.636-6.65,4.636q-1.102,0-1.919-0.931t-0.855-2.071q0.114-0.456,0.342-0.456q0.114,0,0.19,0.266q0.19,0.988,0.722,1.52t1.064,0.532q2.166,0,4.636-2.85q1.634-1.9,3.61-5.548l1.9-3.762l-2.85,2.888q-2.736,2.622-3.743,2.622t-1.919-0.684q-1.026-0.76-1.026-2.014q0-2.774,3.895-6.612t7.087-3.838q1.292,0,1.672,0.836q0.114,0.304,0.19,0.513t0.114,0.209z M319.71136,69.558q0,1.368,0.95,1.368q2.204,0,6.004-4.826l4.028-5.548q-0.228-0.532-0.95-0.532q-2.356,0-6.194,3.629t-3.838,5.909z M341.87182,71.99q-2.85,0-2.85-3.154q0-1.596,0.836-3.496t1.824-3.192q-0.19,0.038-0.494,0.038q-0.912,0-1.52-1.292l-2.812,3.648q-2.356,2.926-2.736,2.926q-0.19,0-0.19-0.152q0-0.38,0.646-1.102q3.306-3.838,4.674-6.498q0.874-3.306,2.204-3.306q0.874,0,0.874,0.76t-0.95,1.938l-0.912,1.216q0,0.798,1.178,0.798q0.684,0,1.52-0.494l0.988-0.608q0.076-0.038,0.38-0.038t0.646,0.38t0.228,0.684l-2.622,3.306q-2.432,3.116-2.432,4.921t1.672,1.805q1.748,0,4.294-1.862q1.52-1.102,2.774-2.47q1.178-1.368,1.292-1.368q0.266,0,0.266,0.285t-0.342,0.665l-1.216,1.368q-1.026,1.064-2.28,2.052q-3.002,2.242-4.94,2.242z M363.38628,60.438l0.532-0.114q0.418,0,0.798,0.342t0.38,0.532t-2.356,3.667t-2.356,4.845q0,0.114,0.038,0.228q0.19,0.874,0.836,0.874q1.976,0,7.22-6.536q0.114-0.152,0.266-0.152t0.152,0.285t-0.342,0.741q-4.864,6.498-7.41,6.498q-0.342,0-0.646-0.114q-1.672-0.646-1.672-2.508q0-0.646,0.152-1.292l-2.356,2.28q-2.242,1.976-3.249,1.976t-1.919-0.646q-1.026-0.76-1.026-2.014q0-2.774,3.876-6.631t7.106-3.857q1.254,0,1.672,0.874q0.114,0.304,0.19,0.513t0.114,0.209z M352.02428,69.786q0,1.368,0.95,1.368q2.204,0,6.004-4.826l4.028-5.548q-0.304-0.532-0.988-0.532q-2.318,0-6.156,3.591t-3.838,5.947z M382.43074,63.212q0,3.078-3.515,5.833t-6.099,2.755q-1.71,0-2.489-0.228t-1.729-1.368q-0.646,0.532-1.748,2.717t-1.102,3.743q0,0.722,0.722,1.9q0.076,0.19-0.114,0.323t-0.285,0.133t-0.171-0.038q-1.596-0.874-1.596-3.401t4.199-8.74t5.795-6.745q0.38-0.076,0.494-0.076q0.646,0,0.646,1.406q0.38-0.38,1.558-0.722q1.444-0.38,2.052-0.38q1.368,0,2.375,0.779t1.007,2.109z M380.49274,62.832q0-1.444-1.71-1.444t-3.116,0.722q-0.646,0.304-3.572,3.344t-2.926,3.914q0,0.684,1.045,1.026t2.109,0.342q2.09,0,5.13-2.375t3.04-5.529z M393.1152,71.648q-2.242,0-2.242-2.622q0-1.482,1.045-3.287t2.565-4.237q-4.864,2.432-8.816,7.182q-2.204,3.306-2.584,3.306q-1.102,0-1.102-0.646q0-0.342,0.456-1.216q3.686-6.574,5.586-9.614q4.522-7.258,6.384-7.866q0.076-0.038,0.152-0.038q0.494,0,0.684,0.798q-0.114,0.798-3.952,5.776q-3.99,5.054-4.522,6.612q1.406-1.026,4.902-3.458q3.762-2.622,4.978-2.622t1.216,0.95q0,0.152-0.019,0.209t-2.641,3.591t-2.622,5.206q0,0.874,0.646,0.874q2.052-0.076,6.156-4.94q0.342-0.342,0.513-0.342t0.171,0.228q0,0.76-3.762,4.104q-2.356,2.052-3.192,2.052z M397.94766,76.208q1.824,2.28,3.154,2.28q2.166,0,4.674-3.458q1.824-2.546,3.572-6.422l1.444-3.496l-5.586,4.37q-2.584,2.014-4.142,2.014q-0.836,0-1.33-0.57t-0.494-1.292q0-1.634,2.812-5.377t4.104-3.743t1.292,0.874q0,0.342-3.363,3.933t-3.363,4.845q0,0.494,0.646,0.494q1.216,0,4.883-2.85t5.529-4.712q0.418-0.494,1.178-1.482q0.722-0.836,1.596-0.836t0.874,0.836q0,0.152-1.71,2.698t-1.786,2.698q-1.178,2.28-3.61,6.65q-3.686,5.928-7.372,5.928q-1.216,0-2.128-1.045t-0.874-2.337z"/><path fill="#" d=""/></svg>
