<?xml version="1.0" encoding="utf-8"?>
<!-- Generator: Adobe Illustrator 25.2.1, SVG Export Plug-In . SVG Version: 6.00 Build 0)  -->
<svg version="1.1" id="Layer_1" xmlns="http://www.w3.org/2000/svg" xmlns:xlink="http://www.w3.org/1999/xlink" x="0px" y="0px"
	 viewBox="0 0 400 60" style="enable-background:new 0 0 400 60;" xml:space="preserve">
<style type="text/css">
	.st0{fill:#FFFFFF;}
</style>
<path class="st0" d="M35.4,18.1l2.9-0.1c0.7,0,1.1,0.1,1.1,0.2c0,0.3-1.5,0.5-4.4,0.7c-1.9,3.6-2.8,6.1-2.8,7.4
	c0,0.9,0.3,1.4,0.9,1.4c0.2,0,0.5-0.1,0.8-0.4c0.3-0.3,0.5-0.4,0.6-0.4c0.1,0,0.1,0,0.1,0.2c-0.1,0.4-0.4,0.7-0.9,0.9
	c-0.5,0.2-0.9,0.4-1.3,0.4c-0.4,0-0.6,0-0.8-0.1c-0.5-0.2-0.7-0.8-0.7-1.7c0-2,0.8-4.6,2.3-7.7l-3.6,0.1c-2.7,2.6-5.4,4.9-8.1,6.9
	c-4,2.9-7.2,4.4-9.5,4.4c-0.1,0-0.3,0-0.4,0C8.5,29.9,7,28.3,7,25.4c0-1.7,0.5-3.5,1.6-5.5c1.4-2.6,3.4-4.7,5.9-6.6s4.7-2.7,6.7-2.7
	s3,0.7,3,2.2c0,1-0.3,2.1-0.9,3.3c-0.6,1.2-1.2,2-1.8,2.3c-0.1,0-0.1,0-0.2,0s-0.1,0-0.1-0.1l1-1.6c0.7-1.1,1-2,1-2.8
	c0-0.8-0.2-1.4-0.5-1.9s-0.9-0.7-1.7-0.7c-1.6,0-3.4,0.9-5.6,2.6s-3.8,3.9-4.9,6.4s-1.7,4.5-1.7,5.9c0,2.1,1.1,3.2,3.3,3.2
	c2.1,0,4.9-1.3,8.5-4c1.6-1.2,4.1-3.4,7.7-6.7c-0.7,0-1.3,0.1-2,0.2c-1.3,0.2-1.9,0.2-1.8-0.1c0.1-0.7,0.5-1.1,1.1-1.1
	c1.3,0.2,2.4,0.2,3.3,0.2c1.7-1.6,4.3-4.2,7.7-7.8c2.3-2.4,3.7-3.6,4.2-3.6c0.2,0,0.3,0.2,0.3,0.5S41.1,8,40.9,8.7
	c-0.2,0.7-0.4,1.2-0.6,1.3c-0.5,0.3-0.9,0.8-1.3,1.3c-0.4,0.6-1,1.6-1.7,3.1S35.9,17.2,35.4,18.1z M37.8,10.8L30.1,18h1.8
	c0.4,0,0.9,0,1.6,0C34,16.9,35.5,14.5,37.8,10.8z M53.3,26.3c-1.4,0-2-0.6-2-1.9c0-0.7,0.3-1.7,1-3c0.6-1.2,1.3-2.3,2-3.2
	c-1.2,0.6-2.7,1.7-4.3,3.3c-1.6,1.6-2.8,3.2-3.4,4.9c-0.1,0.2-0.3,0.2-0.5,0.2c-0.5,0-0.7-0.3-0.7-0.8c0.2-1.1,0.6-2.4,1.3-3.8
	c0.2-0.5,0.9-1.8,2-4c-1.6,1-2.9,2.1-4,3.3c-1.1,1.2-2.1,2.3-3,3.5s-1.5,1.8-1.6,1.8c-0.3,0-0.5-0.1-0.7-0.4
	c-0.2-0.2-0.3-0.5-0.3-0.7c0-0.4,0.5-1.7,1.6-4l-1.8,1.9c-0.4,0.4-0.7,0.7-0.8,0.7c-0.1,0-0.2-0.1-0.2-0.2s0.1-0.3,0.2-0.4
	c0.7-0.7,1.4-1.5,2-2.2c0.6-0.7,1.5-2.1,2.9-4c0.2-0.3,0.5-0.5,0.9-0.5c0.4,0,0.6,0.2,0.6,0.6c0,0.1-0.5,1.1-1.6,2.9
	c-1.1,1.8-1.7,2.9-1.8,3.4c0.8-0.9,2-2.1,3.7-3.6c2.5-2.3,4.1-3.4,4.9-3.4c0.2,0,0.5,0.1,0.7,0.2s0.3,0.3,0.3,0.5
	c0,0.2-0.4,0.9-1.2,2.3c-0.8,1.4-1.2,2.2-1.3,2.5c2.2-1.9,3.3-2.8,3.3-2.8c1.9-1.5,3.2-2.2,4-2.2c0.2,0,0.5,0.1,0.7,0.2
	c0.2,0.1,0.3,0.3,0.3,0.5c0,0-0.7,0.9-2,2.5c-1.3,1.7-2,3-2.2,4.1c0,0.4,0,0.6,0.2,0.8s0.5,0.3,1,0.3s1.2-0.3,2.1-1
	c0.9-0.6,1.8-1.5,2.8-2.6c0.4-0.4,0.6-0.6,0.7-0.6c0.1,0,0.2,0,0.2,0.2c0,0.1-0.1,0.3-0.3,0.5c-1,1.2-2,2.2-3.2,3
	C54.8,25.9,53.9,26.3,53.3,26.3z M69.2,17.7l0.4-0.1c0.2,0,0.4,0.1,0.6,0.3s0.3,0.3,0.3,0.4c0,0.1-0.6,1.1-1.9,2.9s-1.9,3.1-1.9,3.8
	c0,0.1,0,0.1,0,0.2c0.1,0.5,0.3,0.7,0.7,0.7c1,0,2.9-1.7,5.7-5.2c0.1-0.1,0.1-0.1,0.2-0.1s0.1,0.1,0.1,0.2c0,0.2-0.1,0.3-0.3,0.6
	c-2.6,3.4-4.5,5.1-5.8,5.1c-0.2,0-0.3,0-0.5-0.1c-0.9-0.3-1.3-1-1.3-2c0-0.3,0-0.7,0.1-1l-1.9,1.8c-1.2,1-2,1.6-2.6,1.6
	s-1-0.2-1.5-0.5c-0.5-0.4-0.8-0.9-0.8-1.6c0-1.5,1-3.2,3.1-5.2c2-2,3.9-3,5.6-3c0.7,0,1.1,0.2,1.3,0.7c0.1,0.2,0.1,0.3,0.2,0.4
	C69.1,17.7,69.1,17.7,69.2,17.7z M60.2,25.1c0,0.7,0.2,1.1,0.8,1.1c1.2,0,2.7-1.3,4.7-3.8l3.2-4.4c-0.2-0.3-0.4-0.4-0.8-0.4
	c-1.2,0-2.8,0.9-4.9,2.8S60.2,23.9,60.2,25.1z M77.7,17.2c0.5,0,0.8,0.2,0.8,0.6c0,0.1,0,0.2-0.1,0.4c-1.8,2.5-2.9,4.4-3.2,5.7
	c4.7-4.7,7.5-7,8.5-7c0.1,0,0.2,0,0.3,0c0.6,0,0.8,0.2,0.8,0.8c0,0.1,0,0.2-0.1,0.3c0,0.1-0.4,0.6-1.2,1.6c-0.9,1-1.6,2-2.2,3
	s-0.9,1.8-0.9,2.4s0.1,1,0.4,1c0.9,0,2.4-1.2,4.6-3.6c0,0,0.1-0.1,0.2-0.3c0.3-0.4,0.5-0.5,0.5-0.5s0.1,0.1,0.1,0.3
	c0,0.2-0.1,0.5-0.4,0.8c-2.5,2.8-4.2,4.2-5.3,4.2c-1,0-1.5-0.5-1.5-1.6c0-1.1,0.4-2.3,1.2-3.7l1.9-3.1c-1.4,1-2.6,2.1-3.6,3.3
	c-1.1,1.2-2,2.3-2.9,3.5c-0.9,1.1-1.4,1.7-1.5,1.7c-0.3,0-0.5-0.1-0.7-0.4s-0.3-0.6-0.3-0.9c0-0.4,0.1-0.9,0.4-1.5
	c0.3-0.6,0.6-1.4,1-2.2l-1.8,1.9c-0.4,0.4-0.7,0.7-0.8,0.7s-0.2-0.1-0.2-0.2c0-0.1,0.1-0.3,0.2-0.4c0.7-0.7,1.4-1.5,1.9-2.1
	c0.5-0.7,1.6-2,3.2-3.9C77.3,17.3,77.5,17.2,77.7,17.2L77.7,17.2z M117.3,13.9c-0.7,0.3-1.4,0.5-1.9,0.5c-0.5,0-0.8-0.1-0.8-0.3
	c0-0.1,0.3-0.2,0.9-0.2c0.6,0,1-0.1,1.3-0.2c0.8-0.4,1.1-1,1.1-1.8c0-0.4-0.1-0.8-0.3-1.3c-0.6-1.1-2.2-1.7-4.7-1.7
	c-1.4,0-2.8,0.2-4.3,0.6c-1.4,0.4-2.6,1.1-3.6,2c-1,0.9-1.4,1.7-1.4,2.5c0,1.2,1.1,2,3.4,2.5l3.5,0.7c1.4,0.3,2.5,0.6,3.2,1.1
	c0.9,0.6,1.4,1.4,1.4,2.4c0,0.4-0.1,0.9-0.2,1.3c-0.6,2.2-2.3,3.8-4.9,5c-2.2,1-4.8,1.5-7.9,1.5c-0.9,0-1.6,0-2.2-0.1
	c0.6,0.4,1.5,0.7,2.5,0.9c0.1,0,0.1,0.1,0.1,0.1c0,0.2-0.2,0.3-0.6,0.3c-0.8,0-1.8-0.5-3.1-1.5c-1.7-0.3-2.9-0.7-3.7-1.4
	c-0.5-0.4-1-1-1.4-1.9S93,23.3,93,22.6c0-0.7,0.1-1.2,0.4-1.7c0.6-1.1,1.4-1.6,2.3-1.6c0.7,0,1.1,0.6,1.2,1.8
	c0.3,2.3,0.5,3.6,0.6,3.9c0.3,1,0.8,1.8,1.5,2.5c0.8,0.2,1.8,0.3,2.7,0.3c2.2,0,4.3-0.4,6.4-1.3s3.6-2.1,4.5-3.7
	c0.4-0.6,0.6-1.2,0.6-1.7c0-0.9-0.8-1.7-2.5-2.2l-5.3-1.2c-1.1-0.3-1.9-0.7-2.6-1.3c-0.6-0.6-1-1.3-1-2.1c0-1.2,0.8-2.4,2.2-3.6
	c1.1-0.9,2.5-1.6,4.2-2.1s3.3-0.8,4.9-0.8s2.9,0.2,3.9,0.7c1.3,0.6,2,1.5,2,2.7C119.1,12.5,118.5,13.4,117.3,13.9z M98,27.2
	c-1.2-1.3-1.9-3-2.2-5.2c-0.2-1.3-0.3-1.9-0.5-1.9s-0.3,0-0.4,0.1c-0.1,0.1-0.3,0.3-0.4,0.6c-0.1,0.3-0.2,0.7-0.2,1.2
	c0,1.5,0.5,2.9,1.6,4C96.3,26.5,97,26.9,98,27.2z M124.7,14.7c0.3,0.2,0.4,0.4,0.4,0.7c0,0.3-0.1,0.5-0.4,0.7s-0.5,0.3-0.8,0.3
	c-0.3,0-0.6-0.1-0.8-0.3s-0.4-0.5-0.4-0.8c0-0.6,0.4-0.8,1.1-0.8C124.1,14.5,124.4,14.6,124.7,14.7z M118.4,27c-1,0-1.5-0.7-1.5-2
	c0-1.1,0.6-2.6,1.8-4.5c1.2-1.9,2.1-2.9,2.9-2.9c0.2,0,0.4,0.1,0.7,0.2c0.2,0.2,0.4,0.3,0.4,0.5c-0.1,0.1-0.2,0.3-0.4,0.5
	c-0.1,0.2-0.3,0.4-0.4,0.6c-0.2,0.2-0.4,0.5-0.7,0.9s-0.6,0.7-0.8,1.1c-1.5,1.9-2.2,3.3-2.2,4c0,0.7,0.2,1.1,0.8,1.1
	c0.4,0,1-0.2,1.7-0.7c1.7-1,3-2.2,4-3.4c0.4-0.5,0.6-0.7,0.7-0.7s0.2,0.1,0.2,0.2s-0.2,0.5-0.7,1c-0.5,0.5-0.8,0.9-1.1,1.1
	c-0.3,0.3-0.5,0.5-0.6,0.6c-0.1,0.1-0.3,0.3-0.6,0.5c-0.3,0.2-0.5,0.4-0.6,0.5c-0.1,0.1-0.3,0.2-0.6,0.5s-0.5,0.3-0.7,0.4
	c-0.2,0.1-0.4,0.2-0.7,0.3C119.5,26.9,119,27,118.4,27L118.4,27z M130.3,17.2c0.5,0,0.8,0.2,0.8,0.6c0,0.1,0,0.2-0.1,0.4
	c-1.8,2.5-2.9,4.4-3.2,5.7c4.7-4.7,7.5-7,8.5-7c0.1,0,0.2,0,0.3,0c0.6,0,0.8,0.2,0.8,0.8c0,0.1,0,0.2-0.1,0.3c0,0.1-0.4,0.6-1.2,1.6
	c-0.9,1-1.6,2-2.2,3c-0.6,1-0.9,1.8-0.9,2.4s0.1,1,0.4,1c0.9,0,2.4-1.2,4.6-3.6c0,0,0.1-0.1,0.2-0.3c0.3-0.4,0.5-0.5,0.5-0.5
	s0.1,0.1,0.1,0.3c0,0.2-0.1,0.5-0.4,0.8c-2.5,2.8-4.2,4.2-5.3,4.2c-1,0-1.5-0.5-1.5-1.6c0-1.1,0.4-2.3,1.2-3.7l1.9-3.1
	c-1.4,1-2.6,2.1-3.6,3.3c-1.1,1.2-2,2.3-2.9,3.5c-0.9,1.1-1.4,1.7-1.5,1.7c-0.3,0-0.5-0.1-0.7-0.4c-0.2-0.2-0.3-0.6-0.3-0.9
	c0-0.4,0.1-0.9,0.4-1.5c0.3-0.6,0.6-1.4,1-2.2l-1.8,1.9c-0.4,0.4-0.7,0.7-0.8,0.7c-0.1,0-0.2-0.1-0.2-0.2c0-0.1,0.1-0.3,0.2-0.4
	c0.7-0.7,1.4-1.5,1.9-2.1c0.5-0.7,1.6-2,3.2-3.9C129.9,17.3,130.1,17.2,130.3,17.2L130.3,17.2z M148.9,17.5l0.4-0.1
	c0.3,0,0.5,0.1,0.6,0.2s0.2,0.3,0.2,0.4s0,0.2,0,0.3s-0.3,0.6-0.9,1.5c-0.7,1.2-1.3,2.3-1.7,3.1c-1.6,3-2.9,5.1-3.7,6.2
	c-1.8,2.4-3.6,3.7-5.2,3.7c-0.6,0-1.1-0.2-1.5-0.7c-0.4-0.5-0.7-1-0.7-1.6c0.1-0.2,0.1-0.4,0.3-0.4c0.1,0,0.1,0.1,0.1,0.2
	c0.1,0.5,0.3,0.9,0.6,1.2c0.3,0.3,0.6,0.4,0.8,0.4c1.1,0,2.4-0.8,3.7-2.2c0.9-1,1.8-2.5,2.9-4.4l1.5-3l-2.2,2.3
	c-1.4,1.4-2.4,2.1-3,2.1c-0.5,0-1-0.2-1.5-0.5c-0.5-0.4-0.8-0.9-0.8-1.6c0-1.5,1-3.2,3.1-5.2c2-2,3.9-3,5.6-3c0.7,0,1.1,0.2,1.3,0.7
	c0.1,0.2,0.1,0.3,0.1,0.4C148.8,17.5,148.8,17.5,148.9,17.5L148.9,17.5z M139.9,24.9c0,0.7,0.2,1.1,0.8,1.1c1.2,0,2.7-1.3,4.7-3.8
	l3.2-4.4c-0.1-0.3-0.4-0.4-0.8-0.4c-1.2,0-2.9,1-4.9,2.9C140.9,22.2,139.9,23.7,139.9,24.9z M158.4,26.6c-1.2,0-1.8-0.7-1.8-2.1
	c0-0.8,0.3-1.6,0.8-2.6c0.6-1,1.2-2.1,2-3.3c-2.6,1.3-4.9,3.2-7,5.7c-1.2,1.7-1.8,2.6-2,2.6c-0.6,0-0.9-0.2-0.9-0.5
	c0-0.2,0.1-0.5,0.4-1c1.9-3.5,3.4-6,4.4-7.6c2.4-3.8,4.1-5.9,5-6.2c0,0,0.1,0,0.1,0c0.3,0,0.4,0.2,0.5,0.6c-0.1,0.4-1.1,1.9-3.1,4.6
	c-2.1,2.7-3.3,4.4-3.6,5.2c0.7-0.5,2-1.5,3.9-2.7c2-1.4,3.3-2.1,3.9-2.1c0.6,0,1,0.2,1,0.8c0,0.1,0,0.1,0,0.2c0,0-0.7,1-2.1,2.8
	c-1.4,1.9-2.1,3.2-2.1,4.1c0,0.5,0.2,0.7,0.5,0.7c1.1,0,2.7-1.3,4.9-3.9c0.2-0.2,0.3-0.3,0.4-0.3s0.1,0.1,0.1,0.2c0,0.4-1,1.5-3,3.2
	C159.7,26,158.8,26.6,158.4,26.6L158.4,26.6z M207,13.3c0,1-0.5,2.1-1.5,3.4c-1,1.2-2.6,2.2-4.6,3c-2.1,0.8-4.1,1.1-6,1.1
	c-2,0-3.5-0.2-4.6-0.8c-2.5,3.7-4.2,5.9-4.9,6.7c-2.2,2.2-4.7,3.2-7.7,3.2c-1.7,0-3-0.4-3.8-1.2c-0.8-0.8-1.3-1.8-1.3-3.1
	c0-1.7,0.7-3.4,2.1-4.9c1.5-1.7,3.5-2.5,5.8-2.5c1,0,1.8,0.2,2.4,0.7c0.7,0.4,1,1.1,1,2c0,0.6-0.3,1.3-1,2.2
	c-0.7,0.8-1.1,1.3-1.3,1.3c0,0-0.1,0-0.1-0.1s0-0.2,0.1-0.2c0.6-0.9,1-1.8,1-2.6s-0.2-1.4-0.7-1.8s-1.1-0.6-1.8-0.6
	c-1.7,0-3.2,0.8-4.5,2.3c-1.3,1.5-1.9,3.1-1.9,4.6c0,1,0.3,1.8,0.9,2.4c0.6,0.6,1.6,0.9,2.9,0.9c2.5,0,4.6-0.8,6.3-2.5
	c1-1,2-2.4,3.1-4.2l2.6-4.7c1.3-2.1,2.8-5.1,4.5-9.2h-0.5c-2.7,0-5.4,0.3-8.1,0.9s-4.8,1.4-6.2,2.5c-0.6,0.5-0.9,0.9-0.9,1.3
	c0,0.4,0.2,0.8,0.7,1.1s1,0.4,1.7,0.4c0.6,0,1.4-0.1,2.4-0.4s1.7-0.6,2.1-1c0.2-0.2,0.3-0.2,0.4-0.2c0.2,0,0.2,0.1,0.1,0.2
	c-0.7,0.8-1.8,1.5-3.3,1.9c-0.9,0.3-1.8,0.4-2.7,0.4s-1.6-0.2-2.2-0.6s-0.8-0.9-0.8-1.6s0.4-1.3,1.1-2c1.4-1.3,3.8-2.3,7.3-2.9
	c2.5-0.4,5.3-0.7,8.6-0.7h0.8c0.4-0.4,0.8-0.6,1.2-0.6s0.5,0.1,0.5,0.4c0,0.1,0,0.1,0,0.2c3.1,0.2,5.6,0.7,7.5,1.6
	C205.9,10.5,207,11.7,207,13.3L207,13.3z M205.6,13c0-1.3-1-2.3-3.1-3.1c-1.8-0.7-4-1.1-6.7-1.3l-1,3c-0.8,1.9-2.2,4.5-4.4,7.9
	c0.2,0.1,0.5,0.2,1,0.3c0.8,0.1,1.4,0.2,1.9,0.2c1.5,0,3.3-0.3,5.2-0.9c2-0.6,3.6-1.5,5-2.8C204.9,15.1,205.6,14,205.6,13L205.6,13z
	 M211.3,26.6c-1.2,0-1.8-0.7-1.8-2.1c0-0.8,0.3-1.6,0.8-2.6c0.5-1,1.2-2.1,2-3.3c-2.6,1.3-4.9,3.2-7,5.7c-1.2,1.7-1.8,2.6-2,2.6
	c-0.6,0-0.9-0.2-0.9-0.5c0-0.2,0.1-0.5,0.4-1c1.9-3.5,3.4-6,4.4-7.6c2.4-3.8,4.1-5.9,5-6.2c0,0,0.1,0,0.1,0c0.3,0,0.4,0.2,0.5,0.6
	c-0.1,0.4-1.1,1.9-3.1,4.6c-2.1,2.7-3.3,4.4-3.6,5.2c0.7-0.5,2-1.5,3.9-2.7c2-1.4,3.3-2.1,3.9-2.1s1,0.2,1,0.8c0,0.1,0,0.1,0,0.2
	c0,0-0.7,1-2.1,2.8c-1.4,1.9-2.1,3.2-2.1,4.1c0,0.5,0.2,0.7,0.5,0.7c1.1,0,2.7-1.3,4.9-3.9c0.2-0.2,0.3-0.3,0.4-0.3s0.1,0.1,0.1,0.2
	c0,0.4-1,1.5-3,3.2C212.6,26,211.7,26.6,211.3,26.6L211.3,26.6z M224.6,20.3c0,0.7-0.7,1.9-2,3.5c-1.6,1.9-2.9,2.9-4.1,2.9h-0.5
	c-0.5,0-0.9-0.3-1.2-0.8c-0.2-0.4-0.4-0.8-0.4-1.3c0-1.2,0.9-2.9,2.6-5.1s3.2-3.3,4.2-3.3c1,0,1.5,0.5,1.5,1.6
	c0,0.3-0.1,0.6-0.1,1.1c0,0.1,0.2,0.1,0.6,0.1s0.9-0.2,1.6-0.6c0,0.3-0.8,0.8-2.4,1.5C224.6,20.1,224.6,20.2,224.6,20.3L224.6,20.3z
	 M222.7,18.8c-0.7,0-1.6,0.8-2.9,2.4s-1.9,2.8-1.9,3.5s0.2,1.1,0.7,1.1c0.9,0,2-0.8,3.3-2.3c1.3-1.6,2-2.7,2-3.4
	C223.5,20,223.1,19.5,222.7,18.8z M234.4,17l4.3-0.1c0.1,0,0.1,0.1,0.1,0.1c0,0.2-1.2,0.4-3.7,0.8s-3.8,0.5-4,0.6
	c-0.4,0.3-1.1,1.4-2.1,3c-1,1.7-1.5,2.9-1.5,3.7c0,0.7,0.5,1.1,1.5,1.1c0.5,0,1.1-0.1,1.9-0.5c0.8-0.3,1.4-0.6,1.8-0.8
	c1.1-0.7,2.3-1.7,3.6-3.1c0.3-0.3,0.5-0.4,0.6-0.4c0.1,0,0.1,0.1,0.1,0.2c0,0.1-0.1,0.4-0.4,0.7c-1,1.3-2.2,2.3-3.5,3.1
	c-1.6,1-3,1.4-4.5,1.4c-0.6,0-1.1-0.1-1.5-0.4c-0.4-0.3-0.6-0.8-0.6-1.6s0.4-1.9,1.1-3.4s1.3-2.5,1.6-3.2c-0.3,0.1-0.5,0.1-0.7,0.1
	c-0.6,0-0.9-0.2-0.9-0.7c0-0.3,0.2-0.6,0.7-0.7c0.1,0,0.2,0,0.3,0h1.7c0.4-0.5,0.8-1,1.2-1.6c0.6-0.7,0.9-1.1,1.1-1.1
	c0.2,0,0.4,0.1,0.8,0.2c0.3,0.2,0.4,0.4,0.4,0.6s-0.5,0.9-1.4,2C232.8,17,233.5,17,234.4,17z M244.6,20.3c0,0.7-0.7,1.9-2,3.5
	c-1.6,1.9-2.9,2.9-4.1,2.9h-0.5c-0.5,0-0.9-0.3-1.2-0.8c-0.2-0.4-0.4-0.8-0.4-1.3c0-1.2,0.9-2.9,2.6-5.1c1.7-2.2,3.2-3.3,4.2-3.3
	c1,0,1.5,0.5,1.5,1.6c0,0.3,0,0.6-0.1,1.1c0,0.1,0.2,0.1,0.6,0.1c0.4,0,0.9-0.2,1.6-0.6c0,0.3-0.8,0.8-2.4,1.5
	C244.6,20.1,244.6,20.2,244.6,20.3L244.6,20.3z M242.6,18.8c-0.7,0-1.6,0.8-2.9,2.4s-1.9,2.8-1.9,3.5s0.2,1.1,0.7,1.1
	c0.9,0,1.9-0.8,3.3-2.3c1.3-1.6,2-2.7,2-3.4C243.5,20,243.1,19.5,242.6,18.8z M256.5,17.5l0.4-0.1c0.3,0,0.5,0.1,0.6,0.2
	c0.2,0.2,0.2,0.3,0.2,0.4s0,0.2,0,0.3s-0.3,0.6-0.9,1.5c-0.7,1.2-1.3,2.3-1.7,3.1c-1.6,3-2.9,5.1-3.7,6.2c-1.8,2.4-3.6,3.7-5.2,3.7
	c-0.6,0-1.1-0.2-1.5-0.7c-0.4-0.5-0.7-1-0.7-1.6c0.1-0.2,0.1-0.4,0.3-0.4c0.1,0,0.1,0.1,0.1,0.2c0.1,0.5,0.3,0.9,0.6,1.2
	c0.3,0.3,0.6,0.4,0.8,0.4c1.1,0,2.4-0.8,3.7-2.2c0.9-1,1.8-2.5,2.9-4.4l1.5-3l-2.2,2.3c-1.4,1.4-2.4,2.1-3,2.1c-0.5,0-1-0.2-1.5-0.5
	c-0.5-0.4-0.8-0.9-0.8-1.6c0-1.5,1-3.2,3.1-5.2c2-2,3.9-3,5.6-3c0.7,0,1.1,0.2,1.3,0.7c0.1,0.2,0.1,0.3,0.2,0.4
	C256.5,17.5,256.5,17.5,256.5,17.5L256.5,17.5z M247.6,24.9c0,0.7,0.2,1.1,0.7,1.1c1.2,0,2.7-1.3,4.7-3.8l3.2-4.4
	c-0.1-0.3-0.4-0.4-0.7-0.4c-1.2,0-2.9,1-4.9,2.9C248.6,22.2,247.6,23.7,247.6,24.9L247.6,24.9z M265.1,26.9c-1.5,0-2.2-0.8-2.2-2.5
	c0-0.8,0.2-1.8,0.7-2.8c0.4-1,0.9-1.8,1.4-2.5c-0.1,0-0.2,0-0.4,0c-0.5,0-0.9-0.3-1.2-1l-2.2,2.9c-1.2,1.5-2,2.3-2.2,2.3
	c-0.1,0-0.2,0-0.2-0.1c0-0.2,0.2-0.5,0.5-0.9c1.7-2,3-3.7,3.7-5.1c0.5-1.7,1-2.6,1.7-2.6c0.5,0,0.7,0.2,0.7,0.6
	c0,0.4-0.2,0.9-0.8,1.5l-0.7,1c0,0.4,0.3,0.6,0.9,0.6c0.4,0,0.8-0.1,1.2-0.4l0.8-0.5c0,0,0.1,0,0.3,0c0.2,0,0.3,0.1,0.5,0.3
	c0.2,0.2,0.2,0.4,0.2,0.5l-2.1,2.6c-1.3,1.6-1.9,2.9-1.9,3.9c0,1,0.4,1.4,1.3,1.4c0.9,0,2-0.5,3.4-1.5c0.8-0.6,1.5-1.2,2.2-2
	c0.6-0.7,1-1.1,1-1.1c0.1,0,0.2,0.1,0.2,0.2c0,0.1-0.1,0.3-0.3,0.5l-1,1.1c-0.5,0.6-1.1,1.1-1.8,1.6
	C267.4,26.3,266.1,26.8,265.1,26.9z M282.1,17.7l0.4-0.1c0.2,0,0.4,0.1,0.6,0.3s0.3,0.3,0.3,0.4s-0.6,1.1-1.9,2.9s-1.9,3.1-1.9,3.8
	c0,0.1,0,0.1,0,0.2c0.1,0.5,0.3,0.7,0.7,0.7c1,0,2.9-1.7,5.7-5.2c0.1-0.1,0.1-0.1,0.2-0.1c0.1,0,0.1,0.1,0.1,0.2
	c0,0.2-0.1,0.3-0.3,0.6c-2.6,3.4-4.5,5.1-5.9,5.1c-0.2,0-0.3,0-0.5-0.1c-0.9-0.3-1.3-1-1.3-2c0-0.3,0-0.7,0.1-1l-1.9,1.8
	c-1.2,1-2,1.6-2.6,1.6c-0.5,0-1-0.2-1.5-0.5c-0.5-0.4-0.8-0.9-0.8-1.6c0-1.5,1-3.2,3.1-5.2c2-2,3.9-3,5.6-3c0.7,0,1.1,0.2,1.3,0.7
	c0.1,0.2,0.1,0.3,0.2,0.4C282,17.7,282,17.7,282.1,17.7z M273.1,25.1c0,0.7,0.2,1.1,0.8,1.1c1.2,0,2.7-1.3,4.7-3.8l3.2-4.4
	c-0.2-0.3-0.4-0.4-0.8-0.4c-1.2,0-2.8,0.9-4.9,2.8C274.1,22.3,273.1,23.9,273.1,25.1z M297.1,19.9c0,1.6-0.9,3.2-2.8,4.6
	c-1.9,1.4-3.5,2.2-4.8,2.2c-0.9,0-1.6-0.1-2-0.2c-0.4-0.1-0.9-0.5-1.4-1.1c-0.3,0.3-0.8,1-1.4,2.1c-0.6,1.2-0.9,2.1-0.9,3
	c0,0.4,0.2,0.9,0.6,1.5c0,0.1,0,0.2-0.1,0.3s-0.2,0.1-0.2,0.1c0,0-0.1,0-0.1,0c-0.8-0.5-1.3-1.4-1.3-2.7s1.1-3.6,3.3-6.9
	c2.2-3.3,3.7-5,4.6-5.3c0.2,0,0.3-0.1,0.4-0.1c0.3,0,0.5,0.4,0.5,1.1c0.2-0.2,0.6-0.4,1.2-0.6c0.8-0.2,1.3-0.3,1.6-0.3
	c0.7,0,1.3,0.2,1.9,0.6C296.8,18.7,297.1,19.2,297.1,19.9L297.1,19.9z M295.6,19.6c0-0.8-0.5-1.1-1.4-1.1c-0.9,0-1.7,0.2-2.5,0.6
	c-0.3,0.2-1.3,1-2.8,2.6s-2.3,2.6-2.3,3.1c0,0.4,0.3,0.6,0.8,0.8s1.1,0.3,1.7,0.3c1.1,0,2.5-0.6,4-1.9
	C294.8,22.7,295.6,21.3,295.6,19.6z M305.5,26.6c-1.2,0-1.8-0.7-1.8-2.1c0-0.8,0.3-1.6,0.8-2.6c0.6-1,1.2-2.1,2-3.3
	c-2.6,1.3-4.9,3.2-7,5.7c-1.2,1.7-1.8,2.6-2,2.6c-0.6,0-0.9-0.2-0.9-0.5c0-0.2,0.1-0.5,0.4-1c1.9-3.5,3.4-6,4.4-7.6
	c2.4-3.8,4.1-5.9,5-6.2c0,0,0.1,0,0.1,0c0.3,0,0.4,0.2,0.5,0.6c-0.1,0.4-1.1,1.9-3.1,4.6c-2.1,2.7-3.3,4.4-3.6,5.2
	c0.7-0.5,2-1.5,3.9-2.7c2-1.4,3.3-2.1,3.9-2.1c0.6,0,1,0.2,1,0.8c0,0.1,0,0.1,0,0.2c0,0-0.7,1-2.1,2.8c-1.4,1.9-2.1,3.2-2.1,4.1
	c0,0.5,0.2,0.7,0.5,0.7c1.1,0,2.7-1.3,4.9-3.9c0.2-0.2,0.3-0.3,0.4-0.3s0.1,0.1,0.1,0.2c0,0.4-1,1.5-3,3.2
	C306.8,26,306,26.6,305.5,26.6z M309.3,30.2c1,1.2,1.8,1.8,2.5,1.8c1.1,0,2.4-0.9,3.7-2.7c1-1.3,1.9-3,2.8-5.1l1.1-2.8l-4.4,3.5
	c-1.4,1.1-2.5,1.6-3.3,1.6c-0.4,0-0.8-0.2-1-0.5c-0.3-0.3-0.4-0.6-0.4-1c0-0.9,0.7-2.3,2.2-4.2c1.5-2,2.6-3,3.2-3s1,0.2,1,0.7
	c0,0.2-0.9,1.2-2.7,3.1c-1.8,1.9-2.7,3.2-2.7,3.8c0,0.3,0.2,0.4,0.5,0.4c0.6,0,1.9-0.8,3.9-2.2s3.4-2.7,4.4-3.7
	c0.2-0.3,0.5-0.7,0.9-1.2c0.4-0.4,0.8-0.7,1.3-0.7c0.5,0,0.7,0.2,0.7,0.7c0,0.1-0.5,0.8-1.4,2.1c-0.9,1.3-1.4,2-1.4,2.1
	c-0.6,1.2-1.6,2.9-2.9,5.2c-1.9,3.1-3.9,4.7-5.8,4.7c-0.6,0-1.2-0.3-1.7-0.8C309.5,31.5,309.3,30.9,309.3,30.2z M-8-21.3"/>
</svg>
