<?xml version="1.0"?>
<svg version="1.1" xmlns="http://www.w3.org/2000/svg" width="500" height="80" style=""><path fill="#ffffff" d="M52.84,52.56l3.88-0.08q1.44,0,1.44,0.2q0,0.52-5.84,0.92q-3.72,7.28-3.72,9.92q0,1.84,1.16,1.84q0.44,0,1.1-0.54t0.8-0.54t0.14,0.2q-0.2,0.72-1.22,1.2t-1.72,0.48t-1.1-0.08q-0.96-0.36-0.96-2.32q0-4.04,3.08-10.28l-4.8,0.12q-5.36,5.24-10.76,9.2q-8.08,5.88-12.64,5.88q-0.28,0-0.56-0.04q-6.16-0.52-6.16-6.32q0-3.44,2.16-7.28q2.88-5.12,7.88-8.74t8.96-3.62t3.96,2.92q0,1.96-1.2,4.36t-2.44,3.04q-0.12,0.04-0.26,0.04t-0.14-0.08l1.32-2.16q1.36-2.12,1.36-3.72t-0.7-2.58t-2.22-0.98q-3.12,0-7.46,3.48t-6.6,8.56t-2.26,7.92q0,4.28,4.36,4.28q4.16,0,11.28-5.36q3.16-2.36,10.28-8.92q-1.4,0.08-2.6,0.28q-2.56,0.48-2.4-0.16q0.16-1.48,1.52-1.48q2.64,0.32,4.44,0.32q3.44-3.16,10.28-10.36q4.6-4.84,5.6-4.84q0.44,0,0.44,0.68t-0.36,2.12t-0.8,1.76q-0.92,0.64-1.72,1.74t-2.28,4.12t-2.52,4.9z M56.04,42.8l-10.24,9.6l2.36,0q0.84,0.04,2.08,0.04q1.16-2.28,5.8-9.64z M76.6868,63.52q-2.72,0-2.72-2.52q0-1.44,1.28-3.94t2.68-4.22q-2.48,1.2-5.72,4.34t-4.52,6.58q-0.2,0.32-0.68,0.32q-0.96,0-0.96-1.08q0.4-2.2,1.8-5.04q0.44-0.92,2.6-5.36q-3.12,2.04-5.3,4.38t-4.04,4.7t-2.1,2.36q-0.52,0-0.9-0.48t-0.38-0.96q0-0.72,2.08-5.28l-2.4,2.52q-0.88,0.88-1.1,0.88t-0.22-0.26t0.32-0.58q1.48-1.48,2.64-2.96t3.84-5.28q0.44-0.6,1.24-0.6t0.8,0.76q0,0.28-2.12,3.9t-2.36,4.54q1.64-1.8,4.92-4.84q4.92-4.56,6.48-4.56q0.48,0,0.88,0.28t0.4,0.62t-1.56,3.02q-1.52,2.76-1.68,3.28q4.44-3.72,4.44-3.76q3.76-2.92,5.4-2.92q0.48,0,0.9,0.3t0.42,0.7q0,0.08-2.6,3.38t-2.92,5.42q-0.08,0.72,0.28,1.08t1.3,0.36t2.76-1.3t3.7-3.5q0.72-0.8,0.98-0.8t0.26,0.2q0,0.28-0.36,0.64q-1.96,2.36-4.22,4.02t-3.54,1.66z M97.8536,52.04l0.56-0.12q0.44,0,0.84,0.36t0.4,0.56t-2.48,3.86t-2.48,5.1q0,0.12,0.04,0.24q0.2,0.92,0.88,0.92q2.08,0,7.6-6.88q0.12-0.16,0.28-0.16t0.16,0.3t-0.36,0.78q-5.12,6.84-7.8,6.84q-0.36,0-0.68-0.12q-1.76-0.68-1.76-2.64q0-0.68,0.16-1.36l-2.48,2.4q-2.36,2.08-3.42,2.08t-2.02-0.68q-1.08-0.8-1.08-2.12q0-2.92,4.08-6.98t7.48-4.06q1.32,0,1.76,0.92q0.12,0.32,0.2,0.54t0.12,0.22z M85.8936,61.88q0,1.44,1,1.44q2.32,0,6.32-5.08l4.24-5.84q-0.32-0.56-1.04-0.56q-2.44,0-6.48,3.78t-4.04,6.26z M109.2604,51.36q1.08,0,1.08,0.84q0,0.24-0.12,0.48q-3.6,5-4.32,7.56q9.32-9.32,11.32-9.32q0.2-0.04,0.36-0.04q1.12,0,1.12,1q0,0.2-0.08,0.4t-1.6,2.16q-1.76,2.08-2.98,4t-1.22,3.2t0.56,1.28q1.76,0,6.12-4.84q0.08-0.08,0.28-0.36q0.6-0.72,0.72-0.72t0.12,0.4t-0.56,1.04q-4.96,5.64-7.04,5.64q-1.96,0-1.96-2.16t1.6-4.96l2.56-4.16q-2.72,2-4.84,4.38t-3.86,4.62t-2.02,2.24q-0.6,0-0.94-0.5t-0.34-1.24t0.52-1.98t1.32-3l-2.4,2.52q-0.88,0.88-1.1,0.88t-0.22-0.26t0.32-0.58q1.48-1.48,2.56-2.84q1.04-1.36,4.28-5.2q0.36-0.48,0.76-0.48z M162.034,46.88q-1.48,0.6-2.54,0.6t-1.06-0.44q0-0.28,1.18-0.32t1.7-0.28q1.52-0.8,1.52-2.36q0-0.8-0.44-1.68q-1.28-2.28-6.2-2.28q-2.84,0-5.68,0.86t-4.76,2.64t-1.92,3.3q0,2.32,4.6,3.4l4.72,0.88q2.84,0.52,4.24,1.44q1.84,1.12,1.84,3.2q0,0.84-0.28,1.8q-1.28,4.32-6.6,6.6q-4.44,1.96-10.48,1.96q-1.72,0-3-0.16q1.28,0.72,3.36,1.24q0.16,0.04,0.16,0.16q0,0.36-0.84,0.36q-1.64,0-4.08-1.96q-3.32-0.52-4.96-1.84q-1.04-0.84-1.92-2.48t-0.88-2.96t0.52-2.2q1.2-2.12,3.04-2.12q1.4,0,1.64,2.36q0.56,4.56,0.76,5.2q0.6,1.96,2.04,3.32q1.68,0.36,3.64,0.36q4.32,0,8.48-1.72t6-4.88q0.76-1.24,0.76-2.2q0-1.88-3.32-2.92l-7.04-1.6q-2.16-0.52-3.46-1.72t-1.3-2.76q0-2.4,3-4.8q2.28-1.84,5.58-2.86t6.48-1.02t5.26,0.92q2.68,1.24,2.68,3.62t-2.44,3.34z M136.274,64.72q-2.32-2.56-2.96-7q-0.36-2.52-0.68-2.52t-0.6,0.18t-0.56,0.78t-0.28,1.56q0,3.08,2.16,5.28q1.08,1.12,2.92,1.72z M171.9008,48.06q0.54,0.38,0.54,0.9t-0.5,0.9t-1.1,0.38t-1.1-0.44t-0.5-1q0-1.12,1.52-1.12q0.6,0,1.14,0.38z M163.5208,64.44q-2.04,0-2.04-2.64q0-2.16,2.36-5.98t3.8-3.86q0.4,0,0.9,0.32t0.5,0.64q-0.2,0.28-0.48,0.62t-0.6,0.74t-0.88,1.14t-1.08,1.42q-3,3.88-3,5.34t1,1.46q0.84,0,2.28-0.92q3.36-2.08,5.32-4.56q0.72-0.92,0.98-0.92t0.26,0.32t-0.92,1.28t-1.46,1.52t-0.74,0.74t-0.74,0.68t-0.82,0.7t-0.8,0.6t-0.92,0.58t-0.92,0.42q-0.84,0.36-2,0.36z M179.3276,51.36q1.08,0,1.08,0.84q0,0.24-0.12,0.48q-3.6,5-4.32,7.56q9.32-9.32,11.32-9.32q0.2-0.04,0.36-0.04q1.12,0,1.12,1q0,0.2-0.08,0.4t-1.6,2.16q-1.76,2.08-2.98,4t-1.22,3.2t0.56,1.28q1.76,0,6.12-4.84q0.08-0.08,0.28-0.36q0.6-0.72,0.72-0.72t0.12,0.4t-0.56,1.04q-4.96,5.64-7.04,5.64q-1.96,0-1.96-2.16t1.6-4.96l2.56-4.16q-2.72,2-4.84,4.38t-3.86,4.62t-2.02,2.24q-0.6,0-0.94-0.5t-0.34-1.24t0.52-1.98t1.32-3l-2.4,2.52q-0.88,0.88-1.1,0.88t-0.22-0.26t0.32-0.58q1.48-1.48,2.56-2.84q1.04-1.36,4.28-5.2q0.36-0.48,0.76-0.48z M204.1344,51.8l0.56-0.12q0.52,0,0.82,0.32t0.3,0.5t-0.04,0.4t-1.16,2.02q-1.4,2.44-2.32,4.12q-3.24,6.04-4.96,8.28q-3.68,4.88-7,4.88q-1.16,0-2.02-0.98t-0.9-2.18q0.12-0.48,0.36-0.48q0.12,0,0.2,0.28q0.2,1.04,0.76,1.6t1.12,0.56q2.28,0,4.88-3q1.72-2,3.8-5.84l2-3.96l-3,3.04q-2.88,2.76-3.94,2.76t-2.02-0.72q-1.08-0.8-1.08-2.12q0-2.92,4.1-6.96t7.46-4.04q1.36,0,1.76,0.88q0.12,0.32,0.2,0.54t0.12,0.22z M192.1744,61.64q0,1.44,1,1.44q2.32,0,6.32-5.08l4.24-5.84q-0.24-0.56-1-0.56q-2.48,0-6.52,3.82t-4.04,6.22z M216.8212,63.84q-2.36,0-2.36-2.76q0-1.56,1.1-3.46t2.7-4.46q-5.12,2.56-9.28,7.56q-2.32,3.48-2.72,3.48q-1.16,0-1.16-0.68q0-0.36,0.48-1.28q3.88-6.92,5.88-10.12q4.76-7.64,6.72-8.28q0.08-0.04,0.16-0.04q0.52,0,0.72,0.84q-0.12,0.84-4.16,6.08q-4.2,5.32-4.76,6.96q1.48-1.08,5.16-3.64q3.96-2.76,5.24-2.76t1.28,1q0,0.16-0.02,0.22t-2.78,3.78t-2.76,5.48q0,0.92,0.68,0.92q2.16-0.08,6.48-5.2q0.36-0.36,0.54-0.36t0.18,0.24q0,0.8-3.96,4.32q-2.48,2.16-3.36,2.16z M281.6748,46.12q0,2.04-2.04,4.48t-6.18,3.96t-8.04,1.52t-6.18-1q-5.04,7.4-6.56,8.92q-4.32,4.32-10.32,4.32q-3.4,0-5.1-1.58t-1.7-4.1q0-3.48,2.8-6.56q3.08-3.4,7.76-3.4q1.92,0,3.24,0.88t1.32,2.68q0,1.2-1.36,2.88t-1.68,1.68q-0.08,0-0.08-0.16t0.12-0.32q1.28-1.88,1.28-3.46t-0.98-2.44t-2.42-0.86q-3.36,0-5.94,3.06t-2.58,6.18q0,2,1.26,3.24t3.9,1.24q4.92,0,8.44-3.32q2.04-1.92,4.12-5.6l3.48-6.28q2.56-4.12,5.96-12.24l-0.72,0q-5.4,0-10.84,1.18t-8.24,3.38q-1.2,0.92-1.2,1.8t0.94,1.42t2.22,0.54t3.18-0.5t2.86-1.34q0.4-0.32,0.56-0.32q0.32,0,0.12,0.32q-1.44,1.68-4.36,2.52q-1.8,0.52-3.56,0.52t-2.88-0.78t-1.12-2.12t1.44-2.7q2.72-2.64,9.72-3.92q4.96-0.88,11.4-0.88l1.08,0q0.88-0.76,1.6-0.76t0.72,0.56q0,0.12-0.04,0.28q6.2,0.44,10.04,2.08q4.56,1.92,4.56,5z M279.7948,45.72q0-2.52-4.08-4.12q-3.56-1.4-8.92-1.68l-1.28,4q-1.52,3.76-5.84,10.48q0.4,0.2,1.36,0.44q1.6,0.28,2.48,0.28q3.04,0,7-1.26t6.62-3.68t2.66-4.46z M287.3616,63.84q-2.36,0-2.36-2.76q0-1.56,1.1-3.46t2.7-4.46q-5.12,2.56-9.28,7.56q-2.32,3.48-2.72,3.48q-1.16,0-1.16-0.68q0-0.36,0.48-1.28q3.88-6.92,5.88-10.12q4.76-7.64,6.72-8.28q0.08-0.04,0.16-0.04q0.52,0,0.72,0.84q-0.12,0.84-4.16,6.08q-4.2,5.32-4.76,6.96q1.48-1.08,5.16-3.64q3.96-2.76,5.24-2.76t1.28,1q0,0.16-0.02,0.22t-2.78,3.78t-2.76,5.48q0,0.92,0.68,0.92q2.16-0.08,6.48-5.2q0.36-0.36,0.54-0.36t0.18,0.24q0,0.8-3.96,4.32q-2.48,2.16-3.36,2.16z M305.1284,55.52q0,1.4-2.68,4.68q-3.16,3.88-5.4,3.88l-0.64,0q-1.04,0-1.64-1.08q-0.48-0.76-0.48-1.68q0-2.4,3.5-6.74t5.66-4.34q2.04,0,2.04,2.16q0,0.56-0.2,1.44q0.04,0.12,0.76,0.12t2.2-0.76q-0.04,0.68-3.16,1.96q0.04,0.16,0.04,0.36z M302.5284,53.44q-1.36,0-3.86,3.2t-2.5,4.72t0.96,1.52q1.72,0,4.36-3.12t2.64-4.48q-0.64-0.36-1.6-1.84z M318.1352,51.12l5.76-0.08q0.12,0.08,0.12,0.12q0,0.36-4.98,1t-5.38,0.76q-0.76,0.68-2.8,4.06t-2.04,4.94q0,1.48,2.04,1.48q0.96,0,2.52-0.6t2.4-1.12q2.24-1.4,4.8-4.12q0.56-0.56,0.76-0.56q0.12,0,0.12,0.24t-0.6,0.96q-2.08,2.56-4.68,4.12q-3.12,1.92-5.96,1.92q-1.24,0-2.02-0.54t-0.78-2.18t1.44-4.5t2.2-4.26q-0.56,0.12-0.96,0.12q-1.16,0-1.16-0.92q0-0.68,0.96-0.96q0.12,0,0.36-0.04l2.32,0q0.72-0.92,1.64-2.12q1.12-1.44,1.52-1.44t1,0.32t0.6,0.76t-1.92,2.6q1.04,0.04,2.72,0.04z M331.782,55.52q0,1.4-2.68,4.68q-3.16,3.88-5.4,3.88l-0.64,0q-1.04,0-1.64-1.08q-0.48-0.76-0.48-1.68q0-2.4,3.5-6.74t5.66-4.34q2.04,0,2.04,2.16q0,0.56-0.2,1.44q0.04,0.12,0.76,0.12t2.2-0.76q-0.04,0.68-3.16,1.96q0.04,0.16,0.04,0.36z M329.182,53.44q-1.36,0-3.86,3.2t-2.5,4.72t0.96,1.52q1.72,0,4.36-3.12t2.64-4.48q-0.64-0.36-1.6-1.84z M347.7088,51.8l0.56-0.12q0.52,0,0.82,0.32t0.3,0.5t-0.04,0.4t-1.16,2.02q-1.4,2.44-2.32,4.12q-3.24,6.04-4.96,8.28q-3.68,4.88-7,4.88q-1.16,0-2.02-0.98t-0.9-2.18q0.12-0.48,0.36-0.48q0.12,0,0.2,0.28q0.2,1.04,0.76,1.6t1.12,0.56q2.28,0,4.88-3q1.72-2,3.8-5.84l2-3.96l-3,3.04q-2.88,2.76-3.94,2.76t-2.02-0.72q-1.08-0.8-1.08-2.12q0-2.92,4.1-6.96t7.46-4.04q1.36,0,1.76,0.88q0.12,0.32,0.2,0.54t0.12,0.22z M335.7488,61.64q0,1.44,1,1.44q2.32,0,6.32-5.08l4.24-5.84q-0.24-0.56-1-0.56q-2.48,0-6.52,3.82t-4.04,6.22z M359.0756,64.2q-3,0-3-3.32q0-1.68,0.88-3.68t1.92-3.36q-0.2,0.04-0.52,0.04q-0.96,0-1.6-1.36l-2.96,3.84q-2.48,3.08-2.88,3.08q-0.2,0-0.2-0.16q0-0.4,0.68-1.16q3.48-4.04,4.92-6.84q0.92-3.48,2.32-3.48q0.92,0,0.92,0.8t-1,2.04l-0.96,1.28q0,0.84,1.24,0.84q0.72,0,1.6-0.52l1.04-0.64q0.08-0.04,0.4-0.04t0.68,0.4t0.24,0.72l-2.76,3.48q-2.56,3.28-2.56,5.18t1.76,1.9q1.84,0,4.52-1.96q1.6-1.16,2.92-2.6q1.24-1.44,1.36-1.44q0.28,0,0.28,0.3t-0.36,0.7l-1.28,1.44q-1.08,1.12-2.4,2.16q-3.16,2.36-5.2,2.36z M381.7224,52.04l0.56-0.12q0.44,0,0.84,0.36t0.4,0.56t-2.48,3.86t-2.48,5.1q0,0.12,0.04,0.24q0.2,0.92,0.88,0.92q2.08,0,7.6-6.88q0.12-0.16,0.28-0.16t0.16,0.3t-0.36,0.78q-5.12,6.84-7.8,6.84q-0.36,0-0.68-0.12q-1.76-0.68-1.76-2.64q0-0.68,0.16-1.36l-2.48,2.4q-2.36,2.08-3.42,2.08t-2.02-0.68q-1.08-0.8-1.08-2.12q0-2.92,4.08-6.98t7.48-4.06q1.32,0,1.76,0.92q0.12,0.32,0.2,0.54t0.12,0.22z M369.7624,61.88q0,1.44,1,1.44q2.32,0,6.32-5.08l4.24-5.84q-0.32-0.56-1.04-0.56q-2.44,0-6.48,3.78t-4.04,6.26z M401.7692,54.96q0,3.24-3.7,6.14t-6.42,2.9q-1.8,0-2.62-0.24t-1.82-1.44q-0.68,0.56-1.84,2.86t-1.16,3.94q0,0.76,0.76,2q0.08,0.2-0.12,0.34t-0.3,0.14t-0.18-0.04q-1.68-0.92-1.68-3.58t4.42-9.2t6.1-7.1q0.4-0.08,0.52-0.08q0.68,0,0.68,1.48q0.4-0.4,1.64-0.76q1.52-0.4,2.16-0.4q1.44,0,2.5,0.82t1.06,2.22z M399.7292,54.56q0-1.52-1.8-1.52t-3.28,0.76q-0.68,0.32-3.76,3.52t-3.08,4.12q0,0.72,1.1,1.08t2.22,0.36q2.2,0,5.4-2.5t3.2-5.82z M413.016,63.84q-2.36,0-2.36-2.76q0-1.56,1.1-3.46t2.7-4.46q-5.12,2.56-9.28,7.56q-2.32,3.48-2.72,3.48q-1.16,0-1.16-0.68q0-0.36,0.48-1.28q3.88-6.92,5.88-10.12q4.76-7.64,6.72-8.28q0.08-0.04,0.16-0.04q0.52,0,0.72,0.84q-0.12,0.84-4.16,6.08q-4.2,5.32-4.76,6.96q1.48-1.08,5.16-3.64q3.96-2.76,5.24-2.76t1.28,1q0,0.16-0.02,0.22t-2.78,3.78t-2.76,5.48q0,0.92,0.68,0.92q2.16-0.08,6.48-5.2q0.36-0.36,0.54-0.36t0.18,0.24q0,0.8-3.96,4.32q-2.48,2.16-3.36,2.16z M418.1028,68.64q1.92,2.4,3.32,2.4q2.28,0,4.92-3.64q1.92-2.68,3.76-6.76l1.52-3.68l-5.88,4.6q-2.72,2.12-4.36,2.12q-0.88,0-1.4-0.6t-0.52-1.36q0-1.72,2.96-5.66t4.32-3.94t1.36,0.92q0,0.36-3.54,4.14t-3.54,5.1q0,0.52,0.68,0.52q1.28,0,5.14-3t5.82-4.96q0.44-0.52,1.24-1.56q0.76-0.88,1.68-0.88t0.92,0.88q0,0.16-1.8,2.84t-1.88,2.84q-1.24,2.4-3.8,7q-3.88,6.24-7.76,6.24q-1.28,0-2.24-1.1t-0.92-2.46z"/><path fill="#" d=""/></svg>
