<?xml version="1.0" encoding="utf-8"?>
<!-- Generator: Adobe Illustrator 25.2.1, SVG Export Plug-In . SVG Version: 6.00 Build 0)  -->
<svg version="1.1" id="Layer_1" xmlns="http://www.w3.org/2000/svg" xmlns:xlink="http://www.w3.org/1999/xlink" x="0px" y="0px"
	 viewBox="0 0 400 60" style="enable-background:new 0 0 400 60;" xml:space="preserve">
<style type="text/css">
	.st0{fill:#FFFFFF;}
</style>
<path class="st0" d="M38.8,20.7l3.6-0.1c0.9,0,1.3,0.1,1.3,0.2c0,0.4-1.8,0.6-5.4,0.9c-2.3,4.4-3.4,7.5-3.4,9.1
	c0,1.1,0.4,1.7,1.1,1.7c0.2,0,0.6-0.1,1-0.5c0.4-0.4,0.6-0.5,0.7-0.5s0.1,0,0.1,0.2c-0.1,0.5-0.5,0.9-1.1,1.1s-1.1,0.5-1.6,0.5
	c-0.5,0-0.7,0-1-0.1c-0.6-0.2-0.9-1-0.9-2.1c0-2.4,1-5.6,2.8-9.4l-4.4,0.1c-3.3,3.2-6.6,6-9.9,8.5c-4.9,3.6-8.8,5.4-11.6,5.4
	c-0.1,0-0.4,0-0.5,0c-3.8-0.5-5.6-2.4-5.6-6c0-2.1,0.6-4.3,2-6.7c1.7-3.2,4.2-5.8,7.2-8.1s5.8-3.3,8.2-3.3s3.7,0.9,3.7,2.7
	c0,1.2-0.4,2.6-1.1,4c-0.7,1.5-1.5,2.4-2.2,2.8c-0.1,0-0.1,0-0.2,0s-0.1,0-0.1-0.1l1.2-2c0.9-1.3,1.2-2.4,1.2-3.4s-0.2-1.7-0.6-2.3
	c-0.4-0.6-1.1-0.9-2.1-0.9c-2,0-4.2,1.1-6.9,3.2s-4.7,4.8-6,7.8s-2.1,5.5-2.1,7.2c0,2.6,1.3,3.9,4,3.9c2.6,0,6-1.6,10.4-4.9
	c2-1.5,5-4.2,9.4-8.2c-0.9,0-1.6,0.1-2.4,0.2c-1.6,0.2-2.3,0.2-2.2-0.1c0.1-0.9,0.6-1.3,1.3-1.3c1.6,0.2,2.9,0.2,4,0.2
	c2.1-2,5.3-5.1,9.4-9.6c2.8-2.9,4.5-4.4,5.1-4.4c0.2,0,0.4,0.2,0.4,0.6s0,1.2-0.2,2.1c-0.2,0.9-0.5,1.5-0.7,1.6
	c-0.6,0.4-1.1,1-1.6,1.6c-0.5,0.7-1.2,2-2.1,3.8C40.3,18,39.4,19.6,38.8,20.7z M41.7,11.8l-9.4,8.8h2.2c0.5,0,1.1,0,2,0
	C37.1,19.2,38.9,16.3,41.7,11.8z M60.7,30.7c-1.7,0-2.4-0.7-2.4-2.3c0-0.9,0.4-2.1,1.2-3.7c0.7-1.5,1.6-2.8,2.4-3.9
	c-1.5,0.7-3.3,2.1-5.3,4c-2,2-3.4,3.9-4.2,6c-0.1,0.2-0.4,0.2-0.6,0.2c-0.6,0-0.9-0.4-0.9-1c0.2-1.3,0.7-2.9,1.6-4.7
	c0.2-0.6,1.1-2.2,2.4-4.9c-2,1.2-3.6,2.6-4.9,4s-2.6,2.8-3.7,4.3c-1.1,1.5-1.8,2.2-2,2.2c-0.4,0-0.6-0.1-0.9-0.5
	c-0.2-0.2-0.4-0.6-0.4-0.9c0-0.5,0.6-2.1,2-4.9l-2.2,2.3c-0.5,0.5-0.9,0.9-1,0.9c-0.1,0-0.2-0.1-0.2-0.2s0.1-0.4,0.2-0.5
	c0.9-0.9,1.7-1.8,2.4-2.7c0.7-0.9,1.8-2.6,3.6-4.9c0.2-0.4,0.6-0.6,1.1-0.6c0.5,0,0.7,0.2,0.7,0.7c0,0.1-0.6,1.3-2,3.6
	s-2.1,3.6-2.2,4.2c1-1.1,2.4-2.6,4.5-4.4c3.1-2.8,5-4.2,6-4.2c0.2,0,0.6,0.1,0.9,0.2s0.4,0.4,0.4,0.6S57,21,56,22.7
	c-1,1.7-1.5,2.7-1.6,3.1c2.7-2.3,4-3.4,4-3.4c2.3-1.8,3.9-2.7,4.9-2.7c0.2,0,0.6,0.1,0.9,0.2c0.2,0.1,0.4,0.4,0.4,0.6
	c0,0-0.9,1.1-2.4,3.1c-1.6,2.1-2.4,3.7-2.7,5c0,0.5,0,0.7,0.2,1s0.6,0.4,1.2,0.4c0.6,0,1.5-0.4,2.6-1.2c1.1-0.7,2.2-1.8,3.4-3.2
	c0.5-0.5,0.7-0.7,0.9-0.7s0.2,0,0.2,0.2c0,0.1-0.1,0.4-0.4,0.6c-1.2,1.5-2.4,2.7-3.9,3.7C62.5,30.3,61.4,30.7,60.7,30.7z M80.2,20.2
	l0.5-0.1c0.2,0,0.5,0.1,0.7,0.4c0.2,0.2,0.4,0.4,0.4,0.5s-0.7,1.3-2.3,3.6s-2.3,3.8-2.3,4.7c0,0.1,0,0.1,0,0.2
	c0.1,0.6,0.4,0.9,0.9,0.9c1.2,0,3.6-2.1,7-6.4c0.1-0.1,0.1-0.1,0.2-0.1s0.1,0.1,0.1,0.2c0,0.2-0.1,0.4-0.4,0.7
	c-3.2,4.2-5.5,6.2-7.1,6.2c-0.2,0-0.4,0-0.6-0.1c-1.1-0.4-1.6-1.2-1.6-2.4c0-0.4,0-0.9,0.1-1.2l-2.3,2.2c-1.5,1.2-2.4,2-3.2,2
	s-1.2-0.2-1.8-0.6c-0.6-0.5-1-1.1-1-2c0-1.8,1.2-3.9,3.8-6.4c2.4-2.4,4.8-3.7,6.9-3.7c0.9,0,1.3,0.2,1.6,0.9
	c0.1,0.2,0.1,0.4,0.2,0.5C80.1,20.2,80.1,20.2,80.2,20.2z M69.2,29.3c0,0.9,0.2,1.3,1,1.3c1.5,0,3.3-1.6,5.8-4.7l3.9-5.4
	c-0.2-0.4-0.5-0.5-1-0.5c-1.5,0-3.4,1.1-6,3.4S69.2,27.8,69.2,29.3z M90.6,19.6c0.6,0,1,0.2,1,0.7c0,0.1,0,0.2-0.1,0.5
	c-2.2,3.1-3.6,5.4-3.9,7c5.8-5.8,9.2-8.6,10.4-8.6c0.1,0,0.2,0,0.4,0c0.7,0,1,0.2,1,1c0,0.1,0,0.2-0.1,0.4c0,0.1-0.5,0.7-1.5,2
	c-1.1,1.2-2,2.4-2.7,3.7c-0.7,1.2-1.1,2.2-1.1,2.9c0,0.7,0.1,1.2,0.5,1.2c1.1,0,2.9-1.5,5.6-4.4c0,0,0.1-0.1,0.2-0.4
	c0.4-0.5,0.6-0.6,0.6-0.6s0.1,0.1,0.1,0.4c0,0.2-0.1,0.6-0.5,1c-3.1,3.4-5.1,5.1-6.5,5.1c-1.2,0-1.8-0.6-1.8-2s0.5-2.8,1.5-4.5
	l2.3-3.8c-1.7,1.2-3.2,2.6-4.4,4c-1.3,1.5-2.4,2.8-3.6,4.3c-1.1,1.3-1.7,2.1-1.8,2.1c-0.4,0-0.6-0.1-0.9-0.5
	C85.1,30.7,85,30.4,85,30c0-0.5,0.1-1.1,0.5-1.8c0.4-0.7,0.7-1.7,1.2-2.7l-2.2,2.3c-0.5,0.5-0.9,0.9-1,0.9s-0.2-0.1-0.2-0.2
	s0.1-0.4,0.2-0.5c0.9-0.9,1.7-1.8,2.3-2.6c0.6-0.9,2-2.4,3.9-4.8C90.1,19.7,90.3,19.6,90.6,19.6L90.6,19.6z M139.1,15.6
	c-0.9,0.4-1.7,0.6-2.3,0.6c-0.6,0-1-0.1-1-0.4c0-0.1,0.4-0.2,1.1-0.2c0.7,0,1.2-0.1,1.6-0.2c1-0.5,1.3-1.2,1.3-2.2
	c0-0.5-0.1-1-0.4-1.6c-0.7-1.3-2.7-2.1-5.8-2.1c-1.7,0-3.4,0.2-5.3,0.7c-1.7,0.5-3.2,1.3-4.4,2.4c-1.2,1.1-1.7,2.1-1.7,3.1
	c0,1.5,1.3,2.4,4.2,3.1l4.3,0.9c1.7,0.4,3.1,0.7,3.9,1.3c1.1,0.7,1.7,1.7,1.7,2.9c0,0.5-0.1,1.1-0.2,1.6c-0.7,2.7-2.8,4.7-6,6.1
	c-2.7,1.2-5.9,1.8-9.7,1.8c-1.1,0-2,0-2.7-0.1c0.7,0.5,1.8,0.9,3.1,1.1c0.1,0,0.1,0.1,0.1,0.1c0,0.2-0.2,0.4-0.7,0.4
	c-1,0-2.2-0.6-3.8-1.8c-2.1-0.4-3.6-0.9-4.5-1.7c-0.6-0.5-1.2-1.2-1.7-2.3s-0.9-2-0.9-2.8c0-0.9,0.1-1.5,0.5-2.1
	c0.7-1.3,1.7-2,2.8-2c0.9,0,1.3,0.7,1.5,2.2c0.4,2.8,0.6,4.4,0.7,4.8c0.4,1.2,1,2.2,1.8,3.1c1,0.2,2.2,0.4,3.3,0.4
	c2.7,0,5.3-0.5,7.8-1.6c2.6-1.1,4.4-2.6,5.5-4.5c0.5-0.7,0.7-1.5,0.7-2.1c0-1.1-1-2.1-3.1-2.7l-6.5-1.5c-1.3-0.4-2.3-0.9-3.2-1.6
	c-0.7-0.7-1.2-1.6-1.2-2.6c0-1.5,1-2.9,2.7-4.4c1.3-1.1,3.1-2,5.1-2.6c2.1-0.6,4-1,6-1c2,0,3.6,0.2,4.8,0.9c1.6,0.7,2.4,1.8,2.4,3.3
	C141.3,13.8,140.6,15,139.1,15.6z M115.4,31.9c-1.5-1.6-2.3-3.7-2.7-6.4c-0.2-1.6-0.4-2.3-0.6-2.3c-0.2,0-0.4,0-0.5,0.1
	c-0.1,0.1-0.4,0.4-0.5,0.7s-0.2,0.9-0.2,1.5c0,1.8,0.6,3.6,2,4.9C113.4,31,114.2,31.5,115.4,31.9z M148.1,16.5
	c0.4,0.2,0.5,0.5,0.5,0.9c0,0.4-0.1,0.6-0.5,0.9c-0.4,0.2-0.6,0.4-1,0.4c-0.4,0-0.7-0.1-1-0.4c-0.2-0.2-0.5-0.6-0.5-1
	c0-0.7,0.5-1,1.3-1C147.4,16.3,147.8,16.4,148.1,16.5z M140.4,31.6c-1.2,0-1.8-0.9-1.8-2.4c0-1.3,0.7-3.2,2.2-5.5
	c1.5-2.3,2.6-3.6,3.6-3.6c0.2,0,0.5,0.1,0.9,0.2c0.2,0.2,0.5,0.4,0.5,0.6c-0.1,0.1-0.2,0.4-0.5,0.6c-0.1,0.2-0.4,0.5-0.5,0.7
	c-0.2,0.2-0.5,0.6-0.9,1.1c-0.4,0.5-0.7,0.9-1,1.3c-1.8,2.3-2.7,4-2.7,4.9c0,0.9,0.2,1.3,1,1.3c0.5,0,1.2-0.2,2.1-0.9
	c2.1-1.2,3.7-2.7,4.9-4.2c0.5-0.6,0.7-0.9,0.9-0.9s0.2,0.1,0.2,0.2s-0.2,0.6-0.9,1.2c-0.6,0.6-1,1.1-1.3,1.3
	c-0.4,0.4-0.6,0.6-0.7,0.7s-0.4,0.4-0.7,0.6c-0.4,0.2-0.6,0.5-0.7,0.6s-0.4,0.2-0.7,0.6c-0.4,0.4-0.6,0.4-0.9,0.5s-0.5,0.2-0.9,0.4
	C141.8,31.5,141.2,31.6,140.4,31.6L140.4,31.6z M155,19.6c0.6,0,1,0.2,1,0.7c0,0.1,0,0.2-0.1,0.5c-2.2,3.1-3.6,5.4-3.9,7
	c5.8-5.8,9.2-8.6,10.4-8.6c0.1,0,0.2,0,0.4,0c0.7,0,1,0.2,1,1c0,0.1,0,0.2-0.1,0.4c0,0.1-0.5,0.7-1.5,2c-1.1,1.2-2,2.4-2.7,3.7
	c-0.7,1.2-1.1,2.2-1.1,2.9c0,0.7,0.1,1.2,0.5,1.2c1.1,0,2.9-1.5,5.6-4.4c0,0,0.1-0.1,0.2-0.4c0.4-0.5,0.6-0.6,0.6-0.6
	s0.1,0.1,0.1,0.4c0,0.2-0.1,0.6-0.5,1c-3.1,3.4-5.1,5.1-6.5,5.1c-1.2,0-1.8-0.6-1.8-2s0.5-2.8,1.5-4.5l2.3-3.8
	c-1.7,1.2-3.2,2.6-4.4,4c-1.3,1.5-2.4,2.8-3.6,4.3c-1.1,1.3-1.7,2.1-1.8,2.1c-0.4,0-0.6-0.1-0.9-0.5c-0.2-0.2-0.4-0.7-0.4-1.1
	c0-0.5,0.1-1.1,0.5-1.8c0.4-0.7,0.7-1.7,1.2-2.7l-2.2,2.3c-0.5,0.5-0.9,0.9-1,0.9s-0.2-0.1-0.2-0.2s0.1-0.4,0.2-0.5
	c0.9-0.9,1.7-1.8,2.3-2.6c0.6-0.9,2-2.4,3.9-4.8C154.5,19.7,154.8,19.6,155,19.6L155,19.6z M177.8,20l0.5-0.1c0.4,0,0.6,0.1,0.7,0.2
	c0.1,0.1,0.2,0.4,0.2,0.5c0,0.1,0,0.2,0,0.4s-0.4,0.7-1.1,1.8c-0.9,1.5-1.6,2.8-2.1,3.8c-2,3.7-3.6,6.2-4.5,7.6
	c-2.2,2.9-4.4,4.5-6.4,4.5c-0.7,0-1.3-0.2-1.8-0.9c-0.5-0.6-0.9-1.2-0.9-2c0.1-0.2,0.1-0.5,0.4-0.5c0.1,0,0.1,0.1,0.1,0.2
	c0.1,0.6,0.4,1.1,0.7,1.5c0.4,0.4,0.7,0.5,1,0.5c1.3,0,2.9-1,4.5-2.7c1.1-1.2,2.2-3.1,3.6-5.4l1.8-3.7l-2.7,2.8
	c-1.7,1.7-2.9,2.6-3.7,2.6c-0.6,0-1.2-0.2-1.8-0.6c-0.6-0.5-1-1.1-1-2c0-1.8,1.2-3.9,3.8-6.4c2.4-2.4,4.8-3.7,6.9-3.7
	c0.9,0,1.3,0.2,1.6,0.9C177.8,19.7,177.8,19.8,177.8,20C177.7,20,177.7,20,177.8,20L177.8,20z M166.8,29c0,0.9,0.2,1.3,1,1.3
	c1.5,0,3.3-1.6,5.8-4.7l3.9-5.4c-0.1-0.4-0.5-0.5-1-0.5c-1.5,0-3.6,1.2-6,3.6C168,25.7,166.8,27.6,166.8,29z M189.4,31.1
	c-1.5,0-2.2-0.9-2.2-2.6c0-1,0.4-2,1-3.2c0.7-1.2,1.5-2.6,2.4-4c-3.2,1.6-6,3.9-8.6,7c-1.5,2.1-2.2,3.2-2.4,3.2
	c-0.7,0-1.1-0.2-1.1-0.6c0-0.2,0.1-0.6,0.5-1.2c2.3-4.3,4.2-7.3,5.4-9.3c2.9-4.7,5-7.2,6.1-7.6h0.1c0.4,0,0.5,0.2,0.6,0.7
	c-0.1,0.5-1.3,2.3-3.8,5.6c-2.6,3.3-4,5.4-4.4,6.4c0.9-0.6,2.4-1.8,4.8-3.3c2.4-1.7,4-2.6,4.8-2.6c0.7,0,1.2,0.2,1.2,1
	c0,0.1,0,0.1,0,0.2c0,0-0.9,1.2-2.6,3.4c-1.7,2.3-2.6,3.9-2.6,5c0,0.6,0.2,0.9,0.6,0.9c1.3,0,3.3-1.6,6-4.8c0.2-0.2,0.4-0.4,0.5-0.4
	c0.1,0,0.1,0.1,0.1,0.2c0,0.5-1.2,1.8-3.7,3.9C191,30.4,189.9,31.1,189.4,31.1L189.4,31.1z M248.9,14.8c0,1.2-0.6,2.6-1.8,4.2
	c-1.2,1.5-3.2,2.7-5.6,3.7c-2.6,1-5,1.3-7.3,1.3c-2.4,0-4.3-0.2-5.6-1c-3.1,4.5-5.1,7.2-6,8.2c-2.7,2.7-5.8,3.9-9.4,3.9
	c-2.1,0-3.7-0.5-4.7-1.5s-1.6-2.2-1.6-3.8c0-2.1,0.9-4.2,2.6-6c1.8-2.1,4.3-3.1,7.1-3.1c1.2,0,2.2,0.2,2.9,0.9
	c0.9,0.5,1.2,1.3,1.2,2.4c0,0.7-0.4,1.6-1.2,2.7c-0.9,1-1.3,1.6-1.6,1.6c0,0-0.1,0-0.1-0.1s0-0.2,0.1-0.2c0.7-1.1,1.2-2.2,1.2-3.2
	c0-1-0.2-1.7-0.9-2.2c-0.6-0.5-1.3-0.7-2.2-0.7c-2.1,0-3.9,1-5.5,2.8c-1.6,1.8-2.3,3.8-2.3,5.6c0,1.2,0.4,2.2,1.1,2.9
	c0.7,0.7,2,1.1,3.6,1.1c3.1,0,5.6-1,7.7-3.1c1.2-1.2,2.4-2.9,3.8-5.1l3.2-5.8c1.6-2.6,3.4-6.2,5.5-11.3h-0.6c-3.3,0-6.6,0.4-9.9,1.1
	c-3.3,0.7-5.9,1.7-7.6,3.1c-0.7,0.6-1.1,1.1-1.1,1.6c0,0.5,0.2,1,0.9,1.3s1.2,0.5,2.1,0.5c0.7,0,1.7-0.1,2.9-0.5
	c1.2-0.4,2.1-0.7,2.6-1.2c0.2-0.2,0.4-0.2,0.5-0.2c0.2,0,0.2,0.1,0.1,0.2c-0.9,1-2.2,1.8-4,2.3c-1.1,0.4-2.2,0.5-3.3,0.5
	c-1.1,0-2-0.2-2.7-0.7s-1-1.1-1-2c0-0.9,0.5-1.6,1.3-2.4c1.7-1.6,4.7-2.8,8.9-3.6c3.1-0.5,6.5-0.9,10.5-0.9h1c0.5-0.5,1-0.7,1.5-0.7
	c0.5,0,0.6,0.1,0.6,0.5c0,0.1,0,0.1,0,0.2c3.8,0.2,6.9,0.9,9.2,2C247.6,11.4,248.9,12.9,248.9,14.8L248.9,14.8z M247.2,14.5
	c0-1.6-1.2-2.8-3.8-3.8c-2.2-0.9-4.9-1.3-8.2-1.6l-1.2,3.7c-1,2.3-2.7,5.5-5.4,9.7c0.2,0.1,0.6,0.2,1.2,0.4c1,0.1,1.7,0.2,2.3,0.2
	c1.8,0,4-0.4,6.4-1.1c2.4-0.7,4.4-1.8,6.1-3.4C246.4,17,247.2,15.7,247.2,14.5L247.2,14.5z M254.2,31.1c-1.5,0-2.2-0.9-2.2-2.6
	c0-1,0.4-2,1-3.2c0.6-1.2,1.5-2.6,2.4-4c-3.2,1.6-6,3.9-8.6,7c-1.5,2.1-2.2,3.2-2.4,3.2c-0.7,0-1.1-0.2-1.1-0.6
	c0-0.2,0.1-0.6,0.5-1.2c2.3-4.3,4.2-7.3,5.4-9.3c2.9-4.7,5-7.2,6.1-7.6h0.1c0.4,0,0.5,0.2,0.6,0.7c-0.1,0.5-1.3,2.3-3.8,5.6
	c-2.6,3.3-4,5.4-4.4,6.4c0.9-0.6,2.4-1.8,4.8-3.3c2.4-1.7,4-2.6,4.8-2.6s1.2,0.2,1.2,1c0,0.1,0,0.1,0,0.2c0,0-0.9,1.2-2.6,3.4
	c-1.7,2.3-2.6,3.9-2.6,5c0,0.6,0.2,0.9,0.6,0.9c1.3,0,3.3-1.6,6-4.8c0.2-0.2,0.4-0.4,0.5-0.4c0.1,0,0.1,0.1,0.1,0.2
	c0,0.5-1.2,1.8-3.7,3.9C255.8,30.4,254.7,31.1,254.2,31.1L254.2,31.1z M270.5,23.4c0,0.9-0.9,2.3-2.4,4.3c-2,2.3-3.6,3.6-5,3.6h-0.6
	c-0.6,0-1.1-0.4-1.5-1c-0.2-0.5-0.5-1-0.5-1.6c0-1.5,1.1-3.6,3.2-6.2s3.9-4,5.1-4c1.2,0,1.8,0.6,1.8,2c0,0.4-0.1,0.7-0.1,1.3
	c0,0.1,0.2,0.1,0.7,0.1c0.5,0,1.1-0.2,2-0.7c0,0.4-1,1-2.9,1.8C270.5,23.2,270.5,23.3,270.5,23.4L270.5,23.4z M268.2,21.6
	c-0.9,0-2,1-3.6,2.9s-2.3,3.4-2.3,4.3s0.2,1.3,0.9,1.3c1.1,0,2.4-1,4-2.8c1.6-2,2.4-3.3,2.4-4.2C269.1,23,268.7,22.4,268.2,21.6z
	 M282.5,19.4l5.3-0.1c0.1,0,0.1,0.1,0.1,0.1c0,0.2-1.5,0.5-4.5,1c-3.1,0.5-4.7,0.6-4.9,0.7c-0.5,0.4-1.3,1.7-2.6,3.7
	c-1.2,2.1-1.8,3.6-1.8,4.5c0,0.9,0.6,1.3,1.8,1.3c0.6,0,1.3-0.1,2.3-0.6c1-0.4,1.7-0.7,2.2-1c1.3-0.9,2.8-2.1,4.4-3.8
	c0.4-0.4,0.6-0.5,0.7-0.5c0.1,0,0.1,0.1,0.1,0.2s-0.1,0.5-0.5,0.9c-1.2,1.6-2.7,2.8-4.3,3.8c-2,1.2-3.7,1.7-5.5,1.7
	c-0.7,0-1.3-0.1-1.8-0.5c-0.5-0.4-0.7-1-0.7-2s0.5-2.3,1.3-4.2s1.6-3.1,2-3.9c-0.4,0.1-0.6,0.1-0.9,0.1c-0.7,0-1.1-0.2-1.1-0.9
	c0-0.4,0.2-0.7,0.9-0.9c0.1,0,0.2,0,0.4,0h2.1c0.5-0.6,1-1.2,1.5-2c0.7-0.9,1.1-1.3,1.3-1.3c0.2,0,0.5,0.1,1,0.2
	c0.4,0.2,0.5,0.5,0.5,0.7c0,0.2-0.6,1.1-1.7,2.4C280.5,19.4,281.4,19.4,282.5,19.4z M295,23.4c0,0.9-0.9,2.3-2.4,4.3
	c-2,2.3-3.6,3.6-5,3.6h-0.6c-0.6,0-1.1-0.4-1.5-1c-0.2-0.5-0.5-1-0.5-1.6c0-1.5,1.1-3.6,3.2-6.2s3.9-4,5.1-4c1.2,0,1.8,0.6,1.8,2
	c0,0.4,0,0.7-0.1,1.3c0,0.1,0.2,0.1,0.7,0.1c0.5,0,1.1-0.2,2-0.7c0,0.4-1,1-2.9,1.8C295,23.2,295,23.3,295,23.4L295,23.4z
	 M292.5,21.6c-0.9,0-2,1-3.6,2.9s-2.3,3.4-2.3,4.3s0.2,1.3,0.9,1.3c1.1,0,2.3-1,4-2.8c1.6-2,2.4-3.3,2.4-4.2
	C293.6,23,293.1,22.4,292.5,21.6z M309.6,20l0.5-0.1c0.4,0,0.6,0.1,0.7,0.2c0.2,0.2,0.2,0.4,0.2,0.5c0,0.1,0,0.2,0,0.4
	s-0.4,0.7-1.1,1.8c-0.9,1.5-1.6,2.8-2.1,3.8c-2,3.7-3.6,6.2-4.5,7.6c-2.2,2.9-4.4,4.5-6.4,4.5c-0.7,0-1.3-0.2-1.8-0.9
	s-0.9-1.2-0.9-2c0.1-0.2,0.1-0.5,0.4-0.5c0.1,0,0.1,0.1,0.1,0.2c0.1,0.6,0.4,1.1,0.7,1.5c0.4,0.4,0.7,0.5,1,0.5c1.3,0,2.9-1,4.5-2.7
	c1.1-1.2,2.2-3.1,3.6-5.4l1.8-3.7l-2.7,2.8c-1.7,1.7-2.9,2.6-3.7,2.6c-0.6,0-1.2-0.2-1.8-0.6c-0.6-0.5-1-1.1-1-2
	c0-1.8,1.2-3.9,3.8-6.4c2.4-2.4,4.8-3.7,6.9-3.7c0.9,0,1.3,0.2,1.6,0.9c0.1,0.2,0.1,0.4,0.2,0.5C309.6,20,309.6,20,309.6,20
	L309.6,20z M298.7,29c0,0.9,0.2,1.3,0.9,1.3c1.5,0,3.3-1.6,5.8-4.7l3.9-5.4c-0.1-0.4-0.5-0.5-0.9-0.5c-1.5,0-3.6,1.2-6,3.6
	C299.9,25.7,298.7,27.6,298.7,29L298.7,29z M320.1,31.5c-1.8,0-2.7-1-2.7-3.1c0-1,0.2-2.2,0.9-3.4c0.5-1.2,1.1-2.2,1.7-3.1
	c-0.1,0-0.2,0-0.5,0c-0.6,0-1.1-0.4-1.5-1.2l-2.7,3.6c-1.5,1.8-2.4,2.8-2.7,2.8c-0.1,0-0.2,0-0.2-0.1c0-0.2,0.2-0.6,0.6-1.1
	c2.1-2.4,3.7-4.5,4.5-6.2c0.6-2.1,1.2-3.2,2.1-3.2c0.6,0,0.9,0.2,0.9,0.7s-0.2,1.1-1,1.8l-0.9,1.2c0,0.5,0.4,0.7,1.1,0.7
	c0.5,0,1-0.1,1.5-0.5l1-0.6c0,0,0.1,0,0.4,0c0.2,0,0.4,0.1,0.6,0.4c0.2,0.2,0.2,0.5,0.2,0.6l-2.6,3.2c-1.6,2-2.3,3.6-2.3,4.8
	s0.5,1.7,1.6,1.7s2.4-0.6,4.2-1.8c1-0.7,1.8-1.5,2.7-2.4c0.7-0.9,1.2-1.3,1.2-1.3c0.1,0,0.2,0.1,0.2,0.2s-0.1,0.4-0.4,0.6l-1.2,1.3
	c-0.6,0.7-1.3,1.3-2.2,2C322.9,30.7,321.3,31.4,320.1,31.5z M340.9,20.2l0.5-0.1c0.2,0,0.5,0.1,0.7,0.4c0.2,0.2,0.4,0.4,0.4,0.5
	s-0.7,1.3-2.3,3.6s-2.3,3.8-2.3,4.7c0,0.1,0,0.1,0,0.2c0.1,0.6,0.4,0.9,0.9,0.9c1.2,0,3.6-2.1,7-6.4c0.1-0.1,0.1-0.1,0.2-0.1
	s0.1,0.1,0.1,0.2c0,0.2-0.1,0.4-0.4,0.7c-3.2,4.2-5.5,6.2-7.2,6.2c-0.2,0-0.4,0-0.6-0.1c-1.1-0.4-1.6-1.2-1.6-2.4
	c0-0.4,0-0.9,0.1-1.2l-2.3,2.2c-1.5,1.2-2.4,2-3.2,2c-0.6,0-1.2-0.2-1.8-0.6c-0.6-0.5-1-1.1-1-2c0-1.8,1.2-3.9,3.8-6.4
	c2.4-2.4,4.8-3.7,6.9-3.7c0.9,0,1.3,0.2,1.6,0.9c0.1,0.2,0.1,0.4,0.2,0.5C340.8,20.2,340.8,20.2,340.9,20.2z M329.9,29.3
	c0,0.9,0.2,1.3,1,1.3c1.5,0,3.3-1.6,5.8-4.7l3.9-5.4c-0.2-0.4-0.5-0.5-1-0.5c-1.5,0-3.4,1.1-6,3.4C331.1,25.9,329.9,27.8,329.9,29.3
	z M359.3,22.9c0,2-1.1,3.9-3.4,5.6c-2.3,1.7-4.3,2.7-5.9,2.7c-1.1,0-2-0.1-2.4-0.2s-1.1-0.6-1.7-1.3c-0.4,0.4-1,1.2-1.7,2.6
	c-0.7,1.5-1.1,2.6-1.1,3.7c0,0.5,0.2,1.1,0.7,1.8c0,0.1,0,0.2-0.1,0.4c-0.1,0.1-0.2,0.1-0.2,0.1h-0.1c-1-0.6-1.6-1.7-1.6-3.3
	s1.3-4.4,4-8.5c2.7-4,4.5-6.1,5.6-6.5c0.2,0,0.4-0.1,0.5-0.1c0.4,0,0.6,0.5,0.6,1.3c0.2-0.2,0.7-0.5,1.5-0.7c1-0.2,1.6-0.4,2-0.4
	c0.9,0,1.6,0.2,2.3,0.7C358.9,21.4,359.3,22.1,359.3,22.9L359.3,22.9z M357.4,22.5c0-1-0.6-1.3-1.7-1.3s-2.1,0.2-3.1,0.7
	c-0.4,0.2-1.6,1.2-3.4,3.2c-1.8,2-2.8,3.2-2.8,3.8c0,0.5,0.4,0.7,1,1c0.6,0.2,1.3,0.4,2.1,0.4c1.3,0,3.1-0.7,4.9-2.3
	C356.5,26.3,357.4,24.6,357.4,22.5z M369.6,31.1c-1.5,0-2.2-0.9-2.2-2.6c0-1,0.4-2,1-3.2c0.7-1.2,1.5-2.6,2.4-4
	c-3.2,1.6-6,3.9-8.6,7c-1.5,2.1-2.2,3.2-2.4,3.2c-0.7,0-1.1-0.2-1.1-0.6c0-0.2,0.1-0.6,0.5-1.2c2.3-4.3,4.2-7.3,5.4-9.3
	c2.9-4.7,5-7.2,6.1-7.6h0.1c0.4,0,0.5,0.2,0.6,0.7c-0.1,0.5-1.3,2.3-3.8,5.6c-2.6,3.3-4,5.4-4.4,6.4c0.9-0.6,2.4-1.8,4.8-3.3
	c2.4-1.7,4-2.6,4.8-2.6c0.7,0,1.2,0.2,1.2,1c0,0.1,0,0.1,0,0.2c0,0-0.9,1.2-2.6,3.4c-1.7,2.3-2.6,3.9-2.6,5c0,0.6,0.2,0.9,0.6,0.9
	c1.3,0,3.3-1.6,6-4.8c0.2-0.2,0.4-0.4,0.5-0.4c0.1,0,0.1,0.1,0.1,0.2c0,0.5-1.2,1.8-3.7,3.9C371.2,30.4,370.2,31.1,369.6,31.1z
	 M374.2,35.5c1.2,1.5,2.2,2.2,3.1,2.2c1.3,0,2.9-1.1,4.5-3.3c1.2-1.6,2.3-3.7,3.4-6.2l1.3-3.4l-5.4,4.3c-1.7,1.3-3.1,2-4,2
	c-0.5,0-1-0.2-1.2-0.6c-0.4-0.4-0.5-0.7-0.5-1.2c0-1.1,0.9-2.8,2.7-5.1c1.8-2.4,3.2-3.7,3.9-3.7c0.7,0,1.2,0.2,1.2,0.9
	c0,0.2-1.1,1.5-3.3,3.8c-2.2,2.3-3.3,3.9-3.3,4.7c0,0.4,0.2,0.5,0.6,0.5c0.7,0,2.3-1,4.8-2.7s4.2-3.3,5.4-4.5
	c0.2-0.4,0.6-0.9,1.1-1.5c0.5-0.5,1-0.9,1.6-0.9s0.9,0.2,0.9,0.9c0,0.1-0.6,1-1.7,2.6c-1.1,1.6-1.7,2.4-1.7,2.6
	c-0.7,1.5-2,3.6-3.6,6.4c-2.3,3.8-4.8,5.8-7.1,5.8c-0.7,0-1.5-0.4-2.1-1C374.5,37.1,374.2,36.4,374.2,35.5z"/>
</svg>
